<svg width="100" height="28" viewBox="0 0 100 28" fill="none" xmlns="http://www.w3.org/2000/svg">
<g clip-path="url(#clip0_1_78)">
<path d="M95.987 0H3.43834C1.5394 0 0 2.68629 0 6V22C0 25.3137 1.5394 28 3.43834 28H95.987C97.8859 28 99.4253 25.3137 99.4253 22V6C99.4253 2.68629 97.8859 0 95.987 0Z" fill="url(#paint0_linear_1_78)"/>
<g filter="url(#filter0_d_1_78)">
<path d="M11.9474 8L12.2962 9.49086C10.552 9.49086 6.31579 9.49086 6.31579 9.49086C6.31579 9.49086 6.41548 9.93813 6.46532 9.98784C6.61483 10.2363 6.76435 10.5345 6.96369 10.7332C7.91061 11.8266 9.55519 12.2738 10.9008 12.5222C11.8477 12.7211 12.7947 12.7708 13.7415 12.8205L14.8379 15.7524H15.4361L15.7849 16.6968H15.2865L14.4393 19.43H22.7621L21.9149 16.6968H21.4166L21.7654 15.7524H22.3633C22.3633 15.7524 22.8618 12.7211 24.4068 11.3296C25.9019 9.93813 27.7458 9.7393 27.7458 9.7393V8H11.9474ZM20.3201 15.504C19.9214 15.7524 19.4728 15.7525 19.1738 15.9513C18.9745 16.0507 18.8748 16.3488 18.8748 16.3488C18.6754 15.9016 18.4263 15.7525 18.1272 15.6531C17.8282 15.5537 17.28 15.6034 16.5324 14.9573C16.0341 14.5101 15.9842 13.9137 16.0341 13.6156V13.5659C16.0341 13.5162 16.0341 13.5162 16.0341 13.4665C16.0341 13.4169 16.0341 13.3672 16.0839 13.3174C16.1836 13.0192 16.4328 12.7211 16.9312 12.5222C16.9312 12.5222 16.5823 13.0192 16.9312 13.5162C17.1305 13.8144 17.5292 13.9634 17.878 13.7647C18.0275 13.6653 18.1272 13.4666 18.177 13.3174C18.2767 12.9696 18.2767 12.6217 17.9777 12.3732C17.5292 11.9757 17.4295 11.429 17.7285 11.0812C17.7285 11.0812 17.8282 11.5284 18.2767 11.4787C18.5758 11.4787 18.5758 11.3793 18.4761 11.2799C18.4263 11.1308 17.7784 10.1866 18.7253 9.49086C18.7253 9.49086 19.3233 9.09329 20.0211 9.14299C19.6223 9.19269 19.1738 9.44118 19.0243 9.83872C19.0243 9.83872 19.0243 9.83872 19.0243 9.88842C18.8748 10.286 18.9745 10.7332 19.2735 11.1308C19.4728 11.429 19.722 11.6774 19.8216 12.075C19.6721 12.0254 19.5725 12.0751 19.4728 12.1744C19.3731 12.2738 19.3233 12.4726 19.3731 12.6217C19.4229 12.7211 19.5226 12.8205 19.6223 12.8205C19.6721 12.8205 19.6722 12.8205 19.722 12.8205H19.7718C19.9214 12.7708 20.0211 12.572 19.9713 12.4229C20.0709 12.5223 20.1207 12.7708 20.0709 12.9199C20.0709 13.0689 19.9713 13.218 19.9214 13.3174C19.8716 13.4169 19.7718 13.5162 19.722 13.6156C19.6722 13.715 19.6223 13.8144 19.6223 13.9138C19.6223 14.0131 19.6223 14.1623 19.6722 14.2617C19.8716 14.5598 20.2702 14.2617 20.3699 14.0131C20.5194 13.715 20.4696 13.3672 20.2702 13.0689C20.2702 13.0689 20.6191 13.2677 20.8682 13.9634C21.0676 14.5598 20.7187 15.2556 20.3201 15.504Z" fill="#F16436"/>
</g>
<path d="M96.4935 1H4.00654C2.34607 1 1 3.35051 1 6.25V22.25C1 25.1495 2.34607 27.5 4.00654 27.5H96.4935C98.1539 27.5 99.5 25.1495 99.5 22.25V6.25C99.5 3.35051 98.1539 1 96.4935 1Z" stroke="white" stroke-opacity="0.15" stroke-width="1.5"/>
<g filter="url(#filter1_d_1_78)">
<path d="M38.4219 12.0164H36.4487C36.4228 11.7486 36.3691 11.507 36.2867 11.2914C36.2052 11.0757 36.0978 10.8915 35.9636 10.7385C35.8293 10.5855 35.67 10.469 35.4858 10.389C35.3043 10.3056 35.1034 10.2638 34.8821 10.2638C34.4904 10.2638 34.1525 10.3908 33.8682 10.6446C33.5867 10.8984 33.3701 11.2653 33.2173 11.7452C33.0673 12.2251 32.9923 12.8058 32.9923 13.4874C32.9923 14.1967 33.0691 14.7913 33.221 15.2713C33.3765 15.7477 33.5932 16.1075 33.8728 16.351C34.1543 16.5909 34.4867 16.7109 34.871 16.7109C35.0867 16.7109 35.2821 16.6744 35.4589 16.6013C35.6376 16.5284 35.7941 16.4223 35.9284 16.2832C36.0645 16.1406 36.1765 15.9685 36.2636 15.7668C36.3534 15.5616 36.4145 15.3304 36.4487 15.0731L38.4219 15.0887C38.3876 15.5616 38.2839 16.0276 38.1098 16.4866C37.9395 16.9457 37.7034 17.3646 37.4034 17.7437C37.1043 18.1193 36.7385 18.4183 36.3071 18.6408C35.8784 18.8634 35.3858 18.9748 34.8312 18.9748C34.0997 18.9748 33.4451 18.7626 32.8664 18.3384C32.2902 17.9106 31.8352 17.2881 31.5011 16.471C31.167 15.6538 31 14.6593 31 13.4874C31 12.312 31.1696 11.3158 31.509 10.4985C31.8483 9.68129 32.3073 9.06058 32.8858 8.63632C33.4645 8.21212 34.1127 8 34.8312 8C35.3201 8 35.7728 8.09041 36.1886 8.27124C36.6043 8.44855 36.97 8.7094 37.2858 9.0536C37.6015 9.3945 37.858 9.81349 38.0552 10.3107C38.2524 10.808 38.3746 11.3766 38.4219 12.0164ZM43.4496 15.3704V10.8167H45.3746V18.8286H43.5366V17.3369H43.4737C43.3394 17.8272 43.1098 18.2166 42.7866 18.5052C42.4653 18.7904 42.0774 18.933 41.6228 18.933C41.2098 18.933 40.8468 18.8078 40.5339 18.5574C40.2209 18.307 39.9774 17.9576 39.8033 17.509C39.6302 17.0569 39.5422 16.5284 39.5395 15.9233V10.8167H41.4691V15.4226C41.4718 15.8572 41.5579 16.1997 41.7292 16.4502C41.9005 16.7005 42.1329 16.8257 42.4274 16.8257C42.62 16.8257 42.7922 16.77 42.944 16.6587C43.0996 16.544 43.2218 16.3788 43.3116 16.1632C43.4033 15.9441 43.4496 15.6799 43.4496 15.3704ZM46.6033 18.8286V10.8167H48.4773V12.2773H48.5403C48.6505 11.7486 48.831 11.3557 49.081 11.0984C49.331 10.8375 49.6218 10.7072 49.9532 10.7072C50.0421 10.7072 50.1347 10.7159 50.2292 10.7332C50.3236 10.7472 50.4116 10.7697 50.494 10.8011V13.0179C50.4014 12.9762 50.2801 12.9431 50.1301 12.9188C49.9829 12.8944 49.8514 12.8823 49.7356 12.8823C49.5069 12.8823 49.3005 12.9501 49.1162 13.0857C48.9347 13.2178 48.7912 13.4039 48.6866 13.6438C48.5838 13.8803 48.5329 14.1585 48.5329 14.4785V18.8286H46.6033ZM56.5708 13.2631L54.7995 13.3257C54.781 13.1587 54.731 13.011 54.6495 12.8823C54.568 12.7501 54.4615 12.6475 54.33 12.5746C54.2004 12.4981 54.0513 12.4598 53.88 12.4598C53.656 12.4598 53.4652 12.5189 53.3078 12.6371C53.1523 12.7554 53.0764 12.9154 53.0791 13.117C53.0764 13.2735 53.1236 13.4091 53.2208 13.5238C53.3208 13.6386 53.4986 13.7308 53.7532 13.8003L54.9217 14.0924C55.5263 14.2454 55.9763 14.4993 56.2708 14.854C56.568 15.2087 56.718 15.6782 56.7208 16.2623C56.718 16.8117 56.5948 17.2899 56.3495 17.6967C56.1078 18.1036 55.7763 18.42 55.356 18.6461C54.9347 18.8686 54.4532 18.9799 53.9115 18.9799C53.0458 18.9799 52.3634 18.7453 51.8634 18.2757C51.3662 17.8029 51.0829 17.1699 51.0116 16.3771L52.9171 16.3145C52.9597 16.6066 53.068 16.8291 53.2449 16.9821C53.4208 17.1351 53.6458 17.2116 53.9189 17.2116C54.1671 17.2116 54.368 17.1508 54.5226 17.0291C54.6782 16.9073 54.7569 16.7456 54.7597 16.544C54.7569 16.3631 54.6967 16.2188 54.5782 16.1111C54.4597 15.9998 54.2745 15.9128 54.0217 15.8503L52.9643 15.5843C52.3569 15.4382 51.9041 15.1687 51.6069 14.7758C51.3097 14.3793 51.1625 13.8751 51.1653 13.2631C51.1625 12.7276 51.2708 12.2703 51.4884 11.8912C51.7069 11.5087 52.0171 11.2166 52.4199 11.0149C52.8226 10.8132 53.2976 10.7124 53.8439 10.7124C54.6652 10.7124 55.3124 10.9401 55.7856 11.3957C56.2587 11.8477 56.5208 12.4702 56.5708 13.2631ZM60.504 18.9799C59.8698 18.9799 59.3226 18.8148 58.8624 18.4844C58.405 18.1506 58.0522 17.6759 57.805 17.0604C57.5606 16.4415 57.4383 15.7059 57.4383 14.854C57.4383 14.0263 57.5615 13.303 57.8087 12.6841C58.0559 12.0616 58.405 11.5782 58.8541 11.234C59.3041 10.8862 59.8346 10.7124 60.4448 10.7124C60.8763 10.7124 61.2707 10.8011 61.6281 10.9784C61.9855 11.1558 62.2948 11.4183 62.5559 11.7661C62.8161 12.1137 63.0188 12.5432 63.1633 13.0544C63.3077 13.5621 63.3799 14.1445 63.3799 14.8019V15.4382H58.1124V13.9568H61.5846C61.5818 13.6855 61.5337 13.4439 61.4392 13.2318C61.3439 13.0196 61.2142 12.8545 61.0485 12.7363C60.8855 12.6145 60.6966 12.5536 60.4837 12.5536C60.2679 12.5536 60.0754 12.618 59.9041 12.7467C59.7328 12.8719 59.5976 13.044 59.4976 13.2631C59.3976 13.4787 59.3448 13.7238 59.3402 13.9985V15.5059C59.3402 15.8329 59.3883 16.1198 59.4855 16.3667C59.5828 16.61 59.7207 16.7996 59.9004 16.9353C60.0791 17.0709 60.292 17.1387 60.5392 17.1387C60.7105 17.1387 60.8652 17.1074 61.005 17.0447C61.1439 16.9821 61.2642 16.89 61.3642 16.7683C61.4642 16.6466 61.5392 16.497 61.5883 16.3197L63.3605 16.3875C63.2864 16.9126 63.1253 17.3699 62.8753 17.7594C62.6281 18.1453 62.3031 18.4461 61.9003 18.6618C61.4976 18.8739 61.0327 18.9799 60.504 18.9799ZM64.3651 18.8286V8.14605H69.8817V10.2429H66.3188V12.4337H69.5308V14.5357H66.3188V18.8286H64.3651ZM73.2493 18.9799C72.6123 18.9799 72.065 18.8078 71.6076 18.4635C71.153 18.1157 70.8012 17.6325 70.554 17.0135C70.3095 16.391 70.1873 15.6695 70.1873 14.8487C70.1873 14.0246 70.3095 13.303 70.554 12.6841C70.8012 12.0616 71.153 11.5782 71.6076 11.234C72.065 10.8862 72.6123 10.7124 73.2493 10.7124C73.8854 10.7124 74.4317 10.8862 74.8863 11.234C75.3446 11.5782 75.6956 12.0616 75.94 12.6841C76.1872 13.303 76.3113 14.0246 76.3113 14.8487C76.3113 15.6695 76.1872 16.391 75.94 17.0135C75.6956 17.6325 75.3446 18.1157 74.8863 18.4635C74.4317 18.8078 73.8854 18.9799 73.2493 18.9799ZM73.2613 17.0552C73.4928 17.0552 73.6882 16.9613 73.8493 16.7736C74.0095 16.5857 74.1317 16.3249 74.216 15.9911C74.303 15.6572 74.3465 15.2713 74.3465 14.8331C74.3465 14.388 74.303 13.9985 74.216 13.6647C74.1317 13.3309 74.0095 13.0701 73.8493 12.8823C73.6882 12.6945 73.4928 12.6006 73.2613 12.6006C73.0215 12.6006 72.8187 12.6945 72.653 12.8823C72.49 13.0701 72.365 13.3309 72.2789 13.6647C72.1947 13.9985 72.1521 14.388 72.1521 14.8331C72.1521 15.2713 72.1947 15.6572 72.2789 15.9911C72.365 16.3249 72.49 16.5857 72.653 16.7736C72.8187 16.9613 73.0215 17.0552 73.2613 17.0552ZM77.2993 18.8286V10.8167H79.1733V12.2773H79.2363C79.3474 11.7486 79.527 11.3557 79.777 11.0984C80.027 10.8375 80.3177 10.7072 80.6492 10.7072C80.739 10.7072 80.8307 10.7159 80.9251 10.7332C81.0205 10.7472 81.1085 10.7697 81.19 10.8011V13.0179C81.0974 12.9762 80.977 12.9431 80.827 12.9188C80.6798 12.8944 80.5483 12.8823 80.4325 12.8823C80.2038 12.8823 79.9974 12.9501 79.8131 13.0857C79.6316 13.2178 79.4881 13.4039 79.3826 13.6438C79.2798 13.8803 79.2289 14.1585 79.2289 14.4785V18.8286H77.2993ZM84.4862 22C83.9103 22 83.4168 21.894 83.0066 21.6819C82.5964 21.4697 82.2742 21.1794 82.0399 20.8108C81.8057 20.4422 81.6649 20.0249 81.6177 19.5589L83.4446 19.4233C83.4788 19.5868 83.5418 19.7293 83.6344 19.8511C83.7288 19.9727 83.851 20.0666 84.001 20.1327C84.1538 20.1988 84.3325 20.2317 84.5381 20.2317C84.8612 20.2317 85.1279 20.1275 85.339 19.9189C85.5519 19.7136 85.6584 19.3537 85.6584 18.8391V17.4307H85.5908C85.5149 17.6776 85.3992 17.8985 85.2436 18.0932C85.089 18.2879 84.8955 18.441 84.664 18.5522C84.4353 18.6635 84.1723 18.7191 83.8751 18.7191C83.4325 18.7191 83.0279 18.5836 82.6594 18.3123C82.2936 18.0375 82.001 17.6133 81.7798 17.0395C81.5612 16.4623 81.452 15.7199 81.452 14.8123C81.452 13.8768 81.5649 13.1065 81.7918 12.5015C82.0177 11.8929 82.314 11.4426 82.6797 11.1505C83.0473 10.8585 83.4436 10.7124 83.8668 10.7124C84.1853 10.7124 84.4575 10.7854 84.6834 10.9314C84.9121 11.074 85.101 11.2584 85.2482 11.4843C85.3955 11.7104 85.5075 11.9452 85.5834 12.1885H85.639V10.8167H87.5602V18.8599C87.5602 19.5381 87.4315 20.1101 87.1732 20.5761C86.9158 21.0421 86.5556 21.395 86.0927 21.6349C85.6297 21.8783 85.0936 22 84.4862 22ZM84.5455 16.8622C84.7797 16.8622 84.9797 16.7804 85.1455 16.617C85.3112 16.4536 85.439 16.2188 85.5279 15.9128C85.6177 15.6068 85.6621 15.2399 85.6621 14.8123C85.6621 14.3776 85.6177 14.0038 85.5279 13.6908C85.4408 13.3744 85.314 13.1309 85.1455 12.9605C84.9797 12.7901 84.7797 12.7049 84.5455 12.7049C84.3066 12.7049 84.1038 12.7918 83.9381 12.9658C83.7723 13.1396 83.6464 13.3848 83.5594 13.7012C83.4751 14.0142 83.4325 14.3846 83.4325 14.8123C83.4325 15.2399 83.476 15.6068 83.5631 15.9128C83.6501 16.2188 83.7751 16.4536 83.9381 16.617C84.1038 16.7804 84.3066 16.8622 84.5455 16.8622ZM91.6232 18.9799C90.9889 18.9799 90.4417 18.8148 89.9815 18.4844C89.5241 18.1506 89.1713 17.6759 88.9241 17.0604C88.6797 16.4415 88.5575 15.7059 88.5575 14.854C88.5575 14.0263 88.6806 13.303 88.9278 12.6841C89.176 12.0616 89.5241 11.5782 89.9741 11.234C90.4241 10.8862 90.9537 10.7124 91.5639 10.7124C91.9954 10.7124 92.3898 10.8011 92.7472 10.9784C93.1056 11.1558 93.4148 11.4183 93.675 11.7661C93.9352 12.1137 94.138 12.5432 94.2824 13.0544C94.4269 13.5621 94.5 14.1445 94.5 14.8019V15.4382H89.2325V13.9568H92.7046C92.7019 13.6855 92.6528 13.4439 92.5584 13.2318C92.4639 13.0196 92.3334 12.8545 92.1676 12.7363C92.0047 12.6145 91.8167 12.5536 91.6037 12.5536C91.388 12.5536 91.1945 12.618 91.0232 12.7467C90.8528 12.8719 90.7167 13.044 90.6167 13.2631C90.5167 13.4787 90.4649 13.7238 90.4593 13.9985V15.5059C90.4593 15.8329 90.5074 16.1198 90.6056 16.3667C90.7028 16.61 90.8408 16.7996 91.0195 16.9353C91.1982 17.0709 91.4111 17.1387 91.6584 17.1387C91.8297 17.1387 91.9852 17.1074 92.1241 17.0447C92.2639 16.9821 92.3833 16.89 92.4833 16.7683C92.5833 16.6466 92.6584 16.497 92.7084 16.3197L94.4796 16.3875C94.4065 16.9126 94.2444 17.3699 93.9944 17.7594C93.7472 18.1453 93.4222 18.4461 93.0195 18.6618C92.6176 18.8739 92.1519 18.9799 91.6232 18.9799Z" fill="#F16436"/>
</g>
</g>
<defs>
<filter id="filter0_d_1_78" x="2.31579" y="4" width="29.43" height="19.43" filterUnits="userSpaceOnUse" color-interpolation-filters="sRGB">
<feFlood flood-opacity="0" result="BackgroundImageFix"/>
<feColorMatrix in="SourceAlpha" type="matrix" values="0 0 0 0 0 0 0 0 0 0 0 0 0 0 0 0 0 0 127 0" result="hardAlpha"/>
<feOffset/>
<feGaussianBlur stdDeviation="2"/>
<feComposite in2="hardAlpha" operator="out"/>
<feColorMatrix type="matrix" values="0 0 0 0 0 0 0 0 0 0 0 0 0 0 0 0 0 0 0.25 0"/>
<feBlend mode="normal" in2="BackgroundImageFix" result="effect1_dropShadow_1_78"/>
<feBlend mode="normal" in="SourceGraphic" in2="effect1_dropShadow_1_78" result="shape"/>
</filter>
<filter id="filter1_d_1_78" x="27" y="4" width="71.5" height="22" filterUnits="userSpaceOnUse" color-interpolation-filters="sRGB">
<feFlood flood-opacity="0" result="BackgroundImageFix"/>
<feColorMatrix in="SourceAlpha" type="matrix" values="0 0 0 0 0 0 0 0 0 0 0 0 0 0 0 0 0 0 127 0" result="hardAlpha"/>
<feOffset/>
<feGaussianBlur stdDeviation="2"/>
<feComposite in2="hardAlpha" operator="out"/>
<feColorMatrix type="matrix" values="0 0 0 0 0 0 0 0 0 0 0 0 0 0 0 0 0 0 0.25 0"/>
<feBlend mode="normal" in2="BackgroundImageFix" result="effect1_dropShadow_1_78"/>
<feBlend mode="normal" in="SourceGraphic" in2="effect1_dropShadow_1_78" result="shape"/>
</filter>
<linearGradient id="paint0_linear_1_78" x1="49.7126" y1="0" x2="49.7126" y2="28" gradientUnits="userSpaceOnUse">
<stop stop-color="#2E140B"/>
<stop offset="1" stop-color="#1E0C07"/>
</linearGradient>
<clipPath id="clip0_1_78">
<rect width="100" height="28" fill="white"/>
</clipPath>
</defs>
</svg>
