<svg width="95" height="28" viewBox="0 0 95 28" fill="none" xmlns="http://www.w3.org/2000/svg">
<g clip-path="url(#clip0_1_78)">
<path d="M91.1876 0H3.26642C1.46243 0 0 2.68629 0 6V22C0 25.3137 1.46243 28 3.26642 28H91.1876C92.9916 28 94.454 25.3137 94.454 22V6C94.454 2.68629 92.9916 0 91.1876 0Z" fill="url(#paint0_linear_1_78)"/>
<g filter="url(#filter0_d_1_78)">
<path d="M11.6316 8L11.9804 9.49086C10.2362 9.49086 6 9.49086 6 9.49086C6 9.49086 6.0997 9.93813 6.14953 9.98784C6.29904 10.2363 6.44856 10.5345 6.6479 10.7332C7.59482 11.8266 9.2394 12.2738 10.585 12.5222C11.5319 12.7211 12.4789 12.7708 13.4257 12.8205L14.5221 15.7524H15.1203L15.4691 16.6968H14.9708L14.1235 19.43H22.4463L21.5991 16.6968H21.1008L21.4496 15.7524H22.0475C22.0475 15.7524 22.546 12.7211 24.091 11.3296C25.5861 9.93813 27.43 9.7393 27.43 9.7393V8H11.6316ZM20.0043 15.504C19.6056 15.7524 19.157 15.7525 18.858 15.9513C18.6587 16.0507 18.559 16.3488 18.559 16.3488C18.3596 15.9016 18.1105 15.7525 17.8114 15.6531C17.5124 15.5537 16.9642 15.6034 16.2166 14.9573C15.7183 14.5101 15.6684 13.9137 15.7183 13.6156V13.5659C15.7183 13.5162 15.7183 13.5162 15.7183 13.4665C15.7183 13.4169 15.7183 13.3672 15.7681 13.3174C15.8678 13.0192 16.117 12.7211 16.6154 12.5222C16.6154 12.5222 16.2665 13.0192 16.6154 13.5162C16.8147 13.8144 17.2134 13.9634 17.5622 13.7647C17.7117 13.6653 17.8114 13.4666 17.8612 13.3174C17.961 12.9696 17.961 12.6217 17.6619 12.3732C17.2134 11.9757 17.1137 11.429 17.4127 11.0812C17.4127 11.0812 17.5124 11.5284 17.961 11.4787C18.26 11.4787 18.26 11.3793 18.1603 11.2799C18.1105 11.1308 17.4626 10.1866 18.4095 9.49086C18.4095 9.49086 19.0075 9.09329 19.7053 9.14299C19.3065 9.19269 18.858 9.44118 18.7085 9.83872C18.7085 9.83872 18.7085 9.83872 18.7085 9.88842C18.559 10.286 18.6587 10.7332 18.9577 11.1308C19.157 11.429 19.4063 11.6774 19.5059 12.075C19.3564 12.0254 19.2567 12.0751 19.157 12.1744C19.0573 12.2738 19.0075 12.4726 19.0573 12.6217C19.1071 12.7211 19.2068 12.8205 19.3065 12.8205C19.3563 12.8205 19.3565 12.8205 19.4063 12.8205H19.4561C19.6056 12.7708 19.7053 12.572 19.6555 12.4229C19.7551 12.5223 19.8049 12.7708 19.7551 12.9199C19.7551 13.0689 19.6555 13.218 19.6056 13.3174C19.5558 13.4169 19.4561 13.5162 19.4063 13.6156C19.3565 13.715 19.3065 13.8144 19.3065 13.9138C19.3065 14.0131 19.3065 14.1623 19.3565 14.2617C19.5558 14.5598 19.9544 14.2617 20.0541 14.0131C20.2036 13.715 20.1538 13.3672 19.9544 13.0689C19.9544 13.0689 20.3033 13.2677 20.5524 13.9634C20.7518 14.5598 20.4029 15.2556 20.0043 15.504Z" fill="#F16436"/>
</g>
<path d="M91.4509 0.749939H3.2756C1.69254 0.749939 0.409218 3.10044 0.409218 5.99994V21.9999C0.409218 24.8994 1.69254 27.2499 3.2756 27.2499H91.4509C93.0339 27.2499 94.3173 24.8994 94.3173 21.9999V5.99994C94.3173 3.10044 93.0339 0.749939 91.4509 0.749939Z" stroke="white" stroke-opacity="0.15" stroke-width="1.5"/>
<g filter="url(#filter1_d_1_78)">
<path d="M39.4284 12.0164H37.7194C37.6969 11.7486 37.6504 11.507 37.579 11.2914C37.5085 11.0757 37.4154 10.8915 37.2991 10.7385C37.1829 10.5855 37.0449 10.469 36.8853 10.389C36.7281 10.3056 36.5541 10.2638 36.3624 10.2638C36.0232 10.2638 35.7305 10.3908 35.4843 10.6446C35.2405 10.8984 35.0528 11.2653 34.9205 11.7452C34.7906 12.2251 34.7256 12.8058 34.7256 13.4874C34.7256 14.1967 34.7922 14.7913 34.9237 15.2713C35.0584 15.7477 35.2461 16.1075 35.4883 16.351C35.7321 16.5909 36.02 16.7109 36.3528 16.7109C36.5397 16.7109 36.7089 16.6744 36.8621 16.6013C37.0169 16.5284 37.1524 16.4223 37.2687 16.2832C37.3866 16.1406 37.4836 15.9685 37.559 15.7668C37.6368 15.5616 37.6897 15.3304 37.7194 15.0731L39.4284 15.0887C39.3987 15.5616 39.3089 16.0276 39.1581 16.4866C39.0106 16.9457 38.8061 17.3646 38.5462 17.7437C38.2872 18.1193 37.9704 18.4183 37.5967 18.6408C37.2254 18.8634 36.7987 18.9748 36.3183 18.9748C35.6848 18.9748 35.1178 18.7626 34.6165 18.3384C34.1175 17.9106 33.7234 17.2881 33.434 16.471C33.1447 15.6538 33 14.6593 33 13.4874C33 12.312 33.1469 11.3158 33.4408 10.4985C33.7348 9.68129 34.1323 9.06058 34.6334 8.63632C35.1346 8.21212 35.696 8 36.3183 8C36.7418 8 37.1339 8.09041 37.494 8.27124C37.8541 8.44855 38.1709 8.7094 38.4444 9.0536C38.7178 9.3945 38.94 9.81349 39.1108 10.3107C39.2816 10.808 39.3875 11.3766 39.4284 12.0164ZM43.7831 15.3704V10.8167H45.4504V18.8286H43.8585V17.3369H43.804C43.6877 17.8272 43.4888 18.2166 43.2089 18.5052C42.9306 18.7904 42.5946 18.933 42.2008 18.933C41.8431 18.933 41.5288 18.8078 41.2577 18.5574C40.9866 18.307 40.7757 17.9576 40.6249 17.509C40.475 17.0569 40.3988 16.5284 40.3964 15.9233V10.8167H42.0677V15.4226C42.0701 15.8572 42.1447 16.1997 42.293 16.4502C42.4414 16.7005 42.6427 16.8257 42.8977 16.8257C43.0645 16.8257 43.2137 16.77 43.3452 16.6587C43.48 16.544 43.5858 16.3788 43.6636 16.1632C43.743 15.9441 43.7831 15.6799 43.7831 15.3704ZM46.5146 18.8286V10.8167H48.1378V12.2773H48.1924C48.2878 11.7486 48.4442 11.3557 48.6607 11.0984C48.8773 10.8375 49.1291 10.7072 49.4162 10.7072C49.4932 10.7072 49.5734 10.7159 49.6552 10.7332C49.737 10.7472 49.8132 10.7697 49.8845 10.8011V13.0179C49.8043 12.9762 49.6993 12.9431 49.5694 12.9188C49.4418 12.8944 49.328 12.8823 49.2277 12.8823C49.0296 12.8823 48.8508 12.9501 48.6912 13.0857C48.534 13.2178 48.4097 13.4039 48.3191 13.6438C48.2301 13.8803 48.186 14.1585 48.186 14.4785V18.8286H46.5146ZM55.1479 13.2631L53.6137 13.3257C53.5977 13.1587 53.5544 13.011 53.4838 12.8823C53.4132 12.7501 53.321 12.6475 53.2071 12.5746C53.0948 12.4981 52.9657 12.4598 52.8174 12.4598C52.6233 12.4598 52.4581 12.5189 52.3217 12.6371C52.187 12.7554 52.1212 12.9154 52.1237 13.117C52.1212 13.2735 52.1621 13.4091 52.2464 13.5238C52.333 13.6386 52.4869 13.7308 52.7075 13.8003L53.7196 14.0924C54.2433 14.2454 54.633 14.4993 54.8881 14.854C55.1455 15.2087 55.2754 15.6782 55.2778 16.2623C55.2754 16.8117 55.1688 17.2899 54.9562 17.6967C54.7469 18.1036 54.4598 18.42 54.0957 18.6461C53.7308 18.8686 53.3138 18.9799 52.8446 18.9799C52.0948 18.9799 51.5037 18.7453 51.0707 18.2757C50.64 17.8029 50.3946 17.1699 50.3328 16.3771L51.9833 16.3145C52.0202 16.6066 52.114 16.8291 52.2672 16.9821C52.4196 17.1351 52.6145 17.2116 52.851 17.2116C53.066 17.2116 53.24 17.1508 53.3739 17.0291C53.5087 16.9073 53.5768 16.7456 53.5792 16.544C53.5768 16.3631 53.5247 16.2188 53.422 16.1111C53.3194 15.9998 53.159 15.9128 52.9401 15.8503L52.0242 15.5843C51.4981 15.4382 51.1059 15.1687 50.8485 14.7758C50.5911 14.3793 50.4636 13.8751 50.466 13.2631C50.4636 12.7276 50.5574 12.2703 50.7459 11.8912C50.9351 11.5087 51.2038 11.2166 51.5526 11.0149C51.9015 10.8132 52.3129 10.7124 52.7861 10.7124C53.4974 10.7124 54.058 10.9401 54.4678 11.3957C54.8776 11.8477 55.1046 12.4702 55.1479 13.2631ZM58.5547 18.9799C58.0053 18.9799 57.5314 18.8148 57.1328 18.4844C56.7366 18.1506 56.4311 17.6759 56.2169 17.0604C56.0052 16.4415 55.8994 15.7059 55.8994 14.854C55.8994 14.0263 56.006 13.303 56.2201 12.6841C56.4343 12.0616 56.7366 11.5782 57.1256 11.234C57.5153 10.8862 57.9749 10.7124 58.5034 10.7124C58.8771 10.7124 59.2187 10.8011 59.5283 10.9784C59.8379 11.1558 60.1057 11.4183 60.3319 11.7661C60.5572 12.1137 60.7328 12.5432 60.858 13.0544C60.9831 13.5621 61.0456 14.1445 61.0456 14.8019V15.4382H56.4832V13.9568H59.4906C59.4882 13.6855 59.4465 13.4439 59.3647 13.2318C59.2821 13.0196 59.1698 12.8545 59.0262 12.7363C58.8851 12.6145 58.7215 12.5536 58.537 12.5536C58.3502 12.5536 58.1834 12.618 58.035 12.7467C57.8866 12.8719 57.7695 13.044 57.6829 13.2631C57.5963 13.4787 57.5506 13.7238 57.5466 13.9985V15.5059C57.5466 15.8329 57.5883 16.1198 57.6725 16.3667C57.7567 16.61 57.8762 16.7996 58.0318 16.9353C58.1866 17.0709 58.371 17.1387 58.5852 17.1387C58.7335 17.1387 58.8675 17.1074 58.9886 17.0447C59.1089 16.9821 59.2131 16.89 59.2997 16.7683C59.3863 16.6466 59.4513 16.497 59.4938 16.3197L61.0288 16.3875C60.9646 16.9126 60.8251 17.3699 60.6085 17.7594C60.3944 18.1453 60.1129 18.4461 59.7641 18.6618C59.4152 18.8739 59.0126 18.9799 58.5547 18.9799ZM61.8989 18.8286V8.14605H66.6771V10.2429H63.5911V12.4337H66.3731V14.5357H63.5911V18.8286H61.8989ZM69.5939 18.9799C69.0421 18.9799 68.5681 18.8078 68.172 18.4635C67.7782 18.1157 67.4735 17.6325 67.2593 17.0135C67.0476 16.391 66.9417 15.6695 66.9417 14.8487C66.9417 14.0246 67.0476 13.303 67.2593 12.6841C67.4735 12.0616 67.7782 11.5782 68.172 11.234C68.5681 10.8862 69.0421 10.7124 69.5939 10.7124C70.1448 10.7124 70.618 10.8862 71.0118 11.234C71.4087 11.5782 71.7127 12.0616 71.9244 12.6841C72.1385 13.303 72.246 14.0246 72.246 14.8487C72.246 15.6695 72.1385 16.391 71.9244 17.0135C71.7127 17.6325 71.4087 18.1157 71.0118 18.4635C70.618 18.8078 70.1448 18.9799 69.5939 18.9799ZM69.6043 17.0552C69.8048 17.0552 69.974 16.9613 70.1135 16.7736C70.2523 16.5857 70.3582 16.3249 70.4311 15.9911C70.5065 15.6572 70.5442 15.2713 70.5442 14.8331C70.5442 14.388 70.5065 13.9985 70.4311 13.6647C70.3582 13.3309 70.2523 13.0701 70.1135 12.8823C69.974 12.6945 69.8048 12.6006 69.6043 12.6006C69.3966 12.6006 69.221 12.6945 69.0774 12.8823C68.9363 13.0701 68.828 13.3309 68.7534 13.6647C68.6804 13.9985 68.6435 14.388 68.6435 14.8331C68.6435 15.2713 68.6804 15.6572 68.7534 15.9911C68.828 16.3249 68.9363 16.5857 69.0774 16.7736C69.221 16.9613 69.3966 17.0552 69.6043 17.0552ZM73.1017 18.8286V10.8167H74.7249V12.2773H74.7794C74.8757 11.7486 75.0313 11.3557 75.2478 11.0984C75.4643 10.8375 75.7162 10.7072 76.0033 10.7072C76.081 10.7072 76.1604 10.7159 76.2422 10.7332C76.3248 10.7472 76.401 10.7697 76.4716 10.8011V13.0179C76.3914 12.9762 76.2872 12.9431 76.1572 12.9188C76.0297 12.8944 75.9158 12.8823 75.8156 12.8823C75.6175 12.8823 75.4387 12.9501 75.2791 13.0857C75.1219 13.2178 74.9976 13.4039 74.9062 13.6438C74.8171 13.8803 74.773 14.1585 74.773 14.4785V18.8286H73.1017ZM79.3266 22C78.8278 22 78.4004 21.894 78.0451 21.6819C77.6898 21.4697 77.4107 21.1794 77.2078 20.8108C77.0049 20.4422 76.883 20.0249 76.8421 19.5589L78.4244 19.4233C78.4541 19.5868 78.5086 19.7293 78.5888 19.8511C78.6706 19.9727 78.7765 20.0666 78.9064 20.1327C79.0387 20.1988 79.1935 20.2317 79.3715 20.2317C79.6514 20.2317 79.8824 20.1275 80.0653 19.9189C80.2497 19.7136 80.3419 19.3537 80.3419 18.8391V17.4307H80.2834C80.2176 17.6776 80.1174 17.8985 79.9826 18.0932C79.8487 18.2879 79.6811 18.441 79.4806 18.5522C79.2825 18.6635 79.0548 18.7191 78.7973 18.7191C78.414 18.7191 78.0635 18.5836 77.7443 18.3123C77.4276 18.0375 77.1741 17.6133 76.9825 17.0395C76.7932 16.4623 76.6986 15.7199 76.6986 14.8123C76.6986 13.8768 76.7964 13.1065 76.9929 12.5015C77.1886 11.8929 77.4452 11.4426 77.762 11.1505C78.0804 10.8585 78.4236 10.7124 78.7901 10.7124C79.066 10.7124 79.3018 10.7854 79.4975 10.9314C79.6955 11.074 79.8591 11.2584 79.9867 11.4843C80.1142 11.7104 80.2112 11.9452 80.277 12.1885H80.3251V10.8167H81.9892V18.8599C81.9892 19.5381 81.8777 20.1101 81.654 20.5761C81.431 21.0421 81.1191 21.395 80.7181 21.6349C80.3171 21.8783 79.8527 22 79.3266 22ZM79.378 16.8622C79.5809 16.8622 79.7541 16.7804 79.8976 16.617C80.0412 16.4536 80.1519 16.2188 80.2289 15.9128C80.3067 15.6068 80.3452 15.2399 80.3452 14.8123C80.3452 14.3776 80.3067 14.0038 80.2289 13.6908C80.1535 13.3744 80.0436 13.1309 79.8976 12.9605C79.7541 12.7901 79.5809 12.7049 79.378 12.7049C79.1711 12.7049 78.9954 12.7918 78.8519 12.9658C78.7083 13.1396 78.5992 13.3848 78.5239 13.7012C78.4509 14.0142 78.414 14.3846 78.414 14.8123C78.414 15.2399 78.4517 15.6068 78.5271 15.9128C78.6025 16.2188 78.7107 16.4536 78.8519 16.617C78.9954 16.7804 79.1711 16.8622 79.378 16.8622ZM85.5083 18.9799C84.9589 18.9799 84.4849 18.8148 84.0864 18.4844C83.6902 18.1506 83.3846 17.6759 83.1705 17.0604C82.9588 16.4415 82.8529 15.7059 82.8529 14.854C82.8529 14.0263 82.9596 13.303 83.1737 12.6841C83.3886 12.0616 83.6902 11.5782 84.0799 11.234C84.4697 10.8862 84.9284 10.7124 85.4569 10.7124C85.8307 10.7124 86.1723 10.8011 86.4819 10.9784C86.7922 11.1558 87.0601 11.4183 87.2854 11.7661C87.5108 12.1137 87.6864 12.5432 87.8115 13.0544C87.9366 13.5621 88 14.1445 88 14.8019V15.4382H83.4376V13.9568H86.445C86.4426 13.6855 86.4001 13.4439 86.3183 13.2318C86.2365 13.0196 86.1234 12.8545 85.9798 12.7363C85.8387 12.6145 85.6759 12.5536 85.4914 12.5536C85.3046 12.5536 85.1369 12.618 84.9886 12.7467C84.841 12.8719 84.7231 13.044 84.6365 13.2631C84.5499 13.4787 84.505 13.7238 84.5002 13.9985V15.5059C84.5002 15.8329 84.5419 16.1198 84.6269 16.3667C84.7111 16.61 84.8306 16.7996 84.9854 16.9353C85.1402 17.0709 85.3246 17.1387 85.5387 17.1387C85.6871 17.1387 85.8218 17.1074 85.9421 17.0447C86.0632 16.9821 86.1667 16.89 86.2533 16.7683C86.3399 16.6466 86.4049 16.497 86.4482 16.3197L87.9824 16.3875C87.919 16.9126 87.7786 17.3699 87.5621 17.7594C87.348 18.1453 87.0665 18.4461 86.7176 18.6618C86.3696 18.8739 85.9662 18.9799 85.5083 18.9799Z" fill="#F16436"/>
</g>
</g>
<defs>
<filter id="filter0_d_1_78" x="2" y="4" width="29.43" height="19.43" filterUnits="userSpaceOnUse" color-interpolation-filters="sRGB">
<feFlood flood-opacity="0" result="BackgroundImageFix"/>
<feColorMatrix in="SourceAlpha" type="matrix" values="0 0 0 0 0 0 0 0 0 0 0 0 0 0 0 0 0 0 127 0" result="hardAlpha"/>
<feOffset/>
<feGaussianBlur stdDeviation="2"/>
<feComposite in2="hardAlpha" operator="out"/>
<feColorMatrix type="matrix" values="0 0 0 0 0 0 0 0 0 0 0 0 0 0 0 0 0 0 0.25 0"/>
<feBlend mode="normal" in2="BackgroundImageFix" result="effect1_dropShadow_1_78"/>
<feBlend mode="normal" in="SourceGraphic" in2="effect1_dropShadow_1_78" result="shape"/>
</filter>
<filter id="filter1_d_1_78" x="29" y="4" width="63" height="22" filterUnits="userSpaceOnUse" color-interpolation-filters="sRGB">
<feFlood flood-opacity="0" result="BackgroundImageFix"/>
<feColorMatrix in="SourceAlpha" type="matrix" values="0 0 0 0 0 0 0 0 0 0 0 0 0 0 0 0 0 0 127 0" result="hardAlpha"/>
<feOffset/>
<feGaussianBlur stdDeviation="2"/>
<feComposite in2="hardAlpha" operator="out"/>
<feColorMatrix type="matrix" values="0 0 0 0 0 0 0 0 0 0 0 0 0 0 0 0 0 0 0.25 0"/>
<feBlend mode="normal" in2="BackgroundImageFix" result="effect1_dropShadow_1_78"/>
<feBlend mode="normal" in="SourceGraphic" in2="effect1_dropShadow_1_78" result="shape"/>
</filter>
<linearGradient id="paint0_linear_1_78" x1="47.227" y1="0" x2="47.227" y2="28" gradientUnits="userSpaceOnUse">
<stop stop-color="#2E140B"/>
<stop offset="1" stop-color="#1E0C07"/>
</linearGradient>
<clipPath id="clip0_1_78">
<rect width="95" height="28" fill="white"/>
</clipPath>
</defs>
</svg>
