<svg width="120" height="28" viewBox="0 0 120 28" fill="none" xmlns="http://www.w3.org/2000/svg">
<g clip-path="url(#clip0_1_78)">
<path d="M115.184 0H4.12601C1.84728 0 0 2.68629 0 6V22C0 25.3137 1.84728 28 4.12601 28H115.184C117.463 28 119.31 25.3137 119.31 22V6C119.31 2.68629 117.463 0 115.184 0Z" fill="url(#paint0_linear_1_78)"/>
<g filter="url(#filter0_d_1_78)">
<path d="M13.7225 8L14.1031 9.49086C12.2002 9.49086 7.57895 9.49086 7.57895 9.49086C7.57895 9.49086 7.68771 9.93813 7.74207 9.98784C7.90517 10.2363 8.06829 10.5345 8.28575 10.7332C9.31875 11.8266 11.1128 12.2738 12.5808 12.5222C13.6138 12.7211 14.6468 12.7708 15.6798 12.8205L16.8758 15.7524H17.5283L17.9089 16.6968H17.3652L16.4409 19.43H25.5203L24.5962 16.6968H24.0525L24.433 15.7524H25.0853C25.0853 15.7524 25.6291 12.7211 27.3146 11.3296C28.9456 9.93813 30.9571 9.7393 30.9571 9.7393V8H13.7225ZM22.8564 15.504C22.4214 15.7524 21.9321 15.7525 21.6059 15.9513C21.3884 16.0507 21.2797 16.3488 21.2797 16.3488C21.0621 15.9016 20.7904 15.7525 20.4642 15.6531C20.138 15.5537 19.5399 15.6034 18.7244 14.9573C18.1807 14.5101 18.1263 13.9137 18.1807 13.6156V13.5659C18.1807 13.5162 18.1807 13.5162 18.1807 13.4665C18.1807 13.4169 18.1807 13.3672 18.2351 13.3174C18.3438 13.0192 18.6157 12.7211 19.1593 12.5222C19.1593 12.5222 18.7788 13.0192 19.1593 13.5162C19.3768 13.8144 19.8118 13.9634 20.1923 13.7647C20.3554 13.6653 20.4642 13.4666 20.5185 13.3174C20.6273 12.9696 20.6273 12.6217 20.3011 12.3732C19.8118 11.9757 19.703 11.429 20.0292 11.0812C20.0292 11.0812 20.138 11.5284 20.6273 11.4787C20.9535 11.4787 20.9535 11.3793 20.8447 11.2799C20.7904 11.1308 20.0836 10.1866 21.1166 9.49086C21.1166 9.49086 21.769 9.09329 22.5302 9.14299C22.0952 9.19269 21.6059 9.44118 21.4428 9.83872C21.4428 9.83872 21.4428 9.83872 21.4428 9.88842C21.2797 10.286 21.3884 10.7332 21.7146 11.1308C21.9321 11.429 22.204 11.6774 22.3126 12.075C22.1495 12.0254 22.0408 12.0751 21.9321 12.1744C21.8233 12.2738 21.769 12.4726 21.8233 12.6217C21.8776 12.7211 21.9864 12.8205 22.0952 12.8205C22.1495 12.8205 22.1496 12.8205 22.204 12.8205H22.2583C22.4214 12.7708 22.5302 12.572 22.4758 12.4229C22.5845 12.5223 22.6388 12.7708 22.5845 12.9199C22.5845 13.0689 22.4758 13.218 22.4214 13.3174C22.3671 13.4169 22.2583 13.5162 22.204 13.6156C22.1496 13.715 22.0952 13.8144 22.0952 13.9138C22.0952 14.0131 22.0952 14.1623 22.1496 14.2617C22.3671 14.5598 22.8019 14.2617 22.9107 14.0131C23.0738 13.715 23.0195 13.3672 22.8019 13.0689C22.8019 13.0689 23.1826 13.2677 23.4543 13.9634C23.6719 14.5598 23.2912 15.2556 22.8564 15.504Z" fill="#F16436"/>
</g>
<path d="M115.598 1H4.80174C2.81255 1 1.2 3.35051 1.2 6.25V22.25C1.2 25.1495 2.81255 27.5 4.80174 27.5H115.598C117.587 27.5 119.2 25.1495 119.2 22.25V6.25C119.2 3.35051 117.587 1 115.598 1Z" stroke="white" stroke-opacity="0.15" stroke-width="1.5"/>
<g filter="url(#filter1_d_1_78)">
<path d="M42.9254 12.0164H40.5525C40.5213 11.7486 40.4568 11.507 40.3577 11.2914C40.2597 11.0757 40.1305 10.8915 39.9691 10.7385C39.8076 10.5855 39.6161 10.469 39.3945 10.389C39.1763 10.3056 38.9346 10.2638 38.6685 10.2638C38.1975 10.2638 37.7911 10.3908 37.4492 10.6446C37.1107 10.8984 36.8502 11.2653 36.6665 11.7452C36.4861 12.2251 36.3959 12.8058 36.3959 13.4874C36.3959 14.1967 36.4883 14.7913 36.6709 15.2713C36.858 15.7477 37.1185 16.1075 37.4548 16.351C37.7933 16.5909 38.1931 16.7109 38.6552 16.7109C38.9146 16.7109 39.1495 16.6744 39.3622 16.6013C39.5771 16.5284 39.7653 16.4223 39.9268 16.2832C40.0904 16.1406 40.2252 15.9685 40.3298 15.7668C40.4378 15.5616 40.5113 15.3304 40.5525 15.0731L42.9254 15.0887C42.8842 15.5616 42.7595 16.0276 42.5501 16.4866C42.3452 16.9457 42.0613 17.3646 41.7005 17.7437C41.3409 18.1193 40.901 18.4183 40.3822 18.6408C39.8666 18.8634 39.2743 18.9748 38.6073 18.9748C37.7276 18.9748 36.9404 18.7626 36.2445 18.3384C35.5515 17.9106 35.0044 17.2881 34.6026 16.471C34.2009 15.6538 34 14.6593 34 13.4874C34 12.312 34.204 11.3158 34.6121 10.4985C35.0202 9.68129 35.5721 9.06058 36.2678 8.63632C36.9638 8.21212 37.7432 8 38.6073 8C39.1952 8 39.7397 8.09041 40.2396 8.27124C40.7396 8.44855 41.1794 8.7094 41.5591 9.0536C41.9388 9.3945 42.2473 9.81349 42.4844 10.3107C42.7216 10.808 42.8686 11.3766 42.9254 12.0164ZM48.9716 15.3704V10.8167H51.2865V18.8286H49.0763V17.3369H49.0005C48.8391 17.8272 48.5629 18.2166 48.1743 18.5052C47.788 18.7904 47.3214 18.933 46.7747 18.933C46.2781 18.933 45.8416 18.8078 45.4652 18.5574C45.0889 18.307 44.796 17.9576 44.5867 17.509C44.3785 17.0569 44.2727 16.5284 44.2693 15.9233V10.8167H46.5899V15.4226C46.5932 15.8572 46.6967 16.1997 46.9027 16.4502C47.1087 16.7005 47.3882 16.8257 47.7423 16.8257C47.9739 16.8257 48.181 16.77 48.3636 16.6587C48.5507 16.544 48.6977 16.3788 48.8057 16.1632C48.9159 15.9441 48.9716 15.6799 48.9716 15.3704ZM52.7641 18.8286V10.8167H55.0178V12.2773H55.0935C55.226 11.7486 55.4432 11.3557 55.7438 11.0984C56.0445 10.8375 56.3941 10.7072 56.7927 10.7072C56.8996 10.7072 57.011 10.7159 57.1245 10.7332C57.2381 10.7472 57.3439 10.7697 57.443 10.8011V13.0179C57.3317 12.9762 57.1858 12.9431 57.0054 12.9188C56.8283 12.8944 56.6702 12.8823 56.5311 12.8823C56.256 12.8823 56.0077 12.9501 55.7861 13.0857C55.5679 13.2178 55.3953 13.4039 55.2695 13.6438C55.1459 13.8803 55.0846 14.1585 55.0846 14.4785V18.8286H52.7641ZM64.7508 13.2631L62.6207 13.3257C62.5984 13.1587 62.5383 13.011 62.4403 12.8823C62.3423 12.7501 62.2143 12.6475 62.0562 12.5746C61.9003 12.4981 61.721 12.4598 61.515 12.4598C61.2456 12.4598 61.0162 12.5189 60.8269 12.6371C60.6398 12.7554 60.5485 12.9154 60.5519 13.117C60.5485 13.2735 60.6053 13.4091 60.7222 13.5238C60.8425 13.6386 61.0563 13.7308 61.3625 13.8003L62.7677 14.0924C63.4948 14.2454 64.0359 14.4993 64.39 14.854C64.7475 15.2087 64.9278 15.6782 64.9312 16.2623C64.9278 16.8117 64.7798 17.2899 64.4847 17.6967C64.1941 18.1036 63.7954 18.42 63.2899 18.6461C62.7833 18.8686 62.2043 18.9799 61.5529 18.9799C60.5118 18.9799 59.6911 18.7453 59.0898 18.2757C58.4919 17.8029 58.1512 17.1699 58.0654 16.3771L60.357 16.3145C60.4082 16.6066 60.5385 16.8291 60.7512 16.9821C60.9627 17.1351 61.2333 17.2116 61.5618 17.2116C61.8602 17.2116 62.1018 17.1508 62.2878 17.0291C62.4748 16.9073 62.5695 16.7456 62.5728 16.544C62.5695 16.3631 62.4971 16.2188 62.3546 16.1111C62.2121 15.9998 61.9894 15.9128 61.6854 15.8503L60.4138 15.5843C59.6833 15.4382 59.1388 15.1687 58.7814 14.7758C58.424 14.3793 58.2469 13.8751 58.2503 13.2631C58.2469 12.7276 58.3772 12.2703 58.6389 11.8912C58.9017 11.5087 59.2747 11.2166 59.759 11.0149C60.2434 10.8132 60.8146 10.7124 61.4716 10.7124C62.4592 10.7124 63.2376 10.9401 63.8066 11.3957C64.3756 11.8477 64.6907 12.4702 64.7508 13.2631ZM69.4809 18.9799C68.7182 18.9799 68.0601 18.8148 67.5067 18.4844C66.9566 18.1506 66.5324 17.6759 66.2351 17.0604C65.9411 16.4415 65.7941 15.7059 65.7941 14.854C65.7941 14.0263 65.9422 13.303 66.2395 12.6841C66.5368 12.0616 66.9566 11.5782 67.4967 11.234C68.0378 10.8862 68.6758 10.7124 69.4096 10.7124C69.9285 10.7124 70.4029 10.8011 70.8327 10.9784C71.2625 11.1558 71.6344 11.4183 71.9484 11.7661C72.2613 12.1137 72.5051 12.5432 72.6788 13.0544C72.8525 13.5621 72.9394 14.1445 72.9394 14.8019V15.4382H66.6048V13.9568H70.7803C70.777 13.6855 70.7191 13.4439 70.6055 13.2318C70.4908 13.0196 70.3349 12.8545 70.1356 12.7363C69.9396 12.6145 69.7125 12.5536 69.4564 12.5536C69.1969 12.5536 68.9654 12.618 68.7594 12.7467C68.5534 12.8719 68.3908 13.044 68.2705 13.2631C68.1503 13.4787 68.0868 13.7238 68.0812 13.9985V15.5059C68.0812 15.8329 68.1391 16.1198 68.2561 16.3667C68.373 16.61 68.5389 16.7996 68.7549 16.9353C68.9698 17.0709 69.2259 17.1387 69.5232 17.1387C69.7292 17.1387 69.9152 17.1074 70.0833 17.0447C70.2503 16.9821 70.3951 16.89 70.5153 16.7683C70.6356 16.6466 70.7258 16.497 70.7848 16.3197L72.916 16.3875C72.8269 16.9126 72.6332 17.3699 72.3325 17.7594C72.0352 18.1453 71.6444 18.4461 71.16 18.6618C70.6757 18.8739 70.1167 18.9799 69.4809 18.9799ZM74.1241 18.8286V8.14605H80.7583V10.2429H76.4736V12.4337H80.3363V14.5357H76.4736V18.8286H74.1241ZM84.808 18.9799C84.0419 18.9799 83.3839 18.8078 82.8338 18.4635C82.2871 18.1157 81.864 17.6325 81.5667 17.0135C81.2727 16.391 81.1257 15.6695 81.1257 14.8487C81.1257 14.0246 81.2727 13.303 81.5667 12.6841C81.864 12.0616 82.2871 11.5782 82.8338 11.234C83.3839 10.8862 84.0419 10.7124 84.808 10.7124C85.573 10.7124 86.23 10.8862 86.7767 11.234C87.3278 11.5782 87.7499 12.0616 88.0438 12.6841C88.3411 13.303 88.4903 14.0246 88.4903 14.8487C88.4903 15.6695 88.3411 16.391 88.0438 17.0135C87.7499 17.6325 87.3278 18.1157 86.7767 18.4635C86.23 18.8078 85.573 18.9799 84.808 18.9799ZM84.8225 17.0552C85.1009 17.0552 85.3358 16.9613 85.5296 16.7736C85.7222 16.5857 85.8692 16.3249 85.9705 15.9911C86.0752 15.6572 86.1275 15.2713 86.1275 14.8331C86.1275 14.388 86.0752 13.9985 85.9705 13.6647C85.8692 13.3309 85.7222 13.0701 85.5296 12.8823C85.3358 12.6945 85.1009 12.6006 84.8225 12.6006C84.5341 12.6006 84.2903 12.6945 84.0909 12.8823C83.895 13.0701 83.7446 13.3309 83.6411 13.6647C83.5398 13.9985 83.4885 14.388 83.4885 14.8331C83.4885 15.2713 83.5398 15.6572 83.6411 15.9911C83.7446 16.3249 83.895 16.5857 84.0909 16.7736C84.2903 16.9613 84.5341 17.0552 84.8225 17.0552ZM89.6784 18.8286V10.8167H91.9321V12.2773H92.0078C92.1414 11.7486 92.3575 11.3557 92.6581 11.0984C92.9587 10.8375 93.3084 10.7072 93.707 10.7072C93.815 10.7072 93.9252 10.7159 94.0388 10.7332C94.1535 10.7472 94.2593 10.7697 94.3573 10.8011V13.0179C94.2459 12.9762 94.1012 12.9431 93.9208 12.9188C93.7438 12.8944 93.5856 12.8823 93.4464 12.8823C93.1714 12.8823 92.9231 12.9501 92.7015 13.0857C92.4833 13.2178 92.3107 13.4039 92.1838 13.6438C92.0602 13.8803 91.9989 14.1585 91.9989 14.4785V18.8286H89.6784ZM98.3213 22C97.6287 22 97.0352 21.894 96.5419 21.6819C96.0487 21.4697 95.6612 21.1794 95.3795 20.8108C95.0977 20.4422 94.9285 20.0249 94.8717 19.5589L97.0686 19.4233C97.1098 19.5868 97.1855 19.7293 97.2969 19.8511C97.4105 19.9727 97.5574 20.0666 97.7378 20.1327C97.9215 20.1988 98.1364 20.2317 98.3836 20.2317C98.7723 20.2317 99.0929 20.1275 99.3468 19.9189C99.6029 19.7136 99.731 19.3537 99.731 18.8391V17.4307H99.6497C99.5584 17.6776 99.4192 17.8985 99.2321 18.0932C99.0462 18.2879 98.8135 18.441 98.5351 18.5522C98.26 18.6635 97.9438 18.7191 97.5864 18.7191C97.0541 18.7191 96.5675 18.5836 96.1244 18.3123C95.6845 18.0375 95.3327 17.6133 95.0666 17.0395C94.8038 16.4623 94.6724 15.7199 94.6724 14.8123C94.6724 13.8768 94.8082 13.1065 95.081 12.5015C95.3527 11.8929 95.709 11.4426 96.1489 11.1505C96.5909 10.8585 97.0675 10.7124 97.5764 10.7124C97.9594 10.7124 98.2868 10.7854 98.5585 10.9314C98.8335 11.074 99.0606 11.2584 99.2377 11.4843C99.4147 11.7104 99.5495 11.9452 99.6408 12.1885H99.7076V10.8167H102.018V18.8599C102.018 19.5381 101.863 20.1101 101.553 20.5761C101.243 21.0421 100.81 21.395 100.253 21.6349C99.6964 21.8783 99.0517 22 98.3213 22ZM98.3925 16.8622C98.6743 16.8622 98.9148 16.7804 99.1141 16.617C99.3134 16.4536 99.4671 16.2188 99.574 15.9128C99.682 15.6068 99.7354 15.2399 99.7354 14.8123C99.7354 14.3776 99.682 14.0038 99.574 13.6908C99.4693 13.3744 99.3168 13.1309 99.1141 12.9605C98.9148 12.7901 98.6743 12.7049 98.3925 12.7049C98.1053 12.7049 97.8614 12.7918 97.6621 12.9658C97.4628 13.1396 97.3113 13.3848 97.2067 13.7012C97.1054 14.0142 97.0541 14.3846 97.0541 14.8123C97.0541 15.2399 97.1065 15.6068 97.2112 15.9128C97.3158 16.2188 97.4661 16.4536 97.6621 16.617C97.8614 16.7804 98.1053 16.8622 98.3925 16.8622ZM106.904 18.9799C106.141 18.9799 105.483 18.8148 104.93 18.4844C104.38 18.1506 103.956 17.6759 103.658 17.0604C103.364 16.4415 103.217 15.7059 103.217 14.854C103.217 14.0263 103.365 13.303 103.663 12.6841C103.961 12.0616 104.38 11.5782 104.921 11.234C105.462 10.8862 106.099 10.7124 106.833 10.7124C107.352 10.7124 107.826 10.8011 108.256 10.9784C108.687 11.1558 109.059 11.4183 109.372 11.7661C109.684 12.1137 109.928 12.5432 110.102 13.0544C110.276 13.5621 110.364 14.1445 110.364 14.8019V15.4382H104.029V13.9568H108.205C108.201 13.6855 108.142 13.4439 108.029 13.2318C107.915 13.0196 107.758 12.8545 107.559 12.7363C107.363 12.6145 107.137 12.5536 106.881 12.5536C106.621 12.5536 106.388 12.618 106.182 12.7467C105.978 12.8719 105.814 13.044 105.694 13.2631C105.573 13.4787 105.511 13.7238 105.504 13.9985V15.5059C105.504 15.8329 105.562 16.1198 105.68 16.3667C105.797 16.61 105.963 16.7996 106.178 16.9353C106.393 17.0709 106.649 17.1387 106.946 17.1387C107.152 17.1387 107.339 17.1074 107.506 17.0447C107.675 16.9821 107.818 16.89 107.938 16.7683C108.059 16.6466 108.149 16.497 108.209 16.3197L110.339 16.3875C110.251 16.9126 110.056 17.3699 109.756 17.7594C109.458 18.1453 109.068 18.4461 108.583 18.6618C108.1 18.8739 107.54 18.9799 106.904 18.9799Z" fill="#F16436"/>
</g>
</g>
<defs>
<filter id="filter0_d_1_78" x="3.57895" y="4" width="31.3782" height="19.43" filterUnits="userSpaceOnUse" color-interpolation-filters="sRGB">
<feFlood flood-opacity="0" result="BackgroundImageFix"/>
<feColorMatrix in="SourceAlpha" type="matrix" values="0 0 0 0 0 0 0 0 0 0 0 0 0 0 0 0 0 0 127 0" result="hardAlpha"/>
<feOffset/>
<feGaussianBlur stdDeviation="2"/>
<feComposite in2="hardAlpha" operator="out"/>
<feColorMatrix type="matrix" values="0 0 0 0 0 0 0 0 0 0 0 0 0 0 0 0 0 0 0.25 0"/>
<feBlend mode="normal" in2="BackgroundImageFix" result="effect1_dropShadow_1_78"/>
<feBlend mode="normal" in="SourceGraphic" in2="effect1_dropShadow_1_78" result="shape"/>
</filter>
<filter id="filter1_d_1_78" x="30" y="4" width="84.3636" height="22" filterUnits="userSpaceOnUse" color-interpolation-filters="sRGB">
<feFlood flood-opacity="0" result="BackgroundImageFix"/>
<feColorMatrix in="SourceAlpha" type="matrix" values="0 0 0 0 0 0 0 0 0 0 0 0 0 0 0 0 0 0 127 0" result="hardAlpha"/>
<feOffset/>
<feGaussianBlur stdDeviation="2"/>
<feComposite in2="hardAlpha" operator="out"/>
<feColorMatrix type="matrix" values="0 0 0 0 0 0 0 0 0 0 0 0 0 0 0 0 0 0 0.25 0"/>
<feBlend mode="normal" in2="BackgroundImageFix" result="effect1_dropShadow_1_78"/>
<feBlend mode="normal" in="SourceGraphic" in2="effect1_dropShadow_1_78" result="shape"/>
</filter>
<linearGradient id="paint0_linear_1_78" x1="59.6552" y1="0" x2="59.6552" y2="28" gradientUnits="userSpaceOnUse">
<stop stop-color="#2E140B"/>
<stop offset="1" stop-color="#1E0C07"/>
</linearGradient>
<clipPath id="clip0_1_78">
<rect width="120" height="28" fill="white"/>
</clipPath>
</defs>
</svg>
