<svg width="120" height="28" viewBox="0 0 120 28" fill="none" xmlns="http://www.w3.org/2000/svg">
<g clip-path="url(#clip0_1_78)">
<path d="M115.184 0H4.12601C1.84728 0 0 2.68629 0 6V22C0 25.3137 1.84728 28 4.12601 28H115.184C117.463 28 119.31 25.3137 119.31 22V6C119.31 2.68629 117.463 0 115.184 0Z" fill="url(#paint0_linear_1_78)"/>
<g filter="url(#filter0_d_1_78)">
<path d="M13.7225 8L14.1031 9.49086C12.2002 9.49086 7.57895 9.49086 7.57895 9.49086C7.57895 9.49086 7.68771 9.93813 7.74207 9.98784C7.90517 10.2363 8.06829 10.5345 8.28575 10.7332C9.31875 11.8266 11.1128 12.2738 12.5808 12.5222C13.6138 12.7211 14.6468 12.7708 15.6798 12.8205L16.8758 15.7524H17.5283L17.9089 16.6968H17.3652L16.4409 19.43H25.5203L24.5962 16.6968H24.0525L24.433 15.7524H25.0853C25.0853 15.7524 25.6291 12.7211 27.3146 11.3296C28.9456 9.93813 30.9571 9.7393 30.9571 9.7393V8H13.7225ZM22.8564 15.504C22.4214 15.7524 21.9321 15.7525 21.6059 15.9513C21.3884 16.0507 21.2797 16.3488 21.2797 16.3488C21.0621 15.9016 20.7904 15.7525 20.4642 15.6531C20.138 15.5537 19.5399 15.6034 18.7244 14.9573C18.1807 14.5101 18.1263 13.9137 18.1807 13.6156V13.5659C18.1807 13.5162 18.1807 13.5162 18.1807 13.4665C18.1807 13.4169 18.1807 13.3672 18.2351 13.3174C18.3438 13.0192 18.6157 12.7211 19.1593 12.5222C19.1593 12.5222 18.7788 13.0192 19.1593 13.5162C19.3768 13.8144 19.8118 13.9634 20.1923 13.7647C20.3554 13.6653 20.4642 13.4666 20.5185 13.3174C20.6273 12.9696 20.6273 12.6217 20.3011 12.3732C19.8118 11.9757 19.703 11.429 20.0292 11.0812C20.0292 11.0812 20.138 11.5284 20.6273 11.4787C20.9535 11.4787 20.9535 11.3793 20.8447 11.2799C20.7904 11.1308 20.0836 10.1866 21.1166 9.49086C21.1166 9.49086 21.769 9.09329 22.5302 9.14299C22.0952 9.19269 21.6059 9.44118 21.4428 9.83872C21.4428 9.83872 21.4428 9.83872 21.4428 9.88842C21.2797 10.286 21.3884 10.7332 21.7146 11.1308C21.9321 11.429 22.204 11.6774 22.3126 12.075C22.1495 12.0254 22.0408 12.0751 21.9321 12.1744C21.8233 12.2738 21.769 12.4726 21.8233 12.6217C21.8776 12.7211 21.9864 12.8205 22.0952 12.8205C22.1495 12.8205 22.1496 12.8205 22.204 12.8205H22.2583C22.4214 12.7708 22.5302 12.572 22.4758 12.4229C22.5845 12.5223 22.6388 12.7708 22.5845 12.9199C22.5845 13.0689 22.4758 13.218 22.4214 13.3174C22.3671 13.4169 22.2583 13.5162 22.204 13.6156C22.1496 13.715 22.0952 13.8144 22.0952 13.9138C22.0952 14.0131 22.0952 14.1623 22.1496 14.2617C22.3671 14.5598 22.8019 14.2617 22.9107 14.0131C23.0738 13.715 23.0195 13.3672 22.8019 13.0689C22.8019 13.0689 23.1826 13.2677 23.4543 13.9634C23.6719 14.5598 23.2912 15.2556 22.8564 15.504Z" fill="#F16436"/>
</g>
<path d="M115.792 1H4.80785C2.81529 1 1.2 3.35051 1.2 6.25V22.25C1.2 25.1495 2.81529 27.5 4.80785 27.5H115.792C117.785 27.5 119.4 25.1495 119.4 22.25V6.25C119.4 3.35051 117.785 1 115.792 1Z" stroke="white" stroke-opacity="0.15" stroke-width="1.5"/>
<g filter="url(#filter1_d_1_78)">
<path d="M46.0163 12.0164H43.6434C43.6123 11.7486 43.5477 11.507 43.4486 11.2914C43.3506 11.0757 43.2214 10.8915 43.06 10.7385C42.8985 10.5855 42.707 10.469 42.4854 10.389C42.2672 10.3056 42.0256 10.2638 41.7594 10.2638C41.2884 10.2638 40.882 10.3908 40.5402 10.6446C40.2017 10.8984 39.9411 11.2653 39.7574 11.7452C39.577 12.2251 39.4868 12.8058 39.4868 13.4874C39.4868 14.1967 39.5792 14.7913 39.7618 15.2713C39.9489 15.7477 40.2095 16.1075 40.5457 16.351C40.8842 16.5909 41.284 16.7109 41.7461 16.7109C42.0055 16.7109 42.2405 16.6744 42.4531 16.6013C42.668 16.5284 42.8562 16.4223 43.0177 16.2832C43.1813 16.1406 43.3161 15.9685 43.4207 15.7668C43.5288 15.5616 43.6022 15.3304 43.6434 15.0731L46.0163 15.0887C45.9751 15.5616 45.8504 16.0276 45.641 16.4866C45.4362 16.9457 45.1522 17.3646 44.7914 17.7437C44.4318 18.1193 43.992 18.4183 43.4731 18.6408C42.9575 18.8634 42.3652 18.9748 41.6982 18.9748C40.8185 18.9748 40.0313 18.7626 39.3354 18.3384C38.6424 17.9106 38.0953 17.2881 37.6935 16.471C37.2918 15.6538 37.0909 14.6593 37.0909 13.4874C37.0909 12.312 37.2949 11.3158 37.703 10.4985C38.1111 9.68129 38.663 9.06058 39.3587 8.63632C40.0547 8.21212 40.8341 8 41.6982 8C42.2861 8 42.8306 8.09041 43.3306 8.27124C43.8305 8.44855 44.2703 8.7094 44.65 9.0536C45.0297 9.3945 45.3382 9.81349 45.5753 10.3107C45.8125 10.808 45.9595 11.3766 46.0163 12.0164ZM52.0625 15.3704V10.8167H54.3774V18.8286H52.1672V17.3369H52.0915C51.93 17.8272 51.6539 18.2166 51.2653 18.5052C50.8789 18.7904 50.4123 18.933 49.8656 18.933C49.369 18.933 48.9325 18.8078 48.5561 18.5574C48.1798 18.307 47.8869 17.9576 47.6776 17.509C47.4694 17.0569 47.3636 16.5284 47.3603 15.9233V10.8167H49.6808V15.4226C49.6841 15.8572 49.7877 16.1997 49.9937 16.4502C50.1996 16.7005 50.4791 16.8257 50.8332 16.8257C51.0648 16.8257 51.2719 16.77 51.4545 16.6587C51.6416 16.544 51.7886 16.3788 51.8966 16.1632C52.0068 15.9441 52.0625 15.6799 52.0625 15.3704ZM55.855 18.8286V10.8167H58.1087V12.2773H58.1845C58.317 11.7486 58.5341 11.3557 58.8347 11.0984C59.1354 10.8375 59.485 10.7072 59.8836 10.7072C59.9905 10.7072 60.1019 10.7159 60.2155 10.7332C60.329 10.7472 60.4348 10.7697 60.5339 10.8011V13.0179C60.4226 12.9762 60.2767 12.9431 60.0963 12.9188C59.9193 12.8944 59.7612 12.8823 59.622 12.8823C59.3469 12.8823 59.0986 12.9501 58.877 13.0857C58.6588 13.2178 58.4862 13.4039 58.3604 13.6438C58.2368 13.8803 58.1755 14.1585 58.1755 14.4785V18.8286H55.855ZM67.8417 13.2631L65.7116 13.3257C65.6893 13.1587 65.6292 13.011 65.5312 12.8823C65.4332 12.7501 65.3052 12.6475 65.1471 12.5746C64.9912 12.4981 64.8119 12.4598 64.6059 12.4598C64.3365 12.4598 64.1071 12.5189 63.9178 12.6371C63.7307 12.7554 63.6394 12.9154 63.6428 13.117C63.6394 13.2735 63.6962 13.4091 63.8131 13.5238C63.9334 13.6386 64.1472 13.7308 64.4534 13.8003L65.8586 14.0924C66.5857 14.2454 67.1269 14.4993 67.4809 14.854C67.8384 15.2087 68.0188 15.6782 68.0221 16.2623C68.0188 16.8117 67.8707 17.2899 67.5756 17.6967C67.285 18.1036 66.8863 18.42 66.3808 18.6461C65.8742 18.8686 65.2952 18.9799 64.6438 18.9799C63.6027 18.9799 62.782 18.7453 62.1808 18.2757C61.5828 17.8029 61.2421 17.1699 61.1563 16.3771L63.4479 16.3145C63.4991 16.6066 63.6294 16.8291 63.8421 16.9821C64.0536 17.1351 64.3242 17.2116 64.6527 17.2116C64.9511 17.2116 65.1927 17.1508 65.3787 17.0291C65.5658 16.9073 65.6604 16.7456 65.6637 16.544C65.6604 16.3631 65.588 16.2188 65.4455 16.1111C65.303 15.9998 65.0803 15.9128 64.7763 15.8503L63.5047 15.5843C62.7742 15.4382 62.2297 15.1687 61.8723 14.7758C61.5149 14.3793 61.3378 13.8751 61.3412 13.2631C61.3378 12.7276 61.4681 12.2703 61.7298 11.8912C61.9926 11.5087 62.3656 11.2166 62.85 11.0149C63.3343 10.8132 63.9055 10.7124 64.5625 10.7124C65.5502 10.7124 66.3285 10.9401 66.8975 11.3957C67.4665 11.8477 67.7816 12.4702 67.8417 13.2631ZM72.5718 18.9799C71.8091 18.9799 71.151 18.8148 70.5976 18.4844C70.0475 18.1506 69.6233 17.6759 69.326 17.0604C69.032 16.4415 68.8851 15.7059 68.8851 14.854C68.8851 14.0263 69.0331 13.303 69.3304 12.6841C69.6277 12.0616 70.0475 11.5782 70.5876 11.234C71.1287 10.8862 71.7668 10.7124 72.5005 10.7124C73.0194 10.7124 73.4938 10.8011 73.9236 10.9784C74.3534 11.1558 74.7253 11.4183 75.0393 11.7661C75.3522 12.1137 75.596 12.5432 75.7697 13.0544C75.9434 13.5621 76.0303 14.1445 76.0303 14.8019V15.4382H69.6957V13.9568H73.8712C73.8679 13.6855 73.81 13.4439 73.6964 13.2318C73.5817 13.0196 73.4258 12.8545 73.2265 12.7363C73.0306 12.6145 72.8034 12.5536 72.5473 12.5536C72.2879 12.5536 72.0563 12.618 71.8503 12.7467C71.6443 12.8719 71.4817 13.044 71.3614 13.2631C71.2412 13.4787 71.1777 13.7238 71.1721 13.9985V15.5059C71.1721 15.8329 71.23 16.1198 71.347 16.3667C71.4639 16.61 71.6298 16.7996 71.8458 16.9353C72.0607 17.0709 72.3168 17.1387 72.6141 17.1387C72.8201 17.1387 73.0061 17.1074 73.1742 17.0447C73.3412 16.9821 73.486 16.89 73.6062 16.7683C73.7265 16.6466 73.8167 16.497 73.8757 16.3197L76.0069 16.3875C75.9178 16.9126 75.7241 17.3699 75.4234 17.7594C75.1261 18.1453 74.7353 18.4461 74.2509 18.6618C73.7666 18.8739 73.2076 18.9799 72.5718 18.9799ZM77.215 18.8286V8.14605H83.8492V10.2429H79.5645V12.4337H83.4272V14.5357H79.5645V18.8286H77.215ZM87.8989 18.9799C87.1329 18.9799 86.4748 18.8078 85.9247 18.4635C85.378 18.1157 84.9549 17.6325 84.6576 17.0135C84.3636 16.391 84.2166 15.6695 84.2166 14.8487C84.2166 14.0246 84.3636 13.303 84.6576 12.6841C84.9549 12.0616 85.378 11.5782 85.9247 11.234C86.4748 10.8862 87.1329 10.7124 87.8989 10.7124C88.6639 10.7124 89.3209 10.8862 89.8676 11.234C90.4188 11.5782 90.8408 12.0616 91.1347 12.6841C91.432 13.303 91.5812 14.0246 91.5812 14.8487C91.5812 15.6695 91.432 16.391 91.1347 17.0135C90.8408 17.6325 90.4188 18.1157 89.8676 18.4635C89.3209 18.8078 88.6639 18.9799 87.8989 18.9799ZM87.9134 17.0552C88.1918 17.0552 88.4267 16.9613 88.6205 16.7736C88.8131 16.5857 88.9601 16.3249 89.0614 15.9911C89.1661 15.6572 89.2184 15.2713 89.2184 14.8331C89.2184 14.388 89.1661 13.9985 89.0614 13.6647C88.9601 13.3309 88.8131 13.0701 88.6205 12.8823C88.4267 12.6945 88.1918 12.6006 87.9134 12.6006C87.625 12.6006 87.3812 12.6945 87.1819 12.8823C86.9859 13.0701 86.8356 13.3309 86.732 13.6647C86.6307 13.9985 86.5795 14.388 86.5795 14.8331C86.5795 15.2713 86.6307 15.6572 86.732 15.9911C86.8356 16.3249 86.9859 16.5857 87.1819 16.7736C87.3812 16.9613 87.625 17.0552 87.9134 17.0552ZM92.7693 18.8286V10.8167H95.023V12.2773H95.0987C95.2324 11.7486 95.4484 11.3557 95.749 11.0984C96.0497 10.8375 96.3993 10.7072 96.7979 10.7072C96.9059 10.7072 97.0161 10.7159 97.1297 10.7332C97.2444 10.7472 97.3502 10.7697 97.4482 10.8011V13.0179C97.3368 12.9762 97.1921 12.9431 97.0117 12.9188C96.8347 12.8944 96.6765 12.8823 96.5374 12.8823C96.2623 12.8823 96.014 12.9501 95.7924 13.0857C95.5742 13.2178 95.4016 13.4039 95.2747 13.6438C95.1511 13.8803 95.0898 14.1585 95.0898 14.4785V18.8286H92.7693ZM101.412 22C100.72 22 100.126 21.894 99.6328 21.6819C99.1396 21.4697 98.7521 21.1794 98.4704 20.8108C98.1887 20.4422 98.0194 20.0249 97.9626 19.5589L100.16 19.4233C100.201 19.5868 100.276 19.7293 100.388 19.8511C100.501 19.9727 100.648 20.0666 100.829 20.1327C101.012 20.1988 101.227 20.2317 101.475 20.2317C101.863 20.2317 102.184 20.1275 102.438 19.9189C102.694 19.7136 102.822 19.3537 102.822 18.8391V17.4307H102.741C102.649 17.6776 102.51 17.8985 102.323 18.0932C102.137 18.2879 101.904 18.441 101.626 18.5522C101.351 18.6635 101.035 18.7191 100.677 18.7191C100.145 18.7191 99.6585 18.5836 99.2153 18.3123C98.7755 18.0375 98.4236 17.6133 98.1575 17.0395C97.8947 16.4623 97.7633 15.7199 97.7633 14.8123C97.7633 13.8768 97.8991 13.1065 98.172 12.5015C98.4436 11.8929 98.8 11.4426 99.2398 11.1505C99.6818 10.8585 100.158 10.7124 100.667 10.7124C101.05 10.7124 101.378 10.7854 101.649 10.9314C101.924 11.074 102.152 11.2584 102.329 11.4843C102.506 11.7104 102.64 11.9452 102.732 12.1885H102.798V10.8167H105.109V18.8599C105.109 19.5381 104.954 20.1101 104.644 20.5761C104.334 21.0421 103.901 21.395 103.344 21.6349C102.787 21.8783 102.143 22 101.412 22ZM101.483 16.8622C101.765 16.8622 102.006 16.7804 102.205 16.617C102.404 16.4536 102.558 16.2188 102.665 15.9128C102.773 15.6068 102.826 15.2399 102.826 14.8123C102.826 14.3776 102.773 14.0038 102.665 13.6908C102.56 13.3744 102.408 13.1309 102.205 12.9605C102.006 12.7901 101.765 12.7049 101.483 12.7049C101.196 12.7049 100.952 12.7918 100.753 12.9658C100.554 13.1396 100.402 13.3848 100.298 13.7012C100.196 14.0142 100.145 14.3846 100.145 14.8123C100.145 15.2399 100.197 15.6068 100.302 15.9128C100.407 16.2188 100.557 16.4536 100.753 16.617C100.952 16.7804 101.196 16.8622 101.483 16.8622ZM109.995 18.9799C109.232 18.9799 108.574 18.8148 108.021 18.4844C107.471 18.1506 107.046 17.6759 106.749 17.0604C106.455 16.4415 106.308 15.7059 106.308 14.854C106.308 14.0263 106.456 13.303 106.754 12.6841C107.052 12.0616 107.471 11.5782 108.012 11.234C108.553 10.8862 109.19 10.7124 109.924 10.7124C110.443 10.7124 110.917 10.8011 111.347 10.9784C111.778 11.1558 112.15 11.4183 112.462 11.7661C112.775 12.1137 113.019 12.5432 113.193 13.0544C113.367 13.5621 113.455 14.1445 113.455 14.8019V15.4382H107.12V13.9568H111.295C111.292 13.6855 111.233 13.4439 111.12 13.2318C111.006 13.0196 110.849 12.8545 110.65 12.7363C110.454 12.6145 110.228 12.5536 109.972 12.5536C109.712 12.5536 109.479 12.618 109.273 12.7467C109.069 12.8719 108.905 13.044 108.785 13.2631C108.664 13.4787 108.602 13.7238 108.595 13.9985V15.5059C108.595 15.8329 108.653 16.1198 108.771 16.3667C108.888 16.61 109.054 16.7996 109.269 16.9353C109.484 17.0709 109.74 17.1387 110.037 17.1387C110.243 17.1387 110.43 17.1074 110.597 17.0447C110.765 16.9821 110.909 16.89 111.029 16.7683C111.15 16.6466 111.24 16.497 111.3 16.3197L113.43 16.3875C113.342 16.9126 113.147 17.3699 112.847 17.7594C112.549 18.1453 112.158 18.4461 111.674 18.6618C111.191 18.8739 110.631 18.9799 109.995 18.9799Z" fill="#F16436"/>
</g>
</g>
<defs>
<filter id="filter0_d_1_78" x="3.57895" y="4" width="31.3782" height="19.43" filterUnits="userSpaceOnUse" color-interpolation-filters="sRGB">
<feFlood flood-opacity="0" result="BackgroundImageFix"/>
<feColorMatrix in="SourceAlpha" type="matrix" values="0 0 0 0 0 0 0 0 0 0 0 0 0 0 0 0 0 0 127 0" result="hardAlpha"/>
<feOffset/>
<feGaussianBlur stdDeviation="2"/>
<feComposite in2="hardAlpha" operator="out"/>
<feColorMatrix type="matrix" values="0 0 0 0 0 0 0 0 0 0 0 0 0 0 0 0 0 0 0.25 0"/>
<feBlend mode="normal" in2="BackgroundImageFix" result="effect1_dropShadow_1_78"/>
<feBlend mode="normal" in="SourceGraphic" in2="effect1_dropShadow_1_78" result="shape"/>
</filter>
<filter id="filter1_d_1_78" x="33.0909" y="4" width="84.3636" height="22" filterUnits="userSpaceOnUse" color-interpolation-filters="sRGB">
<feFlood flood-opacity="0" result="BackgroundImageFix"/>
<feColorMatrix in="SourceAlpha" type="matrix" values="0 0 0 0 0 0 0 0 0 0 0 0 0 0 0 0 0 0 127 0" result="hardAlpha"/>
<feOffset/>
<feGaussianBlur stdDeviation="2"/>
<feComposite in2="hardAlpha" operator="out"/>
<feColorMatrix type="matrix" values="0 0 0 0 0 0 0 0 0 0 0 0 0 0 0 0 0 0 0.25 0"/>
<feBlend mode="normal" in2="BackgroundImageFix" result="effect1_dropShadow_1_78"/>
<feBlend mode="normal" in="SourceGraphic" in2="effect1_dropShadow_1_78" result="shape"/>
</filter>
<linearGradient id="paint0_linear_1_78" x1="59.6552" y1="0" x2="59.6552" y2="28" gradientUnits="userSpaceOnUse">
<stop stop-color="#2E140B"/>
<stop offset="1" stop-color="#1E0C07"/>
</linearGradient>
<clipPath id="clip0_1_78">
<rect width="120" height="28" fill="white"/>
</clipPath>
</defs>
</svg>
