<svg width="110" height="28" viewBox="0 0 110 28" fill="none" xmlns="http://www.w3.org/2000/svg">
<g clip-path="url(#clip0_1_78)">
<path d="M105.586 0H3.78217C1.69334 0 0 2.68629 0 6V22C0 25.3137 1.69334 28 3.78217 28H105.586C107.674 28 109.368 25.3137 109.368 22V6C109.368 2.68629 107.674 0 105.586 0Z" fill="url(#paint0_linear_1_78)"/>
<g filter="url(#filter0_d_1_78)">
<path d="M12.579 8L12.9278 9.49086C11.1835 9.49086 6.94737 9.49086 6.94737 9.49086C6.94737 9.49086 7.04707 9.93813 7.0969 9.98784C7.24641 10.2363 7.39593 10.5345 7.59528 10.7332C8.54219 11.8266 10.1868 12.2738 11.5324 12.5222C12.4793 12.7211 13.4263 12.7708 14.3731 12.8205L15.4695 15.7524H16.0676L16.4165 16.6968H15.9181L15.0709 19.43H23.3936L22.5465 16.6968H22.0481L22.397 15.7524H22.9949C22.9949 15.7524 23.4933 12.7211 25.0383 11.3296C26.5334 9.93813 28.3774 9.7393 28.3774 9.7393V8H12.579ZM20.9517 15.504C20.5529 15.7524 20.1044 15.7525 19.8054 15.9513C19.6061 16.0507 19.5064 16.3488 19.5064 16.3488C19.307 15.9016 19.0578 15.7525 18.7588 15.6531C18.4598 15.5537 17.9116 15.6034 17.164 14.9573C16.6657 14.5101 16.6158 13.9137 16.6657 13.6156V13.5659C16.6657 13.5162 16.6657 13.5162 16.6657 13.4665C16.6657 13.4169 16.6657 13.3672 16.7155 13.3174C16.8152 13.0192 17.0644 12.7211 17.5627 12.5222C17.5627 12.5222 17.2139 13.0192 17.5627 13.5162C17.7621 13.8144 18.1608 13.9634 18.5096 13.7647C18.6591 13.6653 18.7588 13.4666 18.8086 13.3174C18.9083 12.9696 18.9083 12.6217 18.6093 12.3732C18.1608 11.9757 18.0611 11.429 18.3601 11.0812C18.3601 11.0812 18.4598 11.5284 18.9083 11.4787C19.2073 11.4787 19.2073 11.3793 19.1076 11.2799C19.0578 11.1308 18.41 10.1866 19.3569 9.49086C19.3569 9.49086 19.9549 9.09329 20.6526 9.14299C20.2539 9.19269 19.8054 9.44118 19.6559 9.83872C19.6559 9.83872 19.6559 9.83872 19.6559 9.88842C19.5064 10.286 19.6061 10.7332 19.9051 11.1308C20.1044 11.429 20.3536 11.6774 20.4532 12.075C20.3037 12.0254 20.2041 12.0751 20.1044 12.1744C20.0047 12.2738 19.9549 12.4726 20.0047 12.6217C20.0545 12.7211 20.1542 12.8205 20.2539 12.8205C20.3037 12.8205 20.3038 12.8205 20.3536 12.8205H20.4034C20.5529 12.7708 20.6526 12.572 20.6028 12.4229C20.7024 12.5223 20.7523 12.7708 20.7025 12.9199C20.7025 13.0689 20.6028 13.218 20.5529 13.3174C20.5031 13.4169 20.4034 13.5162 20.3536 13.6156C20.3038 13.715 20.2539 13.8144 20.2539 13.9138C20.2539 14.0131 20.2539 14.1623 20.3038 14.2617C20.5031 14.5598 20.9018 14.2617 21.0015 14.0131C21.151 13.715 21.1012 13.3672 20.9018 13.0689C20.9018 13.0689 21.2507 13.2677 21.4998 13.9634C21.6992 14.5598 21.3503 15.2556 20.9517 15.504Z" fill="#F16436"/>
</g>
<path d="M106.143 1H4.40719C2.58068 1 1.1 3.35051 1.1 6.25V22.25C1.1 25.1495 2.58068 27.5 4.40719 27.5H106.143C107.969 27.5 109.45 25.1495 109.45 22.25V6.25C109.45 3.35051 107.969 1 106.143 1Z" stroke="white" stroke-opacity="0.15" stroke-width="1.5"/>
<g filter="url(#filter1_d_1_78)">
<path d="M42.1816 12.0164H40.0065C39.9779 11.7486 39.9187 11.507 39.8279 11.2914C39.738 11.0757 39.6196 10.8915 39.4716 10.7385C39.3236 10.5855 39.1481 10.469 38.945 10.389C38.7449 10.3056 38.5234 10.2638 38.2795 10.2638C37.8477 10.2638 37.4752 10.3908 37.1618 10.6446C36.8515 10.8984 36.6127 11.2653 36.4443 11.7452C36.2789 12.2251 36.1962 12.8058 36.1962 13.4874C36.1962 14.1967 36.2809 14.7913 36.4483 15.2713C36.6198 15.7477 36.8587 16.1075 37.1669 16.351C37.4772 16.5909 37.8436 16.7109 38.2672 16.7109C38.505 16.7109 38.7204 16.6744 38.9154 16.6013C39.1124 16.5284 39.2849 16.4223 39.4329 16.2832C39.5829 16.1406 39.7064 15.9685 39.8023 15.7668C39.9014 15.5616 39.9687 15.3304 40.0065 15.0731L42.1816 15.0887C42.1438 15.5616 42.0295 16.0276 41.8376 16.4866C41.6498 16.9457 41.3895 17.3646 41.0588 17.7437C40.7291 18.1193 40.326 18.4183 39.8503 18.6408C39.3777 18.8634 38.8347 18.9748 38.2233 18.9748C37.417 18.9748 36.6954 18.7626 36.0574 18.3384C35.4222 17.9106 34.9207 17.2881 34.5524 16.471C34.1841 15.6538 34 14.6593 34 13.4874C34 12.312 34.187 11.3158 34.5611 10.4985C34.9352 9.68129 35.4411 9.06058 36.0788 8.63632C36.7168 8.21212 37.4313 8 38.2233 8C38.7623 8 39.2614 8.09041 39.7197 8.27124C40.178 8.44855 40.5811 8.7094 40.9292 9.0536C41.2773 9.3945 41.56 9.81349 41.7774 10.3107C41.9948 10.808 42.1295 11.3766 42.1816 12.0164ZM47.724 15.3704V10.8167H49.846V18.8286H47.8199V17.3369H47.7505C47.6025 17.8272 47.3494 18.2166 46.9931 18.5052C46.639 18.7904 46.2113 18.933 45.7101 18.933C45.2549 18.933 44.8548 18.8078 44.5098 18.5574C44.1648 18.307 43.8964 17.9576 43.7045 17.509C43.5136 17.0569 43.4166 16.5284 43.4136 15.9233V10.8167H45.5407V15.4226C45.5438 15.8572 45.6387 16.1997 45.8275 16.4502C46.0163 16.7005 46.2725 16.8257 46.5971 16.8257C46.8094 16.8257 46.9993 16.77 47.1667 16.6587C47.3381 16.544 47.4729 16.3788 47.5719 16.1632C47.6729 15.9441 47.724 15.6799 47.724 15.3704ZM51.2005 18.8286V10.8167H53.2663V12.2773H53.3357C53.4572 11.7486 53.6562 11.3557 53.9318 11.0984C54.2074 10.8375 54.5279 10.7072 54.8933 10.7072C54.9913 10.7072 55.0934 10.7159 55.1975 10.7332C55.3016 10.7472 55.3986 10.7697 55.4894 10.8011V13.0179C55.3873 12.9762 55.2536 12.9431 55.0883 12.9188C54.926 12.8944 54.7811 12.8823 54.6535 12.8823C54.4014 12.8823 54.1737 12.9501 53.9706 13.0857C53.7706 13.2178 53.6124 13.4039 53.497 13.6438C53.3837 13.8803 53.3276 14.1585 53.3276 14.4785V18.8286H51.2005ZM62.1882 13.2631L60.2356 13.3257C60.2152 13.1587 60.1601 13.011 60.0703 12.8823C59.9805 12.7501 59.8631 12.6475 59.7182 12.5746C59.5753 12.4981 59.4109 12.4598 59.2221 12.4598C58.9751 12.4598 58.7648 12.5189 58.5913 12.6371C58.4198 12.7554 58.3361 12.9154 58.3392 13.117C58.3361 13.2735 58.3882 13.4091 58.4954 13.5238C58.6056 13.6386 58.8016 13.7308 59.0823 13.8003L60.3704 14.0924C61.0369 14.2454 61.533 14.4993 61.8575 14.854C62.1852 15.2087 62.3505 15.6782 62.3536 16.2623C62.3505 16.8117 62.2148 17.2899 61.9443 17.6967C61.6779 18.1036 61.3125 18.42 60.8491 18.6461C60.3847 18.8686 59.8539 18.9799 59.2568 18.9799C58.3024 18.9799 57.5502 18.7453 56.999 18.2757C56.4509 17.8029 56.1386 17.1699 56.06 16.3771L58.1606 16.3145C58.2075 16.6066 58.327 16.8291 58.5219 16.9821C58.7158 17.1351 58.9639 17.2116 59.265 17.2116C59.5385 17.2116 59.76 17.1508 59.9305 17.0291C60.1019 16.9073 60.1887 16.7456 60.1918 16.544C60.1887 16.3631 60.1223 16.2188 59.9917 16.1111C59.8611 15.9998 59.6569 15.9128 59.3783 15.8503L58.2126 15.5843C57.5431 15.4382 57.0439 15.1687 56.7163 14.7758C56.3886 14.3793 56.2264 13.8751 56.2294 13.2631C56.2264 12.7276 56.3458 12.2703 56.5856 11.8912C56.8265 11.5087 57.1685 11.2166 57.6125 11.0149C58.0565 10.8132 58.5801 10.7124 59.1823 10.7124C60.0876 10.7124 60.8011 10.9401 61.3227 11.3957C61.8443 11.8477 62.1331 12.4702 62.1882 13.2631ZM66.5242 18.9799C65.825 18.9799 65.2217 18.8148 64.7145 18.4844C64.2102 18.1506 63.8213 17.6759 63.5488 17.0604C63.2794 16.4415 63.1446 15.7059 63.1446 14.854C63.1446 14.0263 63.2804 13.303 63.5529 12.6841C63.8254 12.0616 64.2102 11.5782 64.7053 11.234C65.2013 10.8862 65.7862 10.7124 66.4588 10.7124C66.9345 10.7124 67.3693 10.8011 67.7633 10.9784C68.1573 11.1558 68.4982 11.4183 68.786 11.7661C69.0728 12.1137 69.2964 12.5432 69.4556 13.0544C69.6148 13.5621 69.6944 14.1445 69.6944 14.8019V15.4382H63.8877V13.9568H67.7153C67.7122 13.6855 67.6592 13.4439 67.555 13.2318C67.4499 13.0196 67.307 12.8545 67.1243 12.7363C66.9447 12.6145 66.7365 12.5536 66.5017 12.5536C66.2639 12.5536 66.0516 12.618 65.8627 12.7467C65.6739 12.8719 65.5249 13.044 65.4146 13.2631C65.3044 13.4787 65.2462 13.7238 65.2411 13.9985V15.5059C65.2411 15.8329 65.2942 16.1198 65.4014 16.3667C65.5086 16.61 65.6606 16.7996 65.8587 16.9353C66.0557 17.0709 66.2904 17.1387 66.5629 17.1387C66.7518 17.1387 66.9222 17.1074 67.0763 17.0447C67.2295 16.9821 67.3621 16.89 67.4724 16.7683C67.5826 16.6466 67.6653 16.497 67.7194 16.3197L69.673 16.3875C69.5913 16.9126 69.4137 17.3699 69.1382 17.7594C68.8656 18.1453 68.5074 18.4461 68.0634 18.6618C67.6194 18.8739 67.107 18.9799 66.5242 18.9799ZM70.7804 18.8286V8.14605H76.8618V10.2429H72.9341V12.4337H76.4749V14.5357H72.9341V18.8286H70.7804ZM80.574 18.9799C79.8718 18.9799 79.2686 18.8078 78.7643 18.4635C78.2632 18.1157 77.8753 17.6325 77.6028 17.0135C77.3333 16.391 77.1986 15.6695 77.1986 14.8487C77.1986 14.0246 77.3333 13.303 77.6028 12.6841C77.8753 12.0616 78.2632 11.5782 78.7643 11.234C79.2686 10.8862 79.8718 10.7124 80.574 10.7124C81.2752 10.7124 81.8775 10.8862 82.3786 11.234C82.8839 11.5782 83.2707 12.0616 83.5402 12.6841C83.8127 13.303 83.9495 14.0246 83.9495 14.8487C83.9495 15.6695 83.8127 16.391 83.5402 17.0135C83.2707 17.6325 82.8839 18.1157 82.3786 18.4635C81.8775 18.8078 81.2752 18.9799 80.574 18.9799ZM80.5873 17.0552C80.8425 17.0552 81.0578 16.9613 81.2354 16.7736C81.412 16.5857 81.5468 16.3249 81.6396 15.9911C81.7356 15.6572 81.7835 15.2713 81.7835 14.8331C81.7835 14.388 81.7356 13.9985 81.6396 13.6647C81.5468 13.3309 81.412 13.0701 81.2354 12.8823C81.0578 12.6945 80.8425 12.6006 80.5873 12.6006C80.3229 12.6006 80.0994 12.6945 79.9167 12.8823C79.7371 13.0701 79.5993 13.3309 79.5043 13.6647C79.4114 13.9985 79.3645 14.388 79.3645 14.8331C79.3645 15.2713 79.4114 15.6572 79.5043 15.9911C79.5993 16.3249 79.7371 16.5857 79.9167 16.7736C80.0994 16.9613 80.3229 17.0552 80.5873 17.0552ZM85.0386 18.8286V10.8167H87.1044V12.2773H87.1738C87.2963 11.7486 87.4943 11.3557 87.7699 11.0984C88.0455 10.8375 88.366 10.7072 88.7314 10.7072C88.8304 10.7072 88.9315 10.7159 89.0356 10.7332C89.1407 10.7472 89.2377 10.7697 89.3275 10.8011V13.0179C89.2254 12.9762 89.0928 12.9431 88.9274 12.9188C88.7651 12.8944 88.6202 12.8823 88.4926 12.8823C88.2405 12.8823 88.0129 12.9501 87.8097 13.0857C87.6097 13.2178 87.4515 13.4039 87.3351 13.6438C87.2218 13.8803 87.1657 14.1585 87.1657 14.4785V18.8286H85.0386ZM92.9612 22C92.3263 22 91.7823 21.894 91.3301 21.6819C90.8779 21.4697 90.5227 21.1794 90.2645 20.8108C90.0063 20.4422 89.8511 20.0249 89.7991 19.5589L91.8129 19.4233C91.8507 19.5868 91.9201 19.7293 92.0221 19.8511C92.1263 19.9727 92.261 20.0666 92.4263 20.1327C92.5947 20.1988 92.7917 20.2317 93.0183 20.2317C93.3746 20.2317 93.6685 20.1275 93.9012 19.9189C94.136 19.7136 94.2534 19.3537 94.2534 18.8391V17.4307H94.1789C94.0952 17.6776 93.9676 17.8985 93.7961 18.0932C93.6256 18.2879 93.4123 18.441 93.1572 18.5522C92.905 18.6635 92.6152 18.7191 92.2875 18.7191C91.7996 18.7191 91.3536 18.5836 90.9473 18.3123C90.5442 18.0375 90.2216 17.6133 89.9777 17.0395C89.7368 16.4623 89.6164 15.7199 89.6164 14.8123C89.6164 13.8768 89.7409 13.1065 89.991 12.5015C90.24 11.8929 90.5666 11.4426 90.9698 11.1505C91.375 10.8585 91.8119 10.7124 92.2783 10.7124C92.6294 10.7124 92.9295 10.7854 93.1786 10.9314C93.4307 11.074 93.6389 11.2584 93.8012 11.4843C93.9635 11.7104 94.087 11.9452 94.1707 12.1885H94.2319V10.8167H96.3499V18.8599C96.3499 19.5381 96.208 20.1101 95.9232 20.5761C95.6395 21.0421 95.2424 21.395 94.7321 21.6349C94.2217 21.8783 93.6308 22 92.9612 22ZM93.0265 16.8622C93.2847 16.8622 93.5052 16.7804 93.6879 16.617C93.8706 16.4536 94.0115 16.2188 94.1095 15.9128C94.2085 15.6068 94.2575 15.2399 94.2575 14.8123C94.2575 14.3776 94.2085 14.0038 94.1095 13.6908C94.0135 13.3744 93.8737 13.1309 93.6879 12.9605C93.5052 12.7901 93.2847 12.7049 93.0265 12.7049C92.7632 12.7049 92.5396 12.7918 92.3569 12.9658C92.1742 13.1396 92.0354 13.3848 91.9395 13.7012C91.8466 14.0142 91.7996 14.3846 91.7996 14.8123C91.7996 15.2399 91.8476 15.6068 91.9436 15.9128C92.0395 16.2188 92.1773 16.4536 92.3569 16.617C92.5396 16.7804 92.7632 16.8622 93.0265 16.8622ZM100.829 18.9799C100.13 18.9799 99.5263 18.8148 99.019 18.4844C98.5148 18.1506 98.1259 17.6759 97.8534 17.0604C97.5839 16.4415 97.4492 15.7059 97.4492 14.854C97.4492 14.0263 97.5849 13.303 97.8575 12.6841C98.131 12.0616 98.5148 11.5782 99.0108 11.234C99.5069 10.8862 100.091 10.7124 100.763 10.7124C101.239 10.7124 101.674 10.8011 102.068 10.9784C102.463 11.1558 102.804 11.4183 103.091 11.7661C103.377 12.1137 103.601 12.5432 103.76 13.0544C103.919 13.5621 104 14.1445 104 14.8019V15.4382H98.1933V13.9568H102.021C102.018 13.6855 101.964 13.4439 101.86 13.2318C101.755 13.0196 101.612 12.8545 101.429 12.7363C101.249 12.6145 101.042 12.5536 100.807 12.5536C100.569 12.5536 100.356 12.618 100.167 12.7467C99.9795 12.8719 99.8294 13.044 99.7192 13.2631C99.609 13.4787 99.5518 13.7238 99.5457 13.9985V15.5059C99.5457 15.8329 99.5988 16.1198 99.707 16.3667C99.8141 16.61 99.9662 16.7996 100.163 16.9353C100.36 17.0709 100.595 17.1387 100.867 17.1387C101.056 17.1387 101.228 17.1074 101.381 17.0447C101.535 16.9821 101.667 16.89 101.777 16.7683C101.887 16.6466 101.97 16.497 102.025 16.3197L103.978 16.3875C103.897 16.9126 103.718 17.3699 103.443 17.7594C103.17 18.1453 102.812 18.4461 102.368 18.6618C101.925 18.8739 101.412 18.9799 100.829 18.9799Z" fill="#F16436"/>
</g>
</g>
<defs>
<filter id="filter0_d_1_78" x="2.94737" y="4" width="29.43" height="19.43" filterUnits="userSpaceOnUse" color-interpolation-filters="sRGB">
<feFlood flood-opacity="0" result="BackgroundImageFix"/>
<feColorMatrix in="SourceAlpha" type="matrix" values="0 0 0 0 0 0 0 0 0 0 0 0 0 0 0 0 0 0 127 0" result="hardAlpha"/>
<feOffset/>
<feGaussianBlur stdDeviation="2"/>
<feComposite in2="hardAlpha" operator="out"/>
<feColorMatrix type="matrix" values="0 0 0 0 0 0 0 0 0 0 0 0 0 0 0 0 0 0 0.25 0"/>
<feBlend mode="normal" in2="BackgroundImageFix" result="effect1_dropShadow_1_78"/>
<feBlend mode="normal" in="SourceGraphic" in2="effect1_dropShadow_1_78" result="shape"/>
</filter>
<filter id="filter1_d_1_78" x="30" y="4" width="78" height="22" filterUnits="userSpaceOnUse" color-interpolation-filters="sRGB">
<feFlood flood-opacity="0" result="BackgroundImageFix"/>
<feColorMatrix in="SourceAlpha" type="matrix" values="0 0 0 0 0 0 0 0 0 0 0 0 0 0 0 0 0 0 127 0" result="hardAlpha"/>
<feOffset/>
<feGaussianBlur stdDeviation="2"/>
<feComposite in2="hardAlpha" operator="out"/>
<feColorMatrix type="matrix" values="0 0 0 0 0 0 0 0 0 0 0 0 0 0 0 0 0 0 0.25 0"/>
<feBlend mode="normal" in2="BackgroundImageFix" result="effect1_dropShadow_1_78"/>
<feBlend mode="normal" in="SourceGraphic" in2="effect1_dropShadow_1_78" result="shape"/>
</filter>
<linearGradient id="paint0_linear_1_78" x1="54.6839" y1="0" x2="54.6839" y2="28" gradientUnits="userSpaceOnUse">
<stop stop-color="#2E140B"/>
<stop offset="1" stop-color="#1E0C07"/>
</linearGradient>
<clipPath id="clip0_1_78">
<rect width="110" height="28" fill="white"/>
</clipPath>
</defs>
</svg>
