<svg width="90" height="28" viewBox="0 0 90 28" fill="none" xmlns="http://www.w3.org/2000/svg">
<g clip-path="url(#clip0_1_82)">
<mask id="mask0_1_82" style="mask-type:luminance" maskUnits="userSpaceOnUse" x="-1" y="0" width="92" height="28">
<path d="M86.6039 0.000953674H3.39591C1.52023 0.000953674 -0.000312805 2.44701 -0.000312805 5.46437V21.8556C-0.000312805 24.8729 1.52023 27.319 3.39591 27.319H86.6039C88.4796 27.319 90.0001 24.8729 90.0001 21.8556V5.46437C90.0001 2.44701 88.4796 0.000953674 86.6039 0.000953674Z" fill="white"/>
</mask>
<g mask="url(#mask0_1_82)">
<path d="M86.6039 0.000953674H3.39591C1.52023 0.000953674 -0.000312805 2.44701 -0.000312805 5.46437V21.8556C-0.000312805 24.8729 1.52023 27.319 3.39591 27.319H86.6039C88.4796 27.319 90.0001 24.8729 90.0001 21.8556V5.46437C90.0001 2.44701 88.4796 0.000953674 86.6039 0.000953674Z" fill="url(#paint0_linear_1_82)"/>
<g filter="url(#filter0_d_1_82)">
<path d="M37.0638 12.3602C37.0056 12.1321 36.919 11.9312 36.8051 11.7575C36.6912 11.5801 36.5515 11.4298 36.3862 11.3068C36.2209 11.1838 36.0316 11.0914 35.8174 11.0299C35.6041 10.9647 35.3694 10.9322 35.1141 10.9322C34.6001 10.9322 34.1555 11.0624 33.7803 11.3231C33.4077 11.5837 33.1199 11.9638 32.916 12.4634C32.713 12.9593 32.611 13.562 32.611 14.2715C32.611 14.9846 32.7095 15.5928 32.9057 16.096C33.1027 16.5991 33.3871 16.9828 33.7589 17.2471C34.1315 17.5113 34.583 17.6435 35.1141 17.6435C35.5835 17.6435 35.9793 17.5639 36.304 17.4046C36.6312 17.2417 36.8796 17.0118 37.0484 16.715C37.2171 16.4182 37.3019 16.0688 37.3019 15.667L37.7774 15.7267H35.2023V13.7665H39.7682V15.238C39.7682 16.2335 39.5669 17.086 39.1634 17.7955C38.7634 18.505 38.2117 19.0498 37.5084 19.4298C36.8085 19.8099 36.0041 20 35.0935 20C34.0836 20 33.1952 19.7702 32.4303 19.3104C31.6653 18.8507 31.0682 18.1955 30.6408 17.3448C30.2133 16.4906 30 15.477 30 14.3041C30 13.3919 30.1293 12.5828 30.3872 11.877C30.6459 11.1675 31.0065 10.5666 31.4683 10.0742C31.9334 9.58194 32.4714 9.20903 33.0822 8.95566C33.6955 8.70228 34.356 8.57555 35.0627 8.57555C35.6761 8.57555 36.2466 8.66793 36.7743 8.85249C37.3054 9.03715 37.774 9.29771 38.1809 9.63438C38.5912 9.97104 38.9236 10.371 39.1788 10.8344C39.4341 11.2977 39.5926 11.8064 39.6551 12.3602H37.0638ZM41.7753 19.848V11.5077H44.3041V19.848H41.7753ZM43.0423 10.5358C42.6868 10.5358 42.3818 10.4127 42.1265 10.1665C41.8712 9.91671 41.7445 9.6163 41.7445 9.26516C41.7445 8.9177 41.8712 8.6208 42.1265 8.37471C42.3818 8.12493 42.6868 8 43.0423 8C43.4003 8 43.7061 8.12493 43.9571 8.37471C44.2124 8.6208 44.3401 8.9177 44.3401 9.26516C44.3401 9.6163 44.2124 9.91671 43.9571 10.1665C43.7061 10.4127 43.4003 10.5358 43.0423 10.5358ZM50.3973 11.5077V13.4625H45.386V11.5077H50.3973ZM46.4362 9.50953H48.965V17.2254C48.965 17.3883 48.989 17.5204 49.037 17.6218C49.0884 17.7195 49.1629 17.7901 49.2597 17.8335C49.3556 17.8734 49.4713 17.8932 49.6058 17.8932C49.7026 17.8932 49.8045 17.8842 49.9107 17.8661C50.0212 17.8444 50.1043 17.8262 50.1592 17.8117L50.5421 19.7285C50.4213 19.7647 50.2508 19.8099 50.0298 19.8643C49.8131 19.9186 49.5527 19.953 49.2494 19.9674C48.6558 19.9964 48.1478 19.924 47.7238 19.7502C47.3031 19.5729 46.9802 19.2978 46.7566 18.9249C46.5356 18.5521 46.4285 18.0833 46.4362 17.5186V9.50953ZM51.8579 19.848V8.72765H54.4184V13.191H58.591V8.72765H61.1463V19.848H58.591V15.3792H54.4184V19.848H51.8579ZM67.8769 16.248V11.5077H70.4006V19.848H67.99V18.295H67.9078C67.7321 18.8054 67.4315 19.2109 67.0074 19.5113C66.5868 19.8081 66.0789 19.9566 65.4826 19.9566C64.9412 19.9566 64.4649 19.8262 64.0546 19.5657C63.6443 19.305 63.3256 18.9412 63.0986 18.4742C62.8708 18.0036 62.7551 17.4534 62.7517 16.8235V11.5077H65.2805V16.3023C65.2839 16.7548 65.3978 17.1114 65.6223 17.372C65.8458 17.6326 66.1508 17.7629 66.5371 17.7629C66.789 17.7629 67.0143 17.705 67.2147 17.5891C67.4178 17.4697 67.578 17.2977 67.6953 17.0733C67.8161 16.8453 67.8769 16.5702 67.8769 16.248ZM72.0102 19.848V8.72765H74.539V12.9358H74.5904C74.694 12.6824 74.8405 12.438 75.0298 12.2027C75.2234 11.9674 75.4676 11.7756 75.764 11.6272C76.0646 11.4751 76.4227 11.3991 76.8399 11.3991C77.3916 11.3991 77.9072 11.5512 78.3861 11.8552C78.8692 12.1593 79.2582 12.6281 79.5554 13.2616C79.8518 13.895 80 14.7023 80 15.6833C80 16.6281 79.8569 17.419 79.5708 18.0561C79.2881 18.6932 78.9052 19.1711 78.4221 19.4897C77.9432 19.8081 77.4104 19.9674 76.8245 19.9674C76.4244 19.9674 76.0783 19.8986 75.7854 19.7611C75.4924 19.6236 75.2457 19.4425 75.0452 19.2181C74.8491 18.9937 74.6974 18.7529 74.5904 18.496H74.5133V19.848H72.0102ZM74.4867 15.6778C74.4867 16.1267 74.5441 16.5176 74.658 16.8507C74.7745 17.1838 74.9424 17.4425 75.1592 17.6272C75.3802 17.8081 75.644 17.8986 75.9507 17.8986C76.2608 17.8986 76.5246 17.8081 76.7414 17.6272C76.9589 17.4425 77.1226 17.1838 77.2331 16.8507C77.347 16.5176 77.4036 16.1267 77.4036 15.6778C77.4036 15.229 77.347 14.8398 77.2331 14.5104C77.1226 14.1811 76.9589 13.9258 76.7414 13.7448C76.5281 13.5639 76.2642 13.4733 75.9507 13.4733C75.6406 13.4733 75.3767 13.562 75.1592 13.7393C74.9424 13.9168 74.7745 14.1702 74.658 14.4996C74.5441 14.829 74.4867 15.2217 74.4867 15.6778Z" fill="white"/>
</g>
<g filter="url(#filter1_d_1_82)">
<path d="M15.0005 5.00054C10.0283 5.00054 6 8.90419 6 13.7152C6 17.5676 8.57864 20.8329 12.1524 21.9849C12.6041 22.0671 12.7673 21.7975 12.7673 21.5644C12.7673 21.3574 12.7622 20.81 12.7589 20.0834C10.2539 20.6085 9.72621 18.9119 9.72621 18.9119C9.31616 17.9075 8.72437 17.6379 8.72437 17.6379C7.90979 17.0992 8.78904 17.1107 8.78904 17.1107C9.69137 17.17 10.1661 18.0067 10.1661 18.0067C10.9689 19.34 12.2722 18.9543 12.7881 18.7299C12.8669 18.1684 13.1014 17.7822 13.3568 17.5671C11.3587 17.3487 9.25766 16.5998 9.25766 13.2604C9.25766 12.3067 9.60639 11.53 10.183 10.92C10.0834 10.7016 9.77854 9.81377 10.2623 8.61331C10.2623 8.61331 11.0155 8.38074 12.7375 9.50709C13.4581 9.31374 14.2232 9.21735 14.9876 9.21244C15.7527 9.21735 16.5171 9.31431 17.2377 9.50709C18.9495 8.38074 19.7022 8.61331 19.7022 8.61331C20.1854 9.81377 19.8805 10.701 19.7928 10.92C20.3637 11.53 20.7125 12.3072 20.7125 13.2604C20.7125 16.6074 18.6086 17.3454 16.6083 17.5584C16.921 17.8193 17.2142 18.3558 17.2142 19.17C17.2142 20.3356 17.2029 21.2746 17.2029 21.5584C17.2029 21.785 17.3604 22.0573 17.8239 21.9697C21.4241 20.8296 24 17.5617 24 13.7147C24 8.90362 19.9717 5 14.9994 5L15.0005 5.00054Z" fill="white"/>
</g>
</g>
<path d="M85.3277 1H4.07235C2.48599 1 1.2 3.11846 1.2 5.73171V22.1229C1.2 24.7361 2.48599 26.8546 4.07235 26.8546H85.3277C86.914 26.8546 88.2 24.7361 88.2 22.1229V5.73171C88.2 3.11846 86.914 1 85.3277 1Z" stroke="white" stroke-opacity="0.15" stroke-width="2.14286"/>
</g>
<defs>
<filter id="filter0_d_1_82" x="24.2857" y="2.28572" width="61.4286" height="23.4286" filterUnits="userSpaceOnUse" color-interpolation-filters="sRGB">
<feFlood flood-opacity="0" result="BackgroundImageFix"/>
<feColorMatrix in="SourceAlpha" type="matrix" values="0 0 0 0 0 0 0 0 0 0 0 0 0 0 0 0 0 0 127 0" result="hardAlpha"/>
<feOffset/>
<feGaussianBlur stdDeviation="2.85714"/>
<feComposite in2="hardAlpha" operator="out"/>
<feColorMatrix type="matrix" values="0 0 0 0 0 0 0 0 0 0 0 0 0 0 0 0 0 0 0.25 0"/>
<feBlend mode="normal" in2="BackgroundImageFix" result="effect1_dropShadow_1_82"/>
<feBlend mode="normal" in="SourceGraphic" in2="effect1_dropShadow_1_82" result="shape"/>
</filter>
<filter id="filter1_d_1_82" x="0.39972" y="-0.60028" width="29.2006" height="28.2006" filterUnits="userSpaceOnUse" color-interpolation-filters="sRGB">
<feFlood flood-opacity="0" result="BackgroundImageFix"/>
<feColorMatrix in="SourceAlpha" type="matrix" values="0 0 0 0 0 0 0 0 0 0 0 0 0 0 0 0 0 0 127 0" result="hardAlpha"/>
<feOffset/>
<feGaussianBlur stdDeviation="2.80014"/>
<feComposite in2="hardAlpha" operator="out"/>
<feColorMatrix type="matrix" values="0 0 0 0 0 0 0 0 0 0 0 0 0 0 0 0 0 0 0.25 0"/>
<feBlend mode="normal" in2="BackgroundImageFix" result="effect1_dropShadow_1_82"/>
<feBlend mode="normal" in="SourceGraphic" in2="effect1_dropShadow_1_82" result="shape"/>
</filter>
<linearGradient id="paint0_linear_1_82" x1="45" y1="0.000953674" x2="45" y2="27.319" gradientUnits="userSpaceOnUse">
<stop stop-color="#181F29"/>
<stop offset="1" stop-color="#0F131A"/>
</linearGradient>
<clipPath id="clip0_1_82">
<rect width="90" height="28" fill="white"/>
</clipPath>
</defs>
</svg>
