<svg width="75" height="28" viewBox="0 0 75 28" fill="none" xmlns="http://www.w3.org/2000/svg">
<g clip-path="url(#clip0_1_82)">
<mask id="mask0_1_82" style="mask-type:luminance" maskUnits="userSpaceOnUse" x="-1" y="0" width="76" height="28">
<path d="M72.1699 0.000953674H2.82988C1.26681 0.000953674 -0.000312805 2.44701 -0.000312805 5.46437V21.8556C-0.000312805 24.8729 1.26681 27.319 2.82988 27.319H72.1699C73.7329 27.319 75 24.8729 75 21.8556V5.46437C75 2.44701 73.7329 0.000953674 72.1699 0.000953674Z" fill="white"/>
</mask>
<g mask="url(#mask0_1_82)">
<path d="M72.1699 0.000953674H2.82988C1.26681 0.000953674 -0.000312805 2.44701 -0.000312805 5.46437V21.8556C-0.000312805 24.8729 1.26681 27.319 2.82988 27.319H72.1699C73.7329 27.319 75 24.8729 75 21.8556V5.46437C75 2.44701 73.7329 0.000953674 72.1699 0.000953674Z" fill="url(#paint0_linear_1_82)"/>
<g filter="url(#filter0_d_1_82)">
<path d="M33.651 12.6335C33.6044 12.4434 33.5352 12.276 33.4441 12.1313C33.3529 11.9834 33.2412 11.8582 33.109 11.7557C32.9767 11.6531 32.8252 11.5762 32.6539 11.5249C32.4833 11.4706 32.2955 11.4435 32.0913 11.4435C31.6801 11.4435 31.3244 11.552 31.0243 11.7692C30.7261 11.9864 30.4959 12.3032 30.3328 12.7195C30.1704 13.1327 30.0888 13.635 30.0888 14.2263C30.0888 14.8205 30.1676 15.3274 30.3246 15.7466C30.4822 16.1659 30.7097 16.4857 31.0071 16.7059C31.3052 16.9261 31.6664 17.0362 32.0913 17.0362C32.4668 17.0362 32.7834 16.9699 33.0432 16.8371C33.305 16.7014 33.5037 16.5098 33.6387 16.2625C33.7737 16.0151 33.8416 15.724 33.8416 15.3892L34.2219 15.439H32.1619V13.8054H35.8146V15.0317C35.8146 15.8612 35.6535 16.5717 35.3307 17.1629C35.0107 17.7542 34.5694 18.2082 34.0067 18.5249C33.4468 18.8416 32.8033 19 32.0748 19C31.2669 19 30.5562 18.8085 29.9442 18.4253C29.3322 18.0422 28.8546 17.4963 28.5126 16.7874C28.1706 16.0755 28 15.2308 28 14.2534C28 13.4932 28.1035 12.819 28.3098 12.2308C28.5167 11.6396 28.8052 11.1388 29.1746 10.7285C29.5467 10.3183 29.9771 10.0075 30.4657 9.79638C30.9564 9.58524 31.4848 9.47963 32.0502 9.47963C32.5408 9.47963 32.9973 9.5566 33.4194 9.71041C33.8443 9.86429 34.2192 10.0814 34.5447 10.362C34.8729 10.6425 35.1388 10.9759 35.3431 11.362C35.5473 11.7481 35.6741 12.172 35.7241 12.6335H33.651ZM37.4202 18.8733V11.9231H39.4433V18.8733H37.4202ZM38.4338 11.1132C38.1494 11.1132 37.9054 11.0106 37.7012 10.8054C37.497 10.5973 37.3956 10.3469 37.3956 10.0543C37.3956 9.76475 37.497 9.51733 37.7012 9.31226C37.9054 9.10411 38.1494 9 38.4338 9C38.7203 9 38.9649 9.10411 39.1657 9.31226C39.3699 9.51733 39.472 9.76475 39.472 10.0543C39.472 10.3469 39.3699 10.5973 39.1657 10.8054C38.9649 11.0106 38.7203 11.1132 38.4338 11.1132ZM44.3179 11.9231V13.5521H40.3088V11.9231H44.3179ZM41.149 10.2579H43.172V16.6878C43.172 16.8236 43.1912 16.9337 43.2296 17.0182C43.2707 17.0996 43.3303 17.1584 43.4078 17.1946C43.4845 17.2278 43.577 17.2444 43.6846 17.2444C43.7621 17.2444 43.8436 17.2368 43.9286 17.2217C44.017 17.2037 44.0835 17.1885 44.1273 17.1765L44.4337 18.7738C44.337 18.8039 44.2007 18.8416 44.0239 18.8869C43.8505 18.9322 43.6421 18.9608 43.3995 18.9729C42.9246 18.997 42.5182 18.9367 42.179 18.7919C41.8425 18.644 41.5842 18.4148 41.4053 18.1041C41.2285 17.7934 41.1428 17.4027 41.149 16.9322V10.2579ZM45.4863 18.8733V9.60637H47.5347V13.3258H50.8728V9.60637H52.9171V18.8733H50.8728V15.1493H47.5347V18.8733H45.4863ZM58.3015 15.8733V11.9231H60.3205V18.8733H58.392V17.5792H58.3262C58.1857 18.0045 57.9452 18.3424 57.606 18.5928C57.2695 18.8401 56.8631 18.9638 56.3861 18.9638C55.953 18.9638 55.572 18.8552 55.2437 18.638C54.9154 18.4208 54.6605 18.1176 54.4789 17.7285C54.2966 17.3363 54.2041 16.8778 54.2013 16.3529V11.9231H56.2244V15.9186C56.2271 16.2957 56.3183 16.5928 56.4978 16.81C56.6767 17.0271 56.9206 17.1358 57.2297 17.1358C57.4312 17.1358 57.6114 17.0875 57.7718 16.9909C57.9342 16.8914 58.0624 16.7481 58.1563 16.5611C58.2529 16.3711 58.3015 16.1418 58.3015 15.8733ZM61.6081 18.8733V9.60637H63.6312V13.1131H63.6723C63.7552 12.902 63.8724 12.6984 64.0238 12.5023C64.1787 12.3062 64.374 12.1463 64.6112 12.0227C64.8517 11.8959 65.1382 11.8326 65.4719 11.8326C65.9132 11.8326 66.3258 11.9593 66.7089 12.2127C67.0954 12.4661 67.4065 12.8567 67.6443 13.3846C67.8814 13.9125 68 14.5852 68 15.4028C68 16.1901 67.8856 16.8492 67.6567 17.3801C67.4305 17.911 67.1242 18.3092 66.7377 18.5747C66.3546 18.8401 65.9283 18.9729 65.4596 18.9729C65.1395 18.9729 64.8627 18.9155 64.6283 18.8009C64.3939 18.6863 64.1965 18.5354 64.0362 18.3484C63.8793 18.1614 63.7579 17.9608 63.6723 17.7466H63.6106V18.8733H61.6081ZM63.5894 15.3982C63.5894 15.7723 63.6353 16.098 63.7264 16.3756C63.8196 16.6531 63.9539 16.8688 64.1273 17.0227C64.3041 17.1735 64.5152 17.2489 64.7606 17.2489C65.0086 17.2489 65.2197 17.1735 65.3931 17.0227C65.5672 16.8688 65.6981 16.6531 65.7865 16.3756C65.8776 16.098 65.9228 15.7723 65.9228 15.3982C65.9228 15.0242 65.8776 14.6998 65.7865 14.4254C65.6981 14.1509 65.5672 13.9382 65.3931 13.7874C65.2225 13.6366 65.0114 13.5611 64.7606 13.5611C64.5125 13.5611 64.3014 13.635 64.1273 13.7828C63.9539 13.9307 63.8196 14.1418 63.7264 14.4163C63.6353 14.6908 63.5894 15.0181 63.5894 15.3982Z" fill="white"/>
</g>
<g filter="url(#filter1_d_1_82)">
<path d="M15.0005 5.00054C10.0283 5.00054 6 8.90419 6 13.7152C6 17.5676 8.57864 20.8329 12.1524 21.9849C12.6041 22.0671 12.7673 21.7975 12.7673 21.5644C12.7673 21.3574 12.7622 20.81 12.7589 20.0834C10.2539 20.6085 9.72621 18.9119 9.72621 18.9119C9.31616 17.9075 8.72437 17.6379 8.72437 17.6379C7.90979 17.0992 8.78904 17.1107 8.78904 17.1107C9.69137 17.17 10.1661 18.0067 10.1661 18.0067C10.9689 19.34 12.2722 18.9543 12.7881 18.7299C12.8669 18.1684 13.1014 17.7822 13.3568 17.5671C11.3587 17.3487 9.25766 16.5998 9.25766 13.2604C9.25766 12.3067 9.60639 11.53 10.183 10.92C10.0834 10.7016 9.77854 9.81377 10.2623 8.61331C10.2623 8.61331 11.0155 8.38074 12.7375 9.50709C13.4581 9.31374 14.2232 9.21735 14.9876 9.21244C15.7527 9.21735 16.5171 9.31431 17.2377 9.50709C18.9495 8.38074 19.7022 8.61331 19.7022 8.61331C20.1854 9.81377 19.8805 10.701 19.7928 10.92C20.3637 11.53 20.7125 12.3072 20.7125 13.2604C20.7125 16.6074 18.6086 17.3454 16.6083 17.5584C16.921 17.8193 17.2142 18.3558 17.2142 19.17C17.2142 20.3356 17.2029 21.2746 17.2029 21.5584C17.2029 21.785 17.3604 22.0573 17.8239 21.9697C21.4241 20.8296 24 17.5617 24 13.7147C24 8.90362 19.9717 5 14.9994 5L15.0005 5.00054Z" fill="white"/>
</g>
</g>
<path d="M71.1064 1H3.39362C2.07166 1 1 3.11846 1 5.73171V22.1229C1 24.7361 2.07166 26.8546 3.39362 26.8546H71.1064C72.4283 26.8546 73.5 24.7361 73.5 22.1229V5.73171C73.5 3.11846 72.4283 1 71.1064 1Z" stroke="white" stroke-opacity="0.15" stroke-width="2.14286"/>
</g>
<defs>
<filter id="filter0_d_1_82" x="22.2857" y="3.28572" width="51.4286" height="21.4286" filterUnits="userSpaceOnUse" color-interpolation-filters="sRGB">
<feFlood flood-opacity="0" result="BackgroundImageFix"/>
<feColorMatrix in="SourceAlpha" type="matrix" values="0 0 0 0 0 0 0 0 0 0 0 0 0 0 0 0 0 0 127 0" result="hardAlpha"/>
<feOffset/>
<feGaussianBlur stdDeviation="2.85714"/>
<feComposite in2="hardAlpha" operator="out"/>
<feColorMatrix type="matrix" values="0 0 0 0 0 0 0 0 0 0 0 0 0 0 0 0 0 0 0.25 0"/>
<feBlend mode="normal" in2="BackgroundImageFix" result="effect1_dropShadow_1_82"/>
<feBlend mode="normal" in="SourceGraphic" in2="effect1_dropShadow_1_82" result="shape"/>
</filter>
<filter id="filter1_d_1_82" x="0.39972" y="-0.60028" width="29.2006" height="28.2006" filterUnits="userSpaceOnUse" color-interpolation-filters="sRGB">
<feFlood flood-opacity="0" result="BackgroundImageFix"/>
<feColorMatrix in="SourceAlpha" type="matrix" values="0 0 0 0 0 0 0 0 0 0 0 0 0 0 0 0 0 0 127 0" result="hardAlpha"/>
<feOffset/>
<feGaussianBlur stdDeviation="2.80014"/>
<feComposite in2="hardAlpha" operator="out"/>
<feColorMatrix type="matrix" values="0 0 0 0 0 0 0 0 0 0 0 0 0 0 0 0 0 0 0.25 0"/>
<feBlend mode="normal" in2="BackgroundImageFix" result="effect1_dropShadow_1_82"/>
<feBlend mode="normal" in="SourceGraphic" in2="effect1_dropShadow_1_82" result="shape"/>
</filter>
<linearGradient id="paint0_linear_1_82" x1="37.4999" y1="0.000953674" x2="37.4999" y2="27.319" gradientUnits="userSpaceOnUse">
<stop stop-color="#181F29"/>
<stop offset="1" stop-color="#0F131A"/>
</linearGradient>
<clipPath id="clip0_1_82">
<rect width="75" height="28" fill="white"/>
</clipPath>
</defs>
</svg>
