<svg width="100" height="28" viewBox="0 0 100 28" fill="none" xmlns="http://www.w3.org/2000/svg">
<g clip-path="url(#clip0_1_82)">
<mask id="mask0_1_82" style="mask-type:luminance" maskUnits="userSpaceOnUse" x="-1" y="0" width="102" height="28">
<path d="M96.2266 0.000953674H3.77327C1.68918 0.000953674 -0.000312805 2.44701 -0.000312805 5.46437V21.8556C-0.000312805 24.8729 1.68918 27.319 3.77327 27.319H96.2266C98.3107 27.319 100 24.8729 100 21.8556V5.46437C100 2.44701 98.3107 0.000953674 96.2266 0.000953674Z" fill="white"/>
</mask>
<g mask="url(#mask0_1_82)">
<path d="M96.2266 0.000953674H3.77327C1.68918 0.000953674 -0.000312805 2.44701 -0.000312805 5.46437V21.8556C-0.000312805 24.8729 1.68918 27.319 3.77327 27.319H96.2266C98.3107 27.319 100 24.8729 100 21.8556V5.46437C100 2.44701 98.3107 0.000953674 96.2266 0.000953674Z" fill="url(#paint0_linear_1_82)"/>
<g filter="url(#filter0_d_1_82)">
<path d="M38.1234 12.0143C38.0564 11.7519 37.9569 11.5209 37.8259 11.3211C37.6948 11.1172 37.5343 10.9443 37.3441 10.8028C37.154 10.6613 36.9363 10.5551 36.69 10.4843C36.4447 10.4095 36.1748 10.372 35.8812 10.372C35.2901 10.372 34.7789 10.5218 34.3474 10.8215C33.9188 11.1213 33.5878 11.5584 33.3534 12.1329C33.1199 12.7031 33.0027 13.3963 33.0027 14.2123C33.0027 15.0323 33.116 15.7317 33.3416 16.3104C33.5681 16.889 33.8952 17.3302 34.3227 17.6341C34.7513 17.938 35.2704 18.09 35.8812 18.09C36.4211 18.09 36.8762 17.9984 37.2496 17.8153C37.6259 17.6279 37.9116 17.3635 38.1056 17.0222C38.2997 16.6809 38.3972 16.2791 38.3972 15.8171L38.944 15.8858H35.9827V13.6315H41.2334V15.3237C41.2334 16.4685 41.0019 17.4489 40.5379 18.2648C40.0779 19.0808 39.4434 19.7073 38.6347 20.1443C37.8298 20.5814 36.9048 20.8 35.8576 20.8C34.6961 20.8 33.6745 20.5357 32.7948 20.007C31.9151 19.4783 31.2285 18.7249 30.7369 17.7466C30.2453 16.7641 30 15.5985 30 14.2497C30 13.2007 30.1488 12.2703 30.4453 11.4585C30.7428 10.6426 31.1575 9.95154 31.6885 9.38533C32.2234 8.81923 32.8421 8.39038 33.5445 8.09901C34.2498 7.80763 35.0094 7.66189 35.8221 7.66189C36.5275 7.66189 37.1836 7.76811 37.7904 7.98036C38.4012 8.19272 38.94 8.49237 39.408 8.87953C39.8799 9.26669 40.2621 9.72667 40.5557 10.2596C40.8492 10.7924 41.0315 11.3773 41.1034 12.0143H38.1234ZM43.5416 20.6252V11.0339H46.4497V20.6252H43.5416ZM44.9986 9.91617C44.5898 9.91617 44.2391 9.77456 43.9455 9.49146C43.6519 9.20422 43.5061 8.85874 43.5061 8.45493C43.5061 8.05536 43.6519 7.71391 43.9455 7.43091C44.2391 7.14367 44.5898 7 44.9986 7C45.4104 7 45.7621 7.14367 46.0507 7.43091C46.3443 7.71391 46.4911 8.05536 46.4911 8.45493C46.4911 8.85874 46.3443 9.20422 46.0507 9.49146C45.7621 9.77456 45.4104 9.91617 44.9986 9.91617ZM53.4569 11.0339V13.2819H47.6939V11.0339H53.4569ZM48.9017 8.73596H51.8098V17.6092C51.8098 17.7965 51.8373 17.9485 51.8925 18.0651C51.9516 18.1774 52.0373 18.2586 52.1487 18.3085C52.259 18.3544 52.392 18.3772 52.5466 18.3772C52.658 18.3772 52.7752 18.3668 52.8973 18.346C53.0244 18.3211 53.12 18.3002 53.183 18.2835L53.6234 20.4878C53.4845 20.5294 53.2885 20.5814 53.0343 20.6439C52.785 20.7064 52.4856 20.7459 52.1368 20.7626C51.4541 20.7959 50.87 20.7126 50.3823 20.5128C49.8986 20.3088 49.5272 19.9925 49.2701 19.5636C49.0159 19.1349 48.8928 18.5958 48.9017 17.9464V8.73596ZM55.1366 20.6252V7.8368H58.0811V12.9696H62.8797V7.8368H65.8183V20.6252H62.8797V15.4861H58.0811V20.6252H55.1366ZM73.5585 16.4852V11.0339H76.4607V20.6252H73.6885V18.8393H73.5939C73.392 19.4263 73.0462 19.8926 72.5586 20.238C72.0749 20.5794 71.4907 20.75 70.805 20.75C70.1824 20.75 69.6347 20.6002 69.1628 20.3005C68.6909 20.0007 68.3245 19.5824 68.0634 19.0453C67.8014 18.5041 67.6684 17.8714 67.6644 17.1471V11.0339H70.5725V16.5476C70.5765 17.068 70.7075 17.4781 70.9656 17.7778C71.2227 18.0775 71.5734 18.2273 72.0177 18.2273C72.3073 18.2273 72.5664 18.1607 72.7969 18.0275C73.0304 17.8901 73.2146 17.6924 73.3496 17.4343C73.4885 17.1721 73.5585 16.8557 73.5585 16.4852ZM78.3117 20.6252V7.8368H81.2198V12.6761H81.2789C81.3981 12.3848 81.5666 12.1037 81.7843 11.8331C82.0069 11.5626 82.2877 11.3419 82.6285 11.1713C82.9743 10.9963 83.3861 10.9089 83.8659 10.9089C84.5003 10.9089 85.0933 11.0839 85.644 11.4335C86.1996 11.7832 86.6469 12.3223 86.9887 13.0508C87.3296 13.7793 87.5 14.7076 87.5 15.8358C87.5 16.9223 87.3355 17.8319 87.0065 18.5645C86.6814 19.2972 86.241 19.8467 85.6854 20.2131C85.1347 20.5794 84.522 20.7626 83.8481 20.7626C83.3881 20.7626 82.9901 20.6834 82.6532 20.5253C82.3163 20.3671 82.0325 20.1589 81.802 19.9008C81.5764 19.6428 81.402 19.3659 81.2789 19.0703H81.1902V20.6252H78.3117ZM81.1597 15.8295C81.1597 16.3457 81.2257 16.7953 81.3567 17.1783C81.4907 17.5613 81.6838 17.8589 81.933 18.0713C82.1872 18.2794 82.4906 18.3834 82.8433 18.3834C83.1999 18.3834 83.5033 18.2794 83.7526 18.0713C84.0028 17.8589 84.191 17.5613 84.318 17.1783C84.4491 16.7953 84.5141 16.3457 84.5141 15.8295C84.5141 15.3133 84.4491 14.8658 84.318 14.487C84.191 14.1082 84.0028 13.8147 83.7526 13.6066C83.5073 13.3984 83.2039 13.2943 82.8433 13.2943C82.4867 13.2943 82.1833 13.3963 81.933 13.6002C81.6838 13.8043 81.4907 14.0957 81.3567 14.4745C81.2257 14.8534 81.1597 15.305 81.1597 15.8295Z" fill="white"/>
</g>
<g filter="url(#filter1_d_1_82)">
<path d="M15.0005 5.00054C10.0283 5.00054 6 8.90419 6 13.7152C6 17.5676 8.57864 20.8329 12.1524 21.9849C12.6041 22.0671 12.7673 21.7975 12.7673 21.5644C12.7673 21.3574 12.7622 20.81 12.7589 20.0834C10.2539 20.6085 9.72621 18.9119 9.72621 18.9119C9.31616 17.9075 8.72437 17.6379 8.72437 17.6379C7.90979 17.0992 8.78904 17.1107 8.78904 17.1107C9.69137 17.17 10.1661 18.0067 10.1661 18.0067C10.9689 19.34 12.2722 18.9543 12.7881 18.7299C12.8669 18.1684 13.1014 17.7822 13.3568 17.5671C11.3587 17.3487 9.25766 16.5998 9.25766 13.2604C9.25766 12.3067 9.60639 11.53 10.183 10.92C10.0834 10.7016 9.77854 9.81377 10.2623 8.61331C10.2623 8.61331 11.0155 8.38074 12.7375 9.50709C13.4581 9.31374 14.2232 9.21735 14.9876 9.21244C15.7527 9.21735 16.5171 9.31431 17.2377 9.50709C18.9495 8.38074 19.7022 8.61331 19.7022 8.61331C20.1854 9.81377 19.8805 10.701 19.7928 10.92C20.3637 11.53 20.7125 12.3072 20.7125 13.2604C20.7125 16.6074 18.6086 17.3454 16.6083 17.5584C16.921 17.8193 17.2142 18.3558 17.2142 19.17C17.2142 20.3356 17.2029 21.2746 17.2029 21.5584C17.2029 21.785 17.3604 22.0573 17.8239 21.9697C21.4241 20.8296 24 17.5617 24 13.7147C24 8.90362 19.9717 5 14.9994 5L15.0005 5.00054Z" fill="white"/>
</g>
</g>
<path d="M94.8085 1H4.52484C2.76222 1 1.33334 3.11846 1.33334 5.73171V22.1229C1.33334 24.7361 2.76222 26.8546 4.52484 26.8546H94.8085C96.5711 26.8546 98 24.7361 98 22.1229V5.73171C98 3.11846 96.5711 1 94.8085 1Z" stroke="white" stroke-opacity="0.15" stroke-width="2.14286"/>
</g>
<defs>
<filter id="filter0_d_1_82" x="24.2857" y="1.28572" width="68.9286" height="25.2286" filterUnits="userSpaceOnUse" color-interpolation-filters="sRGB">
<feFlood flood-opacity="0" result="BackgroundImageFix"/>
<feColorMatrix in="SourceAlpha" type="matrix" values="0 0 0 0 0 0 0 0 0 0 0 0 0 0 0 0 0 0 127 0" result="hardAlpha"/>
<feOffset/>
<feGaussianBlur stdDeviation="2.85714"/>
<feComposite in2="hardAlpha" operator="out"/>
<feColorMatrix type="matrix" values="0 0 0 0 0 0 0 0 0 0 0 0 0 0 0 0 0 0 0.25 0"/>
<feBlend mode="normal" in2="BackgroundImageFix" result="effect1_dropShadow_1_82"/>
<feBlend mode="normal" in="SourceGraphic" in2="effect1_dropShadow_1_82" result="shape"/>
</filter>
<filter id="filter1_d_1_82" x="0.39972" y="-0.60028" width="29.2006" height="28.2006" filterUnits="userSpaceOnUse" color-interpolation-filters="sRGB">
<feFlood flood-opacity="0" result="BackgroundImageFix"/>
<feColorMatrix in="SourceAlpha" type="matrix" values="0 0 0 0 0 0 0 0 0 0 0 0 0 0 0 0 0 0 127 0" result="hardAlpha"/>
<feOffset/>
<feGaussianBlur stdDeviation="2.80014"/>
<feComposite in2="hardAlpha" operator="out"/>
<feColorMatrix type="matrix" values="0 0 0 0 0 0 0 0 0 0 0 0 0 0 0 0 0 0 0.25 0"/>
<feBlend mode="normal" in2="BackgroundImageFix" result="effect1_dropShadow_1_82"/>
<feBlend mode="normal" in="SourceGraphic" in2="effect1_dropShadow_1_82" result="shape"/>
</filter>
<linearGradient id="paint0_linear_1_82" x1="50" y1="0.000953674" x2="50" y2="27.319" gradientUnits="userSpaceOnUse">
<stop stop-color="#181F29"/>
<stop offset="1" stop-color="#0F131A"/>
</linearGradient>
<clipPath id="clip0_1_82">
<rect width="100" height="28" fill="white"/>
</clipPath>
</defs>
</svg>
