<svg width="95" height="28" viewBox="0 0 95 28" fill="none" xmlns="http://www.w3.org/2000/svg">
<g clip-path="url(#clip0_3_91)">
<mask id="mask0_3_91" style="mask-type:luminance" maskUnits="userSpaceOnUse" x="0" y="0" width="95" height="28">
<path d="M91.4038 0H3.59621C1.61008 0 0 2.68629 0 6V22C0 25.3137 1.61008 28 3.59621 28H91.4038C93.3899 28 95 25.3137 95 22V6C95 2.68629 93.3899 0 91.4038 0Z" fill="white"/>
</mask>
<g mask="url(#mask0_3_91)">
<path d="M91.4038 0H3.59621C1.61008 0 0 2.68629 0 6V22C0 25.3137 1.61008 28 3.59621 28H91.4038C93.3899 28 95 25.3137 95 22V6C95 2.68629 93.3899 0 91.4038 0Z" fill="url(#paint0_linear_3_91)"/>
<g filter="url(#filter0_d_3_91)">
<path d="M12.5901 4.05673C9.1395 4.39947 6.1436 6.46924 4.59216 9.58503C4.07501 10.6221 3.72727 11.815 3.61136 12.9456L3.58461 13.2038H4.47625C4.96664 13.2038 5.36788 13.1904 5.37234 13.1682C5.42138 12.4426 5.74237 11.3032 6.13023 10.4886C7.5078 7.60428 10.3744 5.79267 13.5486 5.79267C14.895 5.79267 16.0363 6.05528 17.2043 6.63393C18.5329 7.2927 19.5984 8.22743 20.4142 9.44259C20.7753 9.98118 21.2746 10.9649 21.2122 11.0183C21.1899 11.0405 20.8333 11.1474 20.4231 11.2542L19.6741 11.4545L19.478 11.0717C18.8449 9.80758 17.7883 8.74821 16.5401 8.12061C16.0898 7.8936 15.6261 7.72 15.5548 7.74671C15.5236 7.75561 15.4835 7.86244 15.4701 7.98262C15.4523 8.09835 15.4032 8.40548 15.3542 8.66364C15.3096 8.92181 15.2606 9.20668 15.2472 9.2957L15.216 9.46039L15.5949 9.63844C16.8967 10.2438 17.8374 11.3655 18.2342 12.7809C18.3501 13.1904 18.3634 13.2839 18.3634 14.005C18.3634 14.7261 18.3501 14.8195 18.2342 15.2291C17.9979 16.0659 17.5788 16.8047 17.0037 17.3834C16.6738 17.7172 16.1879 18.0778 15.8357 18.2603C15.7153 18.3181 15.6217 18.3938 15.6217 18.425C15.6261 18.5006 16.0497 20.0585 16.0809 20.0852C16.121 20.1253 16.8744 19.7247 17.3158 19.4309C17.8686 19.0615 18.6354 18.2959 19.0054 17.7439C19.5226 16.9694 19.8436 16.2261 20.0442 15.3359C20.1289 14.9442 20.1467 14.7439 20.1467 14.0183C20.1467 13.2973 20.1556 13.1593 20.2136 13.1459C20.7575 12.9901 21.6982 12.7587 21.716 12.772C21.7472 12.8076 21.7962 13.551 21.7962 14.005C21.7962 14.6192 21.7383 15.2201 21.6402 15.6519C21.5956 15.8567 21.56 16.0303 21.5644 16.0347C21.5689 16.0436 21.9434 16.1771 22.3936 16.3418C23.0178 16.5688 23.2229 16.6267 23.2496 16.5822C23.3209 16.462 23.5126 15.2869 23.5617 14.6593C23.6642 13.2572 23.419 11.6459 22.9063 10.3773C21.4619 6.80307 18.3055 4.42617 14.5071 4.05673C13.7448 3.98106 13.3435 3.98106 12.5901 4.05673Z" fill="#00D845"/>
<path d="M12.813 7.44851C12.4876 7.47966 11.7609 7.65326 11.3909 7.78234C9.5675 8.4233 8.0651 9.88772 7.38743 11.6904C6.86137 13.0836 6.84353 14.8329 7.34285 16.1994L7.4543 16.5021L7.04415 16.738C6.22385 17.2143 6.07673 17.2988 6.04552 17.2988C6.0054 17.2988 5.80924 16.8048 5.68441 16.3864C5.54175 15.8878 5.39017 15.1668 5.37234 14.8374C5.36788 14.8196 4.96664 14.8062 4.47625 14.8062H3.58461L3.61136 15.0599C3.84764 17.3612 4.90869 19.5333 6.59833 21.1758C10.5616 25.0215 16.8878 24.9281 20.753 20.9666C21.2613 20.4413 21.765 19.7959 22.1217 19.2084C22.4293 18.6965 22.6656 18.2158 22.6299 18.1802C22.6121 18.1624 22.3981 18.0778 22.1529 17.9888C21.9077 17.8997 21.5778 17.7796 21.4173 17.7262C21.2568 17.6683 21.0963 17.606 21.0606 17.5926C21.0116 17.5748 20.9492 17.6505 20.8244 17.8908C20.0754 19.3508 18.6755 20.6772 17.0929 21.4339C15.742 22.0749 14.3689 22.3153 12.7417 22.1862C11.1501 22.0615 9.3758 21.2782 8.0874 20.1342C7.7218 19.8093 7.19127 19.2395 6.99065 18.9547C6.92378 18.8567 6.88812 18.8834 7.9224 18.2825L8.3103 18.0555L8.8586 18.603C9.83939 19.5867 10.8916 20.1654 12.2379 20.468C12.6347 20.5526 12.8264 20.5704 13.5575 20.5704C14.0256 20.5704 14.4224 20.5571 14.4358 20.5437C14.4536 20.5304 14.3823 20.2188 14.2842 19.8538C14.1861 19.4888 14.0836 19.1105 14.0569 19.0081L14.0078 18.8256L13.3792 18.7989C12.1933 18.7499 11.2527 18.376 10.3699 17.6015C10.2228 17.4724 10.0579 17.3122 10.0088 17.2499L9.91969 17.1342L10.9049 16.5644L11.8946 15.9991L12.9289 17.0941L14.1193 16.8493L15.3096 16.6089L16.9145 15.0065L16.7719 14.4813C16.6827 14.1474 16.6114 13.9605 16.5757 13.9605C16.5401 13.9605 16.1789 14.0495 15.7688 14.1608L15.0198 14.3656L14.7077 14.6682C14.3689 14.9976 14.418 14.9843 13.6824 15.051L13.4149 15.0777L13.0939 14.7617C12.9156 14.5926 12.7684 14.4412 12.7684 14.4323C12.7684 14.419 12.7194 14.232 12.6614 14.0095L12.5544 13.6044L12.8442 13.2172C13.0047 12.9991 13.1429 12.821 13.1518 12.8121C13.1563 12.8032 13.348 12.7453 13.5798 12.6875L13.9944 12.5807L14.5606 12.0154C14.8772 11.7038 15.1313 11.4278 15.1313 11.4011C15.1313 11.3744 14.9619 11.1875 14.7568 10.9827L14.3823 10.6133L13.299 10.907L12.2112 11.2008L11.9883 11.4323C11.8679 11.5613 11.6138 11.8373 11.431 12.0465C11.2482 12.2513 11.0164 12.5139 10.9183 12.6252C10.5394 13.0525 10.5527 12.9234 10.789 13.7335C10.9005 14.1296 10.9896 14.4635 10.9807 14.4679C10.9584 14.4857 10.0356 15.0243 9.46489 15.3448C9.25089 15.465 9.0592 15.5629 9.0325 15.5629C9.0102 15.5629 8.9433 15.376 8.8854 15.149C8.7918 14.7973 8.7784 14.6371 8.7784 13.9828C8.7828 13.2928 8.7918 13.186 8.9077 12.781C9.1484 11.9263 9.563 11.2097 10.1604 10.6133C10.9807 9.79425 12.0596 9.29127 13.1563 9.2156C13.62 9.17999 13.5843 9.2156 13.6601 8.73043C13.6868 8.55684 13.7269 8.33873 13.7492 8.24081C13.7715 8.14288 13.7983 7.98264 13.8117 7.88472C13.8295 7.78679 13.8518 7.6399 13.8652 7.55978L13.8919 7.41735L13.4327 7.42625C13.1786 7.42625 12.8977 7.4396 12.813 7.44851Z" fill="#00D845"/>
</g>
<g filter="url(#filter1_d_3_91)">
<path d="M28.5 9.60607H31.4308L33.9173 15.341H34.0317L36.5182 9.60607H39.4502V18.8688H37.1455V13.1791H37.0636L34.7117 18.81H33.2385L30.8855 13.1475H30.8047V18.8688H28.5V9.60607ZM44.3547 19C43.5827 19 42.9196 18.8508 42.3653 18.5522C41.8132 18.2507 41.388 17.8316 41.0884 17.2948C40.7922 16.7551 40.6441 16.1295 40.6441 15.4179C40.6441 14.7033 40.7922 14.0776 41.0884 13.5409C41.388 13.0012 41.8132 12.5821 42.3653 12.2836C42.9196 11.9821 43.5827 11.8313 44.3547 11.8313C45.1256 11.8313 45.7876 11.9821 46.3385 12.2836C46.8928 12.5821 47.3192 13.0012 47.6154 13.5409C47.915 14.0776 48.0642 14.7033 48.0642 15.4179C48.0642 16.1295 47.915 16.7551 47.6154 17.2948C47.3192 17.8316 46.8928 18.2507 46.3385 18.5522C45.7876 18.8508 45.1256 19 44.3547 19ZM44.3682 17.331C44.6487 17.331 44.8866 17.2496 45.0807 17.0868C45.2759 16.924 45.424 16.6978 45.5261 16.4084C45.6305 16.1189 45.6832 15.7842 45.6832 15.4043C45.6832 15.0184 45.6305 14.6807 45.5261 14.3912C45.424 14.1017 45.2759 13.8757 45.0807 13.7127C44.8866 13.5499 44.6487 13.4685 44.3682 13.4685C44.0787 13.4685 43.833 13.5499 43.6321 13.7127C43.4346 13.8757 43.2831 14.1017 43.1777 14.3912C43.0756 14.6807 43.0251 15.0184 43.0251 15.4043C43.0251 15.7842 43.0756 16.1189 43.1777 16.4084C43.2831 16.6978 43.4346 16.924 43.6321 17.0868C43.833 17.2496 44.0787 17.331 44.3682 17.331ZM51.9454 18.9683C51.4035 18.9683 50.9109 18.8356 50.4677 18.5703C50.0245 18.3049 49.671 17.9069 49.4062 17.3762C49.1414 16.8456 49.009 16.1868 49.009 15.3998C49.009 14.5826 49.1459 13.9103 49.4208 13.3827C49.6946 12.855 50.0525 12.4645 50.4957 12.2112C50.9423 11.9579 51.4226 11.8313 51.9353 11.8313C52.3213 11.8313 52.6512 11.8946 52.925 12.0213C53.1988 12.1449 53.4254 12.3046 53.6038 12.5007C53.7823 12.6967 53.918 12.9002 54.01 13.1113H54.0583V9.60607H56.3967V18.8688H54.0818V17.7426H54.01C53.9113 17.9567 53.771 18.1572 53.5893 18.3442C53.4086 18.5311 53.1797 18.6819 52.9059 18.7964C52.6355 18.9111 52.3146 18.9683 51.9454 18.9683ZM52.7578 17.2452C53.0417 17.2452 53.2841 17.1697 53.4849 17.019C53.6858 16.8652 53.8395 16.6496 53.9483 16.3722C54.0572 16.0949 54.111 15.7691 54.111 15.3953C54.111 15.0153 54.0572 14.6882 53.9483 14.4139C53.8428 14.1394 53.6891 13.9284 53.4849 13.7807C53.2841 13.6329 53.0417 13.5591 52.7578 13.5591C52.4672 13.5591 52.2226 13.6344 52.0217 13.7851C51.8209 13.9359 51.6672 14.1485 51.5628 14.4229C51.4607 14.6973 51.4091 15.0214 51.4091 15.3953C51.4091 15.7691 51.4618 16.0949 51.5673 16.3722C51.6728 16.6496 51.8243 16.8652 52.0217 17.019C52.2226 17.1697 52.4672 17.2452 52.7578 17.2452ZM57.8755 18.8688V11.9217H60.1466V13.1881H60.2229C60.3564 12.7298 60.5752 12.3891 60.8782 12.166C61.1811 11.9399 61.5335 11.8268 61.9351 11.8268C62.0429 11.8268 62.1551 11.8344 62.2695 11.8494C62.384 11.8614 62.4906 11.8811 62.5893 11.9082V13.8303C62.4782 13.7941 62.3312 13.7656 62.1495 13.7445C61.9711 13.7234 61.8117 13.7127 61.6715 13.7127C61.3943 13.7127 61.1441 13.7715 60.9208 13.8891C60.7009 14.0038 60.527 14.1651 60.4002 14.3731C60.2756 14.5782 60.2139 14.8194 60.2139 15.0968V18.8688H57.8755ZM63.5419 18.8688V11.9217H65.8803V18.8688H63.5419ZM64.7145 11.1122C64.3857 11.1122 64.103 11.0097 63.8673 10.8046C63.6317 10.5966 63.5139 10.3463 63.5139 10.0538C63.5139 9.76436 63.6317 9.51711 63.8673 9.31208C64.103 9.10402 64.3857 9 64.7145 9C65.0455 9 65.3271 9.10402 65.5605 9.31208C65.7962 9.51711 65.914 9.76436 65.914 10.0538C65.914 10.3463 65.7962 10.5966 65.5605 10.8046C65.3271 11.0097 65.0455 11.1122 64.7145 11.1122ZM69.7065 14.9068V18.8688H67.3693V11.9217H69.5921V13.1971H69.674C69.8367 12.7721 70.1138 12.4389 70.5054 12.1977C70.8982 11.9534 71.3649 11.8313 71.9069 11.8313C72.423 11.8313 72.8708 11.9413 73.25 12.1615C73.6326 12.3785 73.9289 12.6831 74.1398 13.0751C74.353 13.4641 74.4585 13.9193 74.4551 14.4409V18.8688H72.1167V14.8751C72.1201 14.4892 72.0169 14.1877 71.8059 13.9705C71.5995 13.7535 71.31 13.6449 70.9408 13.6449C70.6951 13.6449 70.4785 13.6962 70.29 13.7987C70.106 13.8983 69.9624 14.0414 69.8603 14.2284C69.7615 14.4154 69.7099 14.6414 69.7065 14.9068ZM80.0486 11.9217V13.5499H75.4145V11.9217H80.0486ZM76.3862 10.2574H78.7234V16.6843C78.7234 16.82 78.7459 16.93 78.7907 17.0144C78.839 17.0958 78.9074 17.1546 78.9961 17.1908C79.0858 17.224 79.1924 17.2406 79.317 17.2406C79.4056 17.2406 79.4999 17.2331 79.5986 17.218C79.7007 17.1999 79.777 17.1848 79.8286 17.1728L80.1821 18.7693C80.071 18.7995 79.9128 18.8372 79.7086 18.8824C79.5077 18.9276 79.2676 18.9563 78.9871 18.9683C78.4384 18.9925 77.9683 18.9322 77.5767 18.7874C77.1873 18.6397 76.8888 18.4105 76.6824 18.1C76.4782 17.7894 76.3794 17.3989 76.3862 16.9285V10.2574ZM83.7368 14.9068V18.8688H81.3995V9.60607H83.6605V13.1971H83.7424C83.9073 12.769 84.1789 12.4343 84.5548 12.1931C84.934 11.952 85.3974 11.8313 85.9461 11.8313C86.4623 11.8313 86.9122 11.9399 87.2948 12.1569C87.6775 12.371 87.9737 12.6741 88.1835 13.0661C88.3978 13.458 88.5033 13.9163 88.4999 14.4409V18.8688H86.1615V14.8751C86.1649 14.4892 86.0628 14.1877 85.8552 13.9705C85.6477 13.7535 85.357 13.6449 84.98 13.6449C84.7354 13.6449 84.5177 13.6962 84.3304 13.7987C84.1452 13.8983 84.0005 14.0414 83.895 14.2284C83.7929 14.4154 83.7401 14.6414 83.7368 14.9068Z" fill="#00D845"/>
</g>
</g>
<path d="M90.8901 1H4.10987C2.39234 1 1 3.30616 1 6.15094V21.8491C1 24.6938 2.39234 27 4.10987 27H90.8901C92.6077 27 94 24.6938 94 21.8491V6.15094C94 3.30616 92.6077 1 90.8901 1Z" stroke="white" stroke-opacity="0.15" stroke-width="1.5"/>
</g>
<defs>
<filter id="filter0_d_3_91" x="-0.41539" y="-2.28882e-05" width="28" height="28" filterUnits="userSpaceOnUse" color-interpolation-filters="sRGB">
<feFlood flood-opacity="0" result="BackgroundImageFix"/>
<feColorMatrix in="SourceAlpha" type="matrix" values="0 0 0 0 0 0 0 0 0 0 0 0 0 0 0 0 0 0 127 0" result="hardAlpha"/>
<feOffset/>
<feGaussianBlur stdDeviation="2"/>
<feComposite in2="hardAlpha" operator="out"/>
<feColorMatrix type="matrix" values="0 0 0 0 0 0 0 0 0 0 0 0 0 0 0 0 0 0 0.25 0"/>
<feBlend mode="normal" in2="BackgroundImageFix" result="effect1_dropShadow_3_91"/>
<feBlend mode="normal" in="SourceGraphic" in2="effect1_dropShadow_3_91" result="shape"/>
</filter>
<filter id="filter1_d_3_91" x="24.5" y="5" width="68" height="18" filterUnits="userSpaceOnUse" color-interpolation-filters="sRGB">
<feFlood flood-opacity="0" result="BackgroundImageFix"/>
<feColorMatrix in="SourceAlpha" type="matrix" values="0 0 0 0 0 0 0 0 0 0 0 0 0 0 0 0 0 0 127 0" result="hardAlpha"/>
<feOffset/>
<feGaussianBlur stdDeviation="2"/>
<feComposite in2="hardAlpha" operator="out"/>
<feColorMatrix type="matrix" values="0 0 0 0 0 0 0 0 0 0 0 0 0 0 0 0 0 0 0.25 0"/>
<feBlend mode="normal" in2="BackgroundImageFix" result="effect1_dropShadow_3_91"/>
<feBlend mode="normal" in="SourceGraphic" in2="effect1_dropShadow_3_91" result="shape"/>
</filter>
<linearGradient id="paint0_linear_3_91" x1="47.5" y1="0" x2="47.5" y2="28" gradientUnits="userSpaceOnUse">
<stop stop-color="#072C13"/>
<stop offset="1" stop-color="#041C0B"/>
</linearGradient>
<clipPath id="clip0_3_91">
<rect width="95" height="28" fill="white"/>
</clipPath>
</defs>
</svg>
