<svg width="512" height="512" viewBox="0 0 512 512" fill="none" xmlns="http://www.w3.org/2000/svg">
<rect width="512" height="512" rx="100" fill="#FFB800"/>
<g filter="url(#filter0_d_1_4)">
<path d="M121.792 147.72C119.36 147.72 117.163 148.147 115.2 149C113.237 149.811 111.573 151.027 110.208 152.648C108.843 154.227 107.797 156.168 107.072 158.472C106.347 160.733 105.984 163.293 105.984 166.152C105.984 169.907 106.56 173.171 107.712 175.944C108.907 178.717 110.656 180.851 112.96 182.344C115.307 183.837 118.229 184.584 121.728 184.584C123.733 184.584 125.632 184.413 127.424 184.072C129.216 183.731 130.965 183.304 132.672 182.792V187.784C130.965 188.424 129.195 188.893 127.36 189.192C125.568 189.491 123.413 189.64 120.896 189.64C116.245 189.64 112.363 188.68 109.248 186.76C106.133 184.84 103.787 182.109 102.208 178.568C100.672 175.027 99.904 170.867 99.904 166.088C99.904 162.632 100.373 159.475 101.312 156.616C102.293 153.757 103.701 151.283 105.536 149.192C107.413 147.101 109.717 145.501 112.448 144.392C115.179 143.24 118.315 142.664 121.856 142.664C124.203 142.664 126.464 142.899 128.64 143.368C130.816 143.837 132.757 144.499 134.464 145.352L132.16 150.216C130.752 149.576 129.173 149 127.424 148.488C125.717 147.976 123.84 147.72 121.792 147.72ZM171.701 171.784C171.701 174.643 171.318 177.181 170.55 179.4C169.824 181.576 168.758 183.432 167.35 184.968C165.984 186.504 164.299 187.677 162.294 188.488C160.331 189.256 158.134 189.64 155.702 189.64C153.44 189.64 151.35 189.256 149.43 188.488C147.51 187.677 145.846 186.504 144.438 184.968C143.03 183.432 141.92 181.576 141.11 179.4C140.342 177.181 139.958 174.643 139.958 171.784C139.958 167.987 140.598 164.787 141.878 162.184C143.158 159.539 144.992 157.533 147.382 156.168C149.771 154.76 152.608 154.056 155.894 154.056C159.008 154.056 161.739 154.76 164.086 156.168C166.475 157.533 168.331 159.539 169.654 162.184C171.019 164.787 171.701 167.987 171.701 171.784ZM145.782 171.784C145.782 174.472 146.123 176.819 146.806 178.824C147.531 180.787 148.64 182.301 150.134 183.368C151.627 184.435 153.526 184.968 155.83 184.968C158.134 184.968 160.032 184.435 161.526 183.368C163.019 182.301 164.107 180.787 164.79 178.824C165.515 176.819 165.878 174.472 165.878 171.784C165.878 169.053 165.515 166.728 164.79 164.808C164.064 162.888 162.955 161.416 161.462 160.392C160.011 159.325 158.112 158.792 155.766 158.792C152.267 158.792 149.728 159.944 148.15 162.248C146.571 164.552 145.782 167.731 145.782 171.784ZM210.451 171.784C210.451 174.643 210.068 177.181 209.3 179.4C208.574 181.576 207.508 183.432 206.1 184.968C204.734 186.504 203.049 187.677 201.044 188.488C199.081 189.256 196.884 189.64 194.452 189.64C192.19 189.64 190.1 189.256 188.18 188.488C186.26 187.677 184.596 186.504 183.188 184.968C181.78 183.432 180.67 181.576 179.86 179.4C179.092 177.181 178.708 174.643 178.708 171.784C178.708 167.987 179.348 164.787 180.628 162.184C181.908 159.539 183.742 157.533 186.132 156.168C188.521 154.76 191.358 154.056 194.644 154.056C197.758 154.056 200.489 154.76 202.836 156.168C205.225 157.533 207.081 159.539 208.404 162.184C209.769 164.787 210.451 167.987 210.451 171.784ZM184.532 171.784C184.532 174.472 184.873 176.819 185.556 178.824C186.281 180.787 187.39 182.301 188.884 183.368C190.377 184.435 192.276 184.968 194.58 184.968C196.884 184.968 198.782 184.435 200.276 183.368C201.769 182.301 202.857 180.787 203.54 178.824C204.265 176.819 204.628 174.472 204.628 171.784C204.628 169.053 204.265 166.728 203.54 164.808C202.814 162.888 201.705 161.416 200.212 160.392C198.761 159.325 196.862 158.792 194.516 158.792C191.017 158.792 188.478 159.944 186.9 162.248C185.321 164.552 184.532 167.731 184.532 171.784ZM217.586 168.392C217.586 163.4 218.076 159.155 219.058 155.656C220.082 152.115 221.639 149.299 223.73 147.208C225.863 145.075 228.594 143.645 231.922 142.92C234.695 142.323 237.404 141.789 240.05 141.32C242.695 140.851 245.17 140.424 247.474 140.04L248.434 144.968C247.324 145.139 246.087 145.352 244.722 145.608C243.356 145.821 241.97 146.056 240.562 146.312C239.154 146.525 237.788 146.76 236.466 147.016C235.186 147.229 234.055 147.443 233.074 147.656C231.666 147.955 230.407 148.467 229.298 149.192C228.188 149.875 227.228 150.813 226.418 152.008C225.65 153.203 225.031 154.675 224.562 156.424C224.092 158.173 223.815 160.243 223.73 162.632H224.114C224.711 161.821 225.522 160.989 226.546 160.136C227.612 159.283 228.871 158.557 230.322 157.96C231.815 157.363 233.5 157.064 235.378 157.064C238.364 157.064 240.839 157.725 242.802 159.048C244.807 160.328 246.3 162.12 247.282 164.424C248.306 166.728 248.818 169.416 248.818 172.488C248.818 176.285 248.156 179.464 246.833 182.024C245.511 184.584 243.676 186.504 241.33 187.784C238.983 189.021 236.252 189.64 233.138 189.64C230.791 189.64 228.658 189.192 226.738 188.296C224.818 187.357 223.175 185.992 221.81 184.2C220.444 182.408 219.399 180.189 218.674 177.544C217.948 174.899 217.586 171.848 217.586 168.392ZM233.586 184.968C235.463 184.968 237.084 184.584 238.45 183.816C239.858 183.048 240.946 181.789 241.714 180.04C242.482 178.291 242.866 175.965 242.866 173.064C242.866 169.565 242.204 166.813 240.882 164.808C239.602 162.76 237.468 161.736 234.482 161.736C232.604 161.736 230.898 162.163 229.362 163.016C227.826 163.827 226.546 164.765 225.522 165.832C224.498 166.899 223.772 167.795 223.345 168.52C223.345 170.611 223.495 172.637 223.794 174.6C224.092 176.563 224.604 178.333 225.33 179.912C226.098 181.448 227.143 182.685 228.466 183.624C229.831 184.52 231.538 184.968 233.586 184.968ZM304.154 154.696V184.328H309.146V200.84H303.514V189H257.69V154.696H263.322V184.264H278.106V154.696H283.738V184.264H298.586V154.696H304.154ZM321.002 175.624C321.002 176.008 320.981 176.563 320.938 177.288C320.938 177.971 320.917 178.717 320.874 179.528C320.831 180.296 320.789 181.043 320.746 181.768C320.703 182.451 320.661 183.005 320.618 183.432L338.986 154.696H345.898V189H340.65V168.776C340.65 168.093 340.65 167.197 340.65 166.088C340.693 164.979 340.735 163.891 340.778 162.824C340.821 161.715 340.863 160.883 340.906 160.328L322.666 189H315.69V154.696H321.002V175.624ZM380.495 159.432H369.295V189H363.727V159.432H352.655V154.696H380.495V159.432ZM403.061 168.776C406.047 168.776 408.522 169.139 410.485 169.864C412.447 170.589 413.919 171.677 414.901 173.128C415.925 174.536 416.437 176.328 416.437 178.504C416.437 180.637 415.946 182.493 414.965 184.072C414.026 185.651 412.554 186.867 410.549 187.72C408.543 188.573 405.962 189 402.805 189H387.253V154.696H392.885V168.776H403.061ZM410.805 178.824C410.805 176.733 410.058 175.325 408.565 174.6C407.114 173.832 405.066 173.448 402.421 173.448H392.885V184.456H402.549C404.938 184.456 406.901 184.029 408.437 183.176C410.015 182.323 410.805 180.872 410.805 178.824ZM251.264 246.784C251.264 249.643 250.88 252.181 250.112 254.4C249.387 256.576 248.32 258.432 246.912 259.968C245.547 261.504 243.861 262.677 241.856 263.488C239.893 264.256 237.696 264.64 235.264 264.64C233.003 264.64 230.912 264.256 228.992 263.488C227.072 262.677 225.408 261.504 224 259.968C222.592 258.432 221.483 256.576 220.672 254.4C219.904 252.181 219.52 249.643 219.52 246.784C219.52 242.987 220.16 239.787 221.44 237.184C222.72 234.539 224.555 232.533 226.944 231.168C229.333 229.76 232.171 229.056 235.456 229.056C238.571 229.056 241.301 229.76 243.648 231.168C246.037 232.533 247.893 234.539 249.216 237.184C250.581 239.787 251.264 242.987 251.264 246.784ZM225.344 246.784C225.344 249.472 225.685 251.819 226.368 253.824C227.093 255.787 228.203 257.301 229.696 258.368C231.189 259.435 233.088 259.968 235.392 259.968C237.696 259.968 239.595 259.435 241.088 258.368C242.581 257.301 243.669 255.787 244.352 253.824C245.077 251.819 245.44 249.472 245.44 246.784C245.44 244.053 245.077 241.728 244.352 239.808C243.627 237.888 242.517 236.416 241.024 235.392C239.573 234.325 237.675 233.792 235.328 233.792C231.829 233.792 229.291 234.944 227.712 237.248C226.133 239.552 225.344 242.731 225.344 246.784ZM130.432 304.696V339H124.8V309.496H107.072V339H101.44V304.696H130.432ZM157.698 304.056C161.922 304.056 165.314 305.528 167.874 308.472C170.476 311.416 171.778 315.853 171.778 321.784C171.778 325.667 171.18 328.952 169.986 331.64C168.833 334.285 167.191 336.291 165.058 337.656C162.967 338.979 160.492 339.64 157.634 339.64C155.884 339.64 154.327 339.405 152.962 338.936C151.596 338.467 150.423 337.869 149.442 337.144C148.503 336.376 147.692 335.544 147.01 334.648H146.626C146.711 335.373 146.796 336.291 146.882 337.4C146.967 338.509 147.01 339.469 147.01 340.28V354.36H141.378V304.696H145.986L146.754 309.368H147.01C147.692 308.387 148.503 307.491 149.442 306.68C150.423 305.869 151.575 305.229 152.898 304.76C154.263 304.291 155.863 304.056 157.698 304.056ZM156.674 308.792C154.37 308.792 152.514 309.24 151.106 310.136C149.698 310.989 148.674 312.291 148.034 314.04C147.394 315.789 147.052 318.008 147.01 320.696V321.784C147.01 324.6 147.308 326.989 147.906 328.952C148.503 330.915 149.506 332.408 150.914 333.432C152.364 334.456 154.327 334.968 156.802 334.968C158.892 334.968 160.599 334.392 161.922 333.24C163.287 332.088 164.29 330.531 164.93 328.568C165.612 326.563 165.954 324.28 165.954 321.72C165.954 317.795 165.186 314.659 163.65 312.312C162.156 309.965 159.831 308.792 156.674 308.792ZM210.576 321.784C210.576 324.643 210.193 327.181 209.425 329.4C208.699 331.576 207.633 333.432 206.225 334.968C204.859 336.504 203.174 337.677 201.169 338.488C199.206 339.256 197.009 339.64 194.577 339.64C192.315 339.64 190.225 339.256 188.305 338.488C186.385 337.677 184.721 336.504 183.312 334.968C181.905 333.432 180.795 331.576 179.985 329.4C179.217 327.181 178.833 324.643 178.833 321.784C178.833 317.987 179.473 314.787 180.753 312.184C182.033 309.539 183.867 307.533 186.257 306.168C188.646 304.76 191.483 304.056 194.769 304.056C197.883 304.056 200.614 304.76 202.961 306.168C205.35 307.533 207.206 309.539 208.529 312.184C209.894 314.787 210.576 317.987 210.576 321.784ZM184.657 321.784C184.657 324.472 184.998 326.819 185.681 328.824C186.406 330.787 187.515 332.301 189.009 333.368C190.502 334.435 192.401 334.968 194.705 334.968C197.009 334.968 198.907 334.435 200.401 333.368C201.894 332.301 202.982 330.787 203.665 328.824C204.39 326.819 204.753 324.472 204.753 321.784C204.753 319.053 204.39 316.728 203.665 314.808C202.939 312.888 201.83 311.416 200.337 310.392C198.886 309.325 196.987 308.792 194.641 308.792C191.142 308.792 188.603 309.944 187.025 312.248C185.446 314.552 184.657 317.731 184.657 321.784ZM217.711 318.392C217.711 313.4 218.201 309.155 219.183 305.656C220.207 302.115 221.764 299.299 223.855 297.208C225.988 295.075 228.719 293.645 232.047 292.92C234.82 292.323 237.529 291.789 240.175 291.32C242.82 290.851 245.295 290.424 247.599 290.04L248.559 294.968C247.449 295.139 246.212 295.352 244.847 295.608C243.481 295.821 242.095 296.056 240.687 296.312C239.279 296.525 237.913 296.76 236.591 297.016C235.311 297.229 234.18 297.443 233.199 297.656C231.791 297.955 230.532 298.467 229.423 299.192C228.313 299.875 227.353 300.813 226.543 302.008C225.775 303.203 225.156 304.675 224.687 306.424C224.217 308.173 223.94 310.243 223.855 312.632H224.239C224.836 311.821 225.647 310.989 226.671 310.136C227.737 309.283 228.996 308.557 230.447 307.96C231.94 307.363 233.625 307.064 235.503 307.064C238.489 307.064 240.964 307.725 242.927 309.048C244.932 310.328 246.425 312.12 247.407 314.424C248.431 316.728 248.943 319.416 248.943 322.488C248.943 326.285 248.281 329.464 246.958 332.024C245.636 334.584 243.801 336.504 241.455 337.784C239.108 339.021 236.377 339.64 233.263 339.64C230.916 339.64 228.783 339.192 226.863 338.296C224.943 337.357 223.3 335.992 221.935 334.2C220.569 332.408 219.524 330.189 218.799 327.544C218.073 324.899 217.711 321.848 217.711 318.392ZM233.711 334.968C235.588 334.968 237.209 334.584 238.575 333.816C239.983 333.048 241.071 331.789 241.839 330.04C242.607 328.291 242.991 325.965 242.991 323.064C242.991 319.565 242.329 316.813 241.007 314.808C239.727 312.76 237.593 311.736 234.607 311.736C232.729 311.736 231.023 312.163 229.487 313.016C227.951 313.827 226.671 314.765 225.647 315.832C224.623 316.899 223.897 317.795 223.47 318.52C223.47 320.611 223.62 322.637 223.919 324.6C224.217 326.563 224.729 328.333 225.455 329.912C226.223 331.448 227.268 332.685 228.591 333.624C229.956 334.52 231.663 334.968 233.711 334.968ZM283.927 339H278.231V309.368H268.119C267.692 314.787 267.159 319.416 266.519 323.256C265.879 327.053 265.068 330.147 264.087 332.536C263.106 334.925 261.932 336.675 260.567 337.784C259.202 338.893 257.602 339.448 255.767 339.448C255.212 339.448 254.658 339.405 254.103 339.32C253.591 339.277 253.164 339.171 252.823 339V334.776C253.079 334.861 253.356 334.925 253.655 334.968C253.954 335.011 254.252 335.032 254.551 335.032C255.49 335.032 256.343 334.648 257.111 333.88C257.879 333.112 258.562 331.939 259.159 330.36C259.799 328.781 260.375 326.797 260.887 324.408C261.399 321.976 261.847 319.117 262.231 315.832C262.615 312.547 262.956 308.835 263.255 304.696H283.927V339ZM308.063 304.056C311.007 304.056 313.524 304.696 315.615 305.976C317.748 307.256 319.37 309.069 320.479 311.416C321.631 313.72 322.207 316.429 322.207 319.544V322.936H298.719C298.804 326.819 299.786 329.784 301.663 331.832C303.583 333.837 306.25 334.84 309.663 334.84C311.839 334.84 313.759 334.648 315.423 334.264C317.13 333.837 318.879 333.24 320.671 332.472V337.4C318.922 338.168 317.194 338.723 315.487 339.064C313.78 339.448 311.754 339.64 309.407 339.64C306.164 339.64 303.284 338.979 300.767 337.656C298.292 336.333 296.351 334.371 294.943 331.768C293.578 329.123 292.895 325.901 292.895 322.104C292.895 318.349 293.514 315.128 294.751 312.44C296.031 309.752 297.802 307.683 300.063 306.232C302.367 304.781 305.034 304.056 308.063 304.056ZM307.999 308.664C305.311 308.664 303.178 309.539 301.599 311.288C300.063 312.995 299.146 315.384 298.847 318.456H316.319C316.319 316.493 316.02 314.787 315.423 313.336C314.826 311.885 313.908 310.755 312.671 309.944C311.476 309.091 309.919 308.664 307.999 308.664ZM367.74 304.696V339H362.684V317.112C362.684 316.216 362.705 315.277 362.748 314.296C362.833 313.315 362.919 312.355 363.004 311.416H362.812L351.612 339H346.876L335.996 311.416H335.804C335.889 312.355 335.932 313.315 335.932 314.296C335.975 315.277 335.996 316.28 335.996 317.304V339H330.94V304.696H338.428L349.244 332.28L360.252 304.696H367.74ZM391.682 304.12C395.863 304.12 398.957 305.037 400.962 306.872C402.967 308.707 403.97 311.629 403.97 315.64V339H399.874L398.786 334.136H398.53C397.549 335.373 396.525 336.419 395.458 337.272C394.434 338.083 393.239 338.68 391.874 339.064C390.551 339.448 388.93 339.64 387.01 339.64C384.962 339.64 383.106 339.277 381.442 338.552C379.821 337.827 378.541 336.717 377.602 335.224C376.663 333.688 376.194 331.768 376.194 329.464C376.194 326.051 377.538 323.427 380.226 321.592C382.914 319.715 387.053 318.691 392.642 318.52L398.466 318.328V316.28C398.466 313.421 397.847 311.437 396.61 310.328C395.373 309.219 393.623 308.664 391.362 308.664C389.57 308.664 387.863 308.941 386.242 309.496C384.621 310.008 383.106 310.605 381.698 311.288L379.97 307.064C381.463 306.253 383.234 305.571 385.282 305.016C387.33 304.419 389.463 304.12 391.682 304.12ZM393.346 322.424C389.079 322.595 386.114 323.277 384.45 324.472C382.829 325.667 382.018 327.352 382.018 329.528C382.018 331.448 382.594 332.856 383.746 333.752C384.941 334.648 386.455 335.096 388.29 335.096C391.191 335.096 393.602 334.307 395.522 332.728C397.442 331.107 398.402 328.632 398.402 325.304V322.232L393.346 322.424ZM422.693 321.464L410.853 304.696H417.253L426.085 317.624L434.853 304.696H441.189L429.349 321.464L441.829 339H435.429L426.085 325.304L416.613 339H410.277L422.693 321.464Z" fill="white"/>
</g>
<defs>
<filter id="filter0_d_1_4" x="95.904" y="140.04" width="349.925" height="222.32" filterUnits="userSpaceOnUse" color-interpolation-filters="sRGB">
<feFlood flood-opacity="0" result="BackgroundImageFix"/>
<feColorMatrix in="SourceAlpha" type="matrix" values="0 0 0 0 0 0 0 0 0 0 0 0 0 0 0 0 0 0 127 0" result="hardAlpha"/>
<feOffset dy="4"/>
<feGaussianBlur stdDeviation="2"/>
<feComposite in2="hardAlpha" operator="out"/>
<feColorMatrix type="matrix" values="0 0 0 0 0 0 0 0 0 0 0 0 0 0 0 0 0 0 0.25 0"/>
<feBlend mode="normal" in2="BackgroundImageFix" result="effect1_dropShadow_1_4"/>
<feBlend mode="normal" in="SourceGraphic" in2="effect1_dropShadow_1_4" result="shape"/>
</filter>
</defs>
</svg>
