<svg width="512" height="512" viewBox="0 0 512 512" fill="none" xmlns="http://www.w3.org/2000/svg">
<rect width="512" height="512" rx="100" fill="#FFB800"/>
<g filter="url(#filter0_d_1_4)">
<path d="M124.792 183.72C122.36 183.72 120.163 184.147 118.2 185C116.237 185.811 114.573 187.027 113.208 188.648C111.843 190.227 110.797 192.168 110.072 194.472C109.347 196.733 108.984 199.293 108.984 202.152C108.984 205.907 109.56 209.171 110.712 211.944C111.907 214.717 113.656 216.851 115.96 218.344C118.307 219.837 121.229 220.584 124.728 220.584C126.733 220.584 128.632 220.413 130.424 220.072C132.216 219.731 133.965 219.304 135.672 218.792V223.784C133.965 224.424 132.195 224.893 130.36 225.192C128.568 225.491 126.413 225.64 123.896 225.64C119.245 225.64 115.363 224.68 112.248 222.76C109.133 220.84 106.787 218.109 105.208 214.568C103.672 211.027 102.904 206.867 102.904 202.088C102.904 198.632 103.373 195.475 104.312 192.616C105.293 189.757 106.701 187.283 108.536 185.192C110.413 183.101 112.717 181.501 115.448 180.392C118.179 179.24 121.315 178.664 124.856 178.664C127.203 178.664 129.464 178.899 131.64 179.368C133.816 179.837 135.757 180.499 137.464 181.352L135.16 186.216C133.752 185.576 132.173 185 130.424 184.488C128.717 183.976 126.84 183.72 124.792 183.72ZM174.701 207.784C174.701 210.643 174.318 213.181 173.55 215.4C172.824 217.576 171.758 219.432 170.35 220.968C168.984 222.504 167.299 223.677 165.294 224.488C163.331 225.256 161.134 225.64 158.702 225.64C156.44 225.64 154.35 225.256 152.43 224.488C150.51 223.677 148.846 222.504 147.438 220.968C146.03 219.432 144.92 217.576 144.11 215.4C143.342 213.181 142.958 210.643 142.958 207.784C142.958 203.987 143.598 200.787 144.878 198.184C146.158 195.539 147.992 193.533 150.382 192.168C152.771 190.76 155.608 190.056 158.894 190.056C162.008 190.056 164.739 190.76 167.086 192.168C169.475 193.533 171.331 195.539 172.654 198.184C174.019 200.787 174.701 203.987 174.701 207.784ZM148.782 207.784C148.782 210.472 149.123 212.819 149.806 214.824C150.531 216.787 151.64 218.301 153.134 219.368C154.627 220.435 156.526 220.968 158.83 220.968C161.134 220.968 163.032 220.435 164.526 219.368C166.019 218.301 167.107 216.787 167.79 214.824C168.515 212.819 168.878 210.472 168.878 207.784C168.878 205.053 168.515 202.728 167.79 200.808C167.064 198.888 165.955 197.416 164.462 196.392C163.011 195.325 161.112 194.792 158.766 194.792C155.267 194.792 152.728 195.944 151.15 198.248C149.571 200.552 148.782 203.731 148.782 207.784ZM213.451 207.784C213.451 210.643 213.068 213.181 212.3 215.4C211.574 217.576 210.508 219.432 209.1 220.968C207.734 222.504 206.049 223.677 204.044 224.488C202.081 225.256 199.884 225.64 197.452 225.64C195.19 225.64 193.1 225.256 191.18 224.488C189.26 223.677 187.596 222.504 186.188 220.968C184.78 219.432 183.67 217.576 182.86 215.4C182.092 213.181 181.708 210.643 181.708 207.784C181.708 203.987 182.348 200.787 183.628 198.184C184.908 195.539 186.742 193.533 189.132 192.168C191.521 190.76 194.358 190.056 197.644 190.056C200.758 190.056 203.489 190.76 205.836 192.168C208.225 193.533 210.081 195.539 211.404 198.184C212.769 200.787 213.451 203.987 213.451 207.784ZM187.532 207.784C187.532 210.472 187.873 212.819 188.556 214.824C189.281 216.787 190.39 218.301 191.884 219.368C193.377 220.435 195.276 220.968 197.58 220.968C199.884 220.968 201.782 220.435 203.276 219.368C204.769 218.301 205.857 216.787 206.54 214.824C207.265 212.819 207.628 210.472 207.628 207.784C207.628 205.053 207.265 202.728 206.54 200.808C205.814 198.888 204.705 197.416 203.212 196.392C201.761 195.325 199.862 194.792 197.516 194.792C194.017 194.792 191.478 195.944 189.9 198.248C188.321 200.552 187.532 203.731 187.532 207.784ZM220.586 204.392C220.586 199.4 221.076 195.155 222.058 191.656C223.082 188.115 224.639 185.299 226.73 183.208C228.863 181.075 231.594 179.645 234.922 178.92C237.695 178.323 240.404 177.789 243.05 177.32C245.695 176.851 248.17 176.424 250.474 176.04L251.434 180.968C250.324 181.139 249.087 181.352 247.722 181.608C246.356 181.821 244.97 182.056 243.562 182.312C242.154 182.525 240.788 182.76 239.466 183.016C238.186 183.229 237.055 183.443 236.074 183.656C234.666 183.955 233.407 184.467 232.298 185.192C231.188 185.875 230.228 186.813 229.418 188.008C228.65 189.203 228.031 190.675 227.562 192.424C227.092 194.173 226.815 196.243 226.73 198.632H227.114C227.711 197.821 228.522 196.989 229.546 196.136C230.612 195.283 231.871 194.557 233.322 193.96C234.815 193.363 236.5 193.064 238.378 193.064C241.364 193.064 243.839 193.725 245.802 195.048C247.807 196.328 249.3 198.12 250.282 200.424C251.306 202.728 251.818 205.416 251.818 208.488C251.818 212.285 251.156 215.464 249.833 218.024C248.511 220.584 246.676 222.504 244.33 223.784C241.983 225.021 239.252 225.64 236.138 225.64C233.791 225.64 231.658 225.192 229.738 224.296C227.818 223.357 226.175 221.992 224.81 220.2C223.444 218.408 222.399 216.189 221.674 213.544C220.948 210.899 220.586 207.848 220.586 204.392ZM236.586 220.968C238.463 220.968 240.084 220.584 241.45 219.816C242.858 219.048 243.946 217.789 244.714 216.04C245.482 214.291 245.866 211.965 245.866 209.064C245.866 205.565 245.204 202.813 243.882 200.808C242.602 198.76 240.468 197.736 237.482 197.736C235.604 197.736 233.898 198.163 232.362 199.016C230.826 199.827 229.546 200.765 228.522 201.832C227.498 202.899 226.772 203.795 226.345 204.52C226.345 206.611 226.495 208.637 226.794 210.6C227.092 212.563 227.604 214.333 228.33 215.912C229.098 217.448 230.143 218.685 231.466 219.624C232.831 220.52 234.538 220.968 236.586 220.968ZM307.154 190.696V220.328H312.146V236.84H306.514V225H260.69V190.696H266.322V220.264H281.106V190.696H286.738V220.264H301.586V190.696H307.154ZM324.002 211.624C324.002 212.008 323.981 212.563 323.938 213.288C323.938 213.971 323.917 214.717 323.874 215.528C323.831 216.296 323.789 217.043 323.746 217.768C323.703 218.451 323.661 219.005 323.618 219.432L341.986 190.696H348.898V225H343.65V204.776C343.65 204.093 343.65 203.197 343.65 202.088C343.693 200.979 343.735 199.891 343.778 198.824C343.821 197.715 343.863 196.883 343.906 196.328L325.666 225H318.69V190.696H324.002V211.624ZM383.495 195.432H372.295V225H366.727V195.432H355.655V190.696H383.495V195.432ZM406.061 204.776C409.047 204.776 411.522 205.139 413.485 205.864C415.447 206.589 416.919 207.677 417.901 209.128C418.925 210.536 419.437 212.328 419.437 214.504C419.437 216.637 418.946 218.493 417.965 220.072C417.026 221.651 415.554 222.867 413.549 223.72C411.543 224.573 408.962 225 405.805 225H390.253V190.696H395.885V204.776H406.061ZM413.805 214.824C413.805 212.733 413.058 211.325 411.565 210.6C410.114 209.832 408.066 209.448 405.421 209.448H395.885V220.456H405.549C407.938 220.456 409.901 220.029 411.437 219.176C413.015 218.323 413.805 216.872 413.805 214.824ZM133.432 265.696V300H127.8V270.496H110.072V300H104.44V265.696H133.432ZM160.698 265.056C164.922 265.056 168.314 266.528 170.874 269.472C173.476 272.416 174.778 276.853 174.778 282.784C174.778 286.667 174.18 289.952 172.986 292.64C171.833 295.285 170.191 297.291 168.058 298.656C165.967 299.979 163.492 300.64 160.634 300.64C158.884 300.64 157.327 300.405 155.962 299.936C154.596 299.467 153.423 298.869 152.442 298.144C151.503 297.376 150.692 296.544 150.01 295.648H149.626C149.711 296.373 149.796 297.291 149.882 298.4C149.967 299.509 150.01 300.469 150.01 301.28V315.36H144.378V265.696H148.986L149.754 270.368H150.01C150.692 269.387 151.503 268.491 152.442 267.68C153.423 266.869 154.575 266.229 155.898 265.76C157.263 265.291 158.863 265.056 160.698 265.056ZM159.674 269.792C157.37 269.792 155.514 270.24 154.106 271.136C152.698 271.989 151.674 273.291 151.034 275.04C150.394 276.789 150.052 279.008 150.01 281.696V282.784C150.01 285.6 150.308 287.989 150.906 289.952C151.503 291.915 152.506 293.408 153.914 294.432C155.364 295.456 157.327 295.968 159.802 295.968C161.892 295.968 163.599 295.392 164.922 294.24C166.287 293.088 167.29 291.531 167.93 289.568C168.612 287.563 168.954 285.28 168.954 282.72C168.954 278.795 168.186 275.659 166.65 273.312C165.156 270.965 162.831 269.792 159.674 269.792ZM213.576 282.784C213.576 285.643 213.193 288.181 212.425 290.4C211.699 292.576 210.633 294.432 209.225 295.968C207.859 297.504 206.174 298.677 204.169 299.488C202.206 300.256 200.009 300.64 197.577 300.64C195.315 300.64 193.225 300.256 191.305 299.488C189.385 298.677 187.721 297.504 186.312 295.968C184.905 294.432 183.795 292.576 182.985 290.4C182.217 288.181 181.833 285.643 181.833 282.784C181.833 278.987 182.473 275.787 183.753 273.184C185.033 270.539 186.867 268.533 189.257 267.168C191.646 265.76 194.483 265.056 197.769 265.056C200.883 265.056 203.614 265.76 205.961 267.168C208.35 268.533 210.206 270.539 211.529 273.184C212.894 275.787 213.576 278.987 213.576 282.784ZM187.657 282.784C187.657 285.472 187.998 287.819 188.681 289.824C189.406 291.787 190.515 293.301 192.009 294.368C193.502 295.435 195.401 295.968 197.705 295.968C200.009 295.968 201.907 295.435 203.401 294.368C204.894 293.301 205.982 291.787 206.665 289.824C207.39 287.819 207.753 285.472 207.753 282.784C207.753 280.053 207.39 277.728 206.665 275.808C205.939 273.888 204.83 272.416 203.337 271.392C201.886 270.325 199.987 269.792 197.641 269.792C194.142 269.792 191.603 270.944 190.025 273.248C188.446 275.552 187.657 278.731 187.657 282.784ZM220.711 279.392C220.711 274.4 221.201 270.155 222.183 266.656C223.207 263.115 224.764 260.299 226.855 258.208C228.988 256.075 231.719 254.645 235.047 253.92C237.82 253.323 240.529 252.789 243.175 252.32C245.82 251.851 248.295 251.424 250.599 251.04L251.559 255.968C250.449 256.139 249.212 256.352 247.847 256.608C246.481 256.821 245.095 257.056 243.687 257.312C242.279 257.525 240.913 257.76 239.591 258.016C238.311 258.229 237.18 258.443 236.199 258.656C234.791 258.955 233.532 259.467 232.423 260.192C231.313 260.875 230.353 261.813 229.543 263.008C228.775 264.203 228.156 265.675 227.687 267.424C227.217 269.173 226.94 271.243 226.855 273.632H227.239C227.836 272.821 228.647 271.989 229.671 271.136C230.737 270.283 231.996 269.557 233.447 268.96C234.94 268.363 236.625 268.064 238.503 268.064C241.489 268.064 243.964 268.725 245.927 270.048C247.932 271.328 249.425 273.12 250.407 275.424C251.431 277.728 251.943 280.416 251.943 283.488C251.943 287.285 251.281 290.464 249.958 293.024C248.636 295.584 246.801 297.504 244.455 298.784C242.108 300.021 239.377 300.64 236.263 300.64C233.916 300.64 231.783 300.192 229.863 299.296C227.943 298.357 226.3 296.992 224.935 295.2C223.569 293.408 222.524 291.189 221.799 288.544C221.073 285.899 220.711 282.848 220.711 279.392ZM236.711 295.968C238.588 295.968 240.209 295.584 241.575 294.816C242.983 294.048 244.071 292.789 244.839 291.04C245.607 289.291 245.991 286.965 245.991 284.064C245.991 280.565 245.329 277.813 244.007 275.808C242.727 273.76 240.593 272.736 237.607 272.736C235.729 272.736 234.023 273.163 232.487 274.016C230.951 274.827 229.671 275.765 228.647 276.832C227.623 277.899 226.897 278.795 226.47 279.52C226.47 281.611 226.62 283.637 226.919 285.6C227.217 287.563 227.729 289.333 228.455 290.912C229.223 292.448 230.268 293.685 231.591 294.624C232.956 295.52 234.663 295.968 236.711 295.968ZM286.927 300H281.231V270.368H271.119C270.692 275.787 270.159 280.416 269.519 284.256C268.879 288.053 268.068 291.147 267.087 293.536C266.106 295.925 264.932 297.675 263.567 298.784C262.202 299.893 260.602 300.448 258.767 300.448C258.212 300.448 257.658 300.405 257.103 300.32C256.591 300.277 256.164 300.171 255.823 300V295.776C256.079 295.861 256.356 295.925 256.655 295.968C256.954 296.011 257.252 296.032 257.551 296.032C258.49 296.032 259.343 295.648 260.111 294.88C260.879 294.112 261.562 292.939 262.159 291.36C262.799 289.781 263.375 287.797 263.887 285.408C264.399 282.976 264.847 280.117 265.231 276.832C265.615 273.547 265.956 269.835 266.255 265.696H286.927V300ZM311.063 265.056C314.007 265.056 316.524 265.696 318.615 266.976C320.748 268.256 322.37 270.069 323.479 272.416C324.631 274.72 325.207 277.429 325.207 280.544V283.936H301.719C301.804 287.819 302.786 290.784 304.663 292.832C306.583 294.837 309.25 295.84 312.663 295.84C314.839 295.84 316.759 295.648 318.423 295.264C320.13 294.837 321.879 294.24 323.671 293.472V298.4C321.922 299.168 320.194 299.723 318.487 300.064C316.78 300.448 314.754 300.64 312.407 300.64C309.164 300.64 306.284 299.979 303.767 298.656C301.292 297.333 299.351 295.371 297.943 292.768C296.578 290.123 295.895 286.901 295.895 283.104C295.895 279.349 296.514 276.128 297.751 273.44C299.031 270.752 300.802 268.683 303.063 267.232C305.367 265.781 308.034 265.056 311.063 265.056ZM310.999 269.664C308.311 269.664 306.178 270.539 304.599 272.288C303.063 273.995 302.146 276.384 301.847 279.456H319.319C319.319 277.493 319.02 275.787 318.423 274.336C317.826 272.885 316.908 271.755 315.671 270.944C314.476 270.091 312.919 269.664 310.999 269.664ZM370.74 265.696V300H365.684V278.112C365.684 277.216 365.705 276.277 365.748 275.296C365.833 274.315 365.919 273.355 366.004 272.416H365.812L354.612 300H349.876L338.996 272.416H338.804C338.889 273.355 338.932 274.315 338.932 275.296C338.975 276.277 338.996 277.28 338.996 278.304V300H333.94V265.696H341.428L352.244 293.28L363.252 265.696H370.74ZM376.314 265.696H382.33L389.754 285.216C390.181 286.368 390.565 287.477 390.906 288.544C391.29 289.611 391.631 290.656 391.93 291.68C392.229 292.661 392.463 293.621 392.634 294.56H392.89C393.146 293.493 393.551 292.107 394.106 290.4C394.661 288.651 395.237 286.901 395.834 285.152L402.81 265.696H408.89L394.106 304.736C393.295 306.869 392.335 308.725 391.226 310.304C390.159 311.925 388.837 313.163 387.258 314.016C385.722 314.912 383.845 315.36 381.626 315.36C380.602 315.36 379.706 315.296 378.938 315.168C378.17 315.083 377.509 314.976 376.954 314.848V310.368C377.423 310.453 377.978 310.539 378.618 310.624C379.301 310.709 380.005 310.752 380.73 310.752C382.053 310.752 383.183 310.496 384.122 309.984C385.103 309.515 385.935 308.811 386.618 307.872C387.301 306.976 387.877 305.909 388.346 304.672L390.138 300.128L376.314 265.696Z" fill="white"/>
</g>
<defs>
<filter id="filter0_d_1_4" x="98.904" y="176.04" width="324.533" height="147.32" filterUnits="userSpaceOnUse" color-interpolation-filters="sRGB">
<feFlood flood-opacity="0" result="BackgroundImageFix"/>
<feColorMatrix in="SourceAlpha" type="matrix" values="0 0 0 0 0 0 0 0 0 0 0 0 0 0 0 0 0 0 127 0" result="hardAlpha"/>
<feOffset dy="4"/>
<feGaussianBlur stdDeviation="2"/>
<feComposite in2="hardAlpha" operator="out"/>
<feColorMatrix type="matrix" values="0 0 0 0 0 0 0 0 0 0 0 0 0 0 0 0 0 0 0.25 0"/>
<feBlend mode="normal" in2="BackgroundImageFix" result="effect1_dropShadow_1_4"/>
<feBlend mode="normal" in="SourceGraphic" in2="effect1_dropShadow_1_4" result="shape"/>
</filter>
</defs>
</svg>
