<svg width="512" height="512" viewBox="0 0 512 512" fill="none" xmlns="http://www.w3.org/2000/svg">
<rect width="512" height="512" rx="100" fill="#336E22"/>
<g filter="url(#filter0_d_1_4)">
<path d="M74.958 225V179.304H109.262V225H103.566V184.36H80.718V225H74.958ZM150.826 207.784C150.826 210.643 150.443 213.181 149.675 215.4C148.949 217.576 147.883 219.432 146.475 220.968C145.109 222.504 143.424 223.677 141.419 224.488C139.456 225.256 137.259 225.64 134.827 225.64C132.565 225.64 130.475 225.256 128.555 224.488C126.635 223.677 124.971 222.504 123.562 220.968C122.155 219.432 121.045 217.576 120.235 215.4C119.467 213.181 119.083 210.643 119.083 207.784C119.083 203.987 119.723 200.787 121.003 198.184C122.283 195.539 124.117 193.533 126.507 192.168C128.896 190.76 131.733 190.056 135.019 190.056C138.133 190.056 140.864 190.76 143.211 192.168C145.6 193.533 147.456 195.539 148.779 198.184C150.144 200.787 150.826 203.987 150.826 207.784ZM124.907 207.784C124.907 210.472 125.248 212.819 125.931 214.824C126.656 216.787 127.765 218.301 129.259 219.368C130.752 220.435 132.651 220.968 134.955 220.968C137.259 220.968 139.157 220.435 140.651 219.368C142.144 218.301 143.232 216.787 143.915 214.824C144.64 212.819 145.003 210.472 145.003 207.784C145.003 205.053 144.64 202.728 143.915 200.808C143.189 198.888 142.08 197.416 140.587 196.392C139.136 195.325 137.237 194.792 134.891 194.792C131.392 194.792 128.853 195.944 127.275 198.248C125.696 200.552 124.907 203.731 124.907 207.784ZM185.225 190.696V220.264H190.217V236.904H184.777V225H160.905V236.904H155.529V220.264H158.281C160.243 217.533 161.865 214.568 163.145 211.368C164.467 208.125 165.449 204.755 166.089 201.256C166.771 197.715 167.134 194.195 167.177 190.696H185.225ZM172.169 195.112C171.998 198.013 171.55 201.021 170.825 204.136C170.099 207.208 169.161 210.152 168.009 212.968C166.899 215.784 165.598 218.216 164.105 220.264H179.785V195.112H172.169ZM222.412 190.696V220.264H227.404V236.904H221.964V225H198.092V236.904H192.716V220.264H195.468C197.431 217.533 199.052 214.568 200.332 211.368C201.655 208.125 202.636 204.755 203.276 201.256C203.959 197.715 204.321 194.195 204.364 190.696H222.412ZM209.356 195.112C209.185 198.013 208.737 201.021 208.012 204.136C207.287 207.208 206.348 210.152 205.196 212.968C204.087 215.784 202.785 218.216 201.292 220.264H216.972V195.112H209.356ZM247.376 190.056C250.32 190.056 252.837 190.696 254.928 191.976C257.061 193.256 258.682 195.069 259.792 197.416C260.944 199.72 261.52 202.429 261.52 205.544V208.936H238.032C238.117 212.819 239.098 215.784 240.976 217.832C242.896 219.837 245.562 220.84 248.976 220.84C251.152 220.84 253.072 220.648 254.736 220.264C256.442 219.837 258.192 219.24 259.984 218.472V223.4C258.234 224.168 256.506 224.723 254.8 225.064C253.093 225.448 251.066 225.64 248.72 225.64C245.477 225.64 242.597 224.979 240.08 223.656C237.605 222.333 235.664 220.371 234.256 217.768C232.89 215.123 232.208 211.901 232.208 208.104C232.208 204.349 232.826 201.128 234.064 198.44C235.344 195.752 237.114 193.683 239.376 192.232C241.68 190.781 244.346 190.056 247.376 190.056ZM247.312 194.664C244.624 194.664 242.49 195.539 240.912 197.288C239.376 198.995 238.458 201.384 238.16 204.456H255.632C255.632 202.493 255.333 200.787 254.736 199.336C254.138 197.885 253.221 196.755 251.984 195.944C250.789 195.091 249.232 194.664 247.312 194.664ZM286.573 190.056C290.797 190.056 294.189 191.528 296.749 194.472C299.351 197.416 300.653 201.853 300.653 207.784C300.653 211.667 300.055 214.952 298.861 217.64C297.708 220.285 296.066 222.291 293.933 223.656C291.842 224.979 289.367 225.64 286.509 225.64C284.759 225.64 283.202 225.405 281.837 224.936C280.471 224.467 279.298 223.869 278.317 223.144C277.378 222.376 276.567 221.544 275.885 220.648H275.501C275.586 221.373 275.671 222.291 275.757 223.4C275.842 224.509 275.885 225.469 275.885 226.28V240.36H270.253V190.696H274.861L275.629 195.368H275.885C276.567 194.387 277.378 193.491 278.317 192.68C279.298 191.869 280.45 191.229 281.773 190.76C283.138 190.291 284.738 190.056 286.573 190.056ZM285.549 194.792C283.245 194.792 281.389 195.24 279.981 196.136C278.573 196.989 277.549 198.291 276.909 200.04C276.269 201.789 275.927 204.008 275.885 206.696V207.784C275.885 210.6 276.183 212.989 276.781 214.952C277.378 216.915 278.381 218.408 279.789 219.432C281.239 220.456 283.202 220.968 285.677 220.968C287.767 220.968 289.474 220.392 290.797 219.24C292.162 218.088 293.165 216.531 293.805 214.568C294.487 212.563 294.829 210.28 294.829 207.72C294.829 203.795 294.061 200.659 292.525 198.312C291.031 195.965 288.706 194.792 285.549 194.792ZM349.53 190.696L335.386 207.336L350.746 225H344.346L329.498 207.592V225H324.25V207.592L309.402 225H303.002L318.362 207.336L304.218 190.696H310.362L324.25 207.336V190.696H329.498V207.336L343.45 190.696H349.53ZM369.37 190.12C373.551 190.12 376.644 191.037 378.65 192.872C380.655 194.707 381.658 197.629 381.658 201.64V225H377.562L376.474 220.136H376.218C375.236 221.373 374.212 222.419 373.146 223.272C372.122 224.083 370.927 224.68 369.562 225.064C368.239 225.448 366.618 225.64 364.698 225.64C362.65 225.64 360.794 225.277 359.13 224.552C357.508 223.827 356.228 222.717 355.29 221.224C354.351 219.688 353.882 217.768 353.882 215.464C353.882 212.051 355.226 209.427 357.914 207.592C360.602 205.715 364.74 204.691 370.33 204.52L376.154 204.328V202.28C376.154 199.421 375.535 197.437 374.298 196.328C373.06 195.219 371.311 194.664 369.05 194.664C367.258 194.664 365.551 194.941 363.93 195.496C362.308 196.008 360.794 196.605 359.385 197.288L357.658 193.064C359.151 192.253 360.922 191.571 362.97 191.016C365.018 190.419 367.151 190.12 369.37 190.12ZM371.034 208.424C366.767 208.595 363.802 209.277 362.138 210.472C360.516 211.667 359.706 213.352 359.706 215.528C359.706 217.448 360.282 218.856 361.434 219.752C362.628 220.648 364.143 221.096 365.978 221.096C368.879 221.096 371.29 220.307 373.21 218.728C375.13 217.107 376.09 214.632 376.09 211.304V208.232L371.034 208.424ZM415.933 195.432H404.733V225H399.165V195.432H388.093V190.696H415.933V195.432ZM438.498 204.776C441.485 204.776 443.959 205.139 445.922 205.864C447.885 206.589 449.357 207.677 450.338 209.128C451.362 210.536 451.874 212.328 451.874 214.504C451.874 216.637 451.383 218.493 450.402 220.072C449.463 221.651 447.991 222.867 445.986 223.72C443.981 224.573 441.399 225 438.242 225H422.69V190.696H428.322V204.776H438.498ZM446.242 214.824C446.242 212.733 445.495 211.325 444.002 210.6C442.551 209.832 440.503 209.448 437.858 209.448H428.322V220.456H437.986C440.375 220.456 442.338 220.029 443.874 219.176C445.453 218.323 446.242 216.872 446.242 214.824ZM219.385 265.696V279.968H238.009V265.696H243.641V300H238.009V284.704H219.385V300H213.753V265.696H219.385ZM267.495 265.12C271.676 265.12 274.769 266.037 276.775 267.872C278.78 269.707 279.783 272.629 279.783 276.64V300H275.687L274.599 295.136H274.343C273.361 296.373 272.337 297.419 271.271 298.272C270.247 299.083 269.052 299.68 267.687 300.064C266.364 300.448 264.743 300.64 262.823 300.64C260.775 300.64 258.919 300.277 257.255 299.552C255.633 298.827 254.353 297.717 253.415 296.224C252.476 294.688 252.007 292.768 252.007 290.464C252.007 287.051 253.351 284.427 256.039 282.592C258.727 280.715 262.865 279.691 268.455 279.52L274.279 279.328V277.28C274.279 274.421 273.66 272.437 272.423 271.328C271.185 270.219 269.436 269.664 267.175 269.664C265.383 269.664 263.676 269.941 262.055 270.496C260.433 271.008 258.919 271.605 257.51 272.288L255.783 268.064C257.276 267.253 259.047 266.571 261.095 266.016C263.143 265.419 265.276 265.12 267.495 265.12ZM269.159 283.424C264.892 283.595 261.927 284.277 260.263 285.472C258.641 286.667 257.831 288.352 257.831 290.528C257.831 292.448 258.407 293.856 259.559 294.752C260.753 295.648 262.268 296.096 264.103 296.096C267.004 296.096 269.415 295.307 271.335 293.728C273.255 292.107 274.215 289.632 274.215 286.304V283.232L269.159 283.424ZM304.138 300.64C301.108 300.64 298.399 300.021 296.01 298.784C293.663 297.547 291.807 295.627 290.442 293.024C289.119 290.421 288.458 287.093 288.458 283.04C288.458 278.816 289.162 275.381 290.57 272.736C291.978 270.091 293.876 268.149 296.266 266.912C298.698 265.675 301.45 265.056 304.522 265.056C306.271 265.056 307.956 265.248 309.578 265.632C311.199 265.973 312.522 266.4 313.546 266.912L311.818 271.584C310.794 271.2 309.599 270.837 308.234 270.496C306.868 270.155 305.588 269.984 304.394 269.984C302.09 269.984 300.191 270.475 298.698 271.456C297.204 272.437 296.095 273.888 295.37 275.808C294.644 277.728 294.282 280.117 294.282 282.976C294.282 285.707 294.644 288.032 295.37 289.952C296.095 291.872 297.183 293.323 298.634 294.304C300.084 295.285 301.898 295.776 304.074 295.776C305.951 295.776 307.594 295.584 309.002 295.2C310.452 294.816 311.775 294.347 312.97 293.792V298.784C311.818 299.381 310.538 299.829 309.13 300.128C307.764 300.469 306.1 300.64 304.138 300.64Z" fill="white"/>
</g>
<defs>
<filter id="filter0_d_1_4" x="70.958" y="179.304" width="384.916" height="129.336" filterUnits="userSpaceOnUse" color-interpolation-filters="sRGB">
<feFlood flood-opacity="0" result="BackgroundImageFix"/>
<feColorMatrix in="SourceAlpha" type="matrix" values="0 0 0 0 0 0 0 0 0 0 0 0 0 0 0 0 0 0 127 0" result="hardAlpha"/>
<feOffset dy="4"/>
<feGaussianBlur stdDeviation="2"/>
<feComposite in2="hardAlpha" operator="out"/>
<feColorMatrix type="matrix" values="0 0 0 0 0 0 0 0 0 0 0 0 0 0 0 0 0 0 0.25 0"/>
<feBlend mode="normal" in2="BackgroundImageFix" result="effect1_dropShadow_1_4"/>
<feBlend mode="normal" in="SourceGraphic" in2="effect1_dropShadow_1_4" result="shape"/>
</filter>
</defs>
</svg>
